<svg id="Layer_1" height="512" viewBox="0 0 512 512" width="512" xmlns="http://www.w3.org/2000/svg" data-name="Layer 1"><path d="m222.453 421.5a16.718 16.718 0 0 0 1.091 7.595 12.945 12.945 0 0 0 6.9 6.707c-.012-5.333-2.591-9.937-7.991-14.302z"/><path d="m258.673 463.531a37.42 37.42 0 0 0 -6.908 0c-2.136.2-4.213.294-6.22.294-13.182 0-23.6-4.114-31.412-10.182a14.9 14.9 0 0 0 2.528 7.286c5.189 7.591 18.242 11.6 37.749 11.6a.647.647 0 0 0 .1 0h.1c27.236.579 37.393-5.979 41.119-11.594a14.918 14.918 0 0 0 2.39-8.368c-8.1 6.67-19.1 11.258-33.127 11.258q-3.065.005-6.319-.294z"/><path d="m282.727 434.767a12.933 12.933 0 0 0 6.911-6.742 16.7 16.7 0 0 0 1.069-7.555c-5.394 4.362-7.972 8.965-7.98 14.297z"/><path d="m46.051 175.128c1.858.336 6.89.727 12.856-3.107a4.5 4.5 0 0 1 4.866 7.571 30.667 30.667 0 0 1 -6.372 3.145c11.574 6.784 26.428 12.862 45.457 16.957a219.629 219.629 0 0 0 45.832 4.83c4.933-8.091 12.369-22.28 20.548-44.854.019-.052.041-.1.06-.152a185.906 185.906 0 0 1 -31.065 1.825c-1.608 4.132-5.668 10.045-15.94 13.906a4.5 4.5 0 1 1 -3.167-8.424c4.865-1.829 7.609-4.095 9.161-6.029-21.837-1.845-47.11-8.364-67.851-25.752-24.736-20.739-38-52.839-39.545-95.614-15.721 49.349-13.611 88.462 6.335 116.47a90.424 90.424 0 0 0 18.825 19.228z"/><path d="m103.391 235.678c8.563 1.583 14.578-3.588 20.947-9.063 5.271-4.532 11.132-9.547 18.413-9.453q.586-1.842 1.32-3.657a228.676 228.676 0 0 1 -26.2-2.059c-4.867 2.421-15 7.963-18.78 12.271-6.847 7.81-19.817 8-27.869 7.224 2.682 8.86 10.1 24.265 29.235 23.523a34.3 34.3 0 0 0 19.526-7.33c6.038-4.71 13.047-9.33 20.744-10.086-.025-.239-.066-.465-.088-.706a47.342 47.342 0 0 1 .112-9.936c-3.094.773-6.3 3.389-10.542 7.035-6.064 5.213-13.421 11.536-23.655 11.537a26.324 26.324 0 0 1 -4.8-.45 4.5 4.5 0 0 1 1.637-8.85z"/><path d="m301.285 398.224c-2.262-1.95-14.332-11.438-29.468-6.336a50.275 50.275 0 0 1 -31.943-.018c-15-5.055-26.967 4.486-29.225 6.46-6.343 7.8-7.752 20.117-3.192 31.835 2.506 6.44 13.045 27.224 43.474 24.406a46.432 46.432 0 0 1 8.575 0c16.269 1.509 36.567-4.343 44.728-25.313 4.466-11.469 3.153-23.471-2.949-31.034zm-62.04 40.805a7.227 7.227 0 0 1 -3.433 5.3 7.612 7.612 0 0 1 -6.618.683c-6.825-2.467-11.521-6.659-13.96-12.46-3.76-8.94-.719-18.91.649-22.542a31.6 31.6 0 0 1 .526-10.873 4.5 4.5 0 1 1 8.753 2.092 22.557 22.557 0 0 0 -.245 8.159c.033.13.059.261.08.395a6.721 6.721 0 0 0 2.2 4c9.166 7.044 13.217 15.537 12.048 25.246zm58.689-7.515c-2.439 5.8-7.136 9.993-13.961 12.46a7.61 7.61 0 0 1 -6.617-.683 7.229 7.229 0 0 1 -3.434-5.3c-1.169-9.709 2.883-18.2 12.043-25.243 3.536-2.718 2.508-10.6 2.04-12.559a4.5 4.5 0 0 1 8.754-2.091 31.631 31.631 0 0 1 .525 10.872c1.368 3.63 4.409 13.603.65 22.544z"/><path d="m451.622 135.044c-20.741 17.388-46.015 23.907-67.851 25.752 1.549 1.94 4.293 4.2 9.161 6.029a4.5 4.5 0 1 1 -3.167 8.424c-6.816-2.562-11.728-6.3-14.6-11.1a18.522 18.522 0 0 1 -1.374-2.805 185.931 185.931 0 0 1 -31.031-1.826c.019.051.041.1.06.152 7.735 21.349 14.807 35.2 19.724 43.485a222.338 222.338 0 0 0 46.416-4.573c13.4-2.8 29.487-7.644 44.419-16.019-1.529-.795-3.217-1.765-5.094-2.971a4.5 4.5 0 0 1 4.865-7.571c5.077 3.263 8.17 4.321 9.614 4.664a90.64 90.64 0 0 0 22.043-21.443c19.891-27.76 22.009-66.651 6.359-115.806-1.551 42.77-14.81 74.87-39.544 95.608z"/><path d="m316.578 285.623c5.275 2.261 11.483 1.188 15.1-2.6a21.977 21.977 0 0 0 4.592-7.885c-4.046 1.47-8.078 2.7-11.95 3.88a129.046 129.046 0 0 0 -13.8 4.784 32.737 32.737 0 0 1 6.058 1.821z"/><path d="m195.48 285.623a32.85 32.85 0 0 1 6.065-1.824 128.756 128.756 0 0 0 -13.8-4.785c-3.873-1.179-7.9-2.41-11.95-3.88a21.962 21.962 0 0 0 4.592 7.885c3.613 3.793 9.818 4.865 15.093 2.604z"/><path d="m412.972 223.717c-3.832-4.369-14.884-10.606-20.141-13.34a230.222 230.222 0 0 1 -25.4 1.788 51.767 51.767 0 0 1 1.88 5c7.282-.093 13.142 4.921 18.413 9.452 6.369 5.476 12.382 10.648 20.947 9.063a4.5 4.5 0 0 1 1.637 8.85 26.324 26.324 0 0 1 -4.795.45c-10.235 0-17.59-6.324-23.655-11.537-4.242-3.647-7.447-6.263-10.542-7.036a47.352 47.352 0 0 1 .112 9.937c-.023.241-.063.467-.088.7 7.7.757 14.7 5.378 20.744 10.087a34.3 34.3 0 0 0 19.526 7.33c10.955.424 19.4-4.295 25.094-14.041a45.44 45.44 0 0 0 4.107-9.479c-8.059.779-21.001.575-27.839-7.224z"/><path d="m334.358 162.737c-9.099-25.114-42.658-20.637-61.858-15.737a66.737 66.737 0 0 1 -32.95 0c-19.195-4.9-52.755-9.38-61.854 15.735-8.676 23.943-16.632 38.893-21.779 47.218a41.071 41.071 0 0 0 -6.327 25.542c.727 7.716 2.982 13.61 6.7 17.519 9.392 9.872 21.938 13.692 34.071 17.387 9.054 2.758 17.8 5.427 23.953 10.561a154.2 154.2 0 0 1 12.052-42.784 4.5 4.5 0 1 1 8.136 3.845c-.261.558-20.062 43.341-8.3 76.738a4.5 4.5 0 1 1 -8.489 2.988 80.387 80.387 0 0 1 -4.264-25.786 14.535 14.535 0 0 0 -1.592-4.121 33.794 33.794 0 0 0 -12.833 2.053 23.73 23.73 0 0 1 -9.329 1.923 21.772 21.772 0 0 1 -15.828-6.594c-5.8-6.088-7.774-14.319-8.431-18.534a63.1 63.1 0 0 1 -7.8-4.708c.7 11.572 3.736 31.555 15.622 47.959a158.388 158.388 0 0 1 11.6 18.54 81.42 81.42 0 0 1 7.354 56.509c-2.659 11.512-6.139 38.406 13.271 55.888a47.733 47.733 0 0 1 -6.418-11.451c-5.828-14.976-3.677-30.984 4.992-41.267l.034-.031a30.279 30.279 0 0 1 4.807-4.582c10.8-8.2 10.8-29.7 10.8-48.661a4.5 4.5 0 0 1 9 0c0 14.891-.007 31.181-5.085 43.305a36.02 36.02 0 0 1 19.132 1.152 41.248 41.248 0 0 0 26.194.019 36.536 36.536 0 0 1 19.508-1.155c-5.084-12.125-5.091-28.424-5.091-43.321a4.5 4.5 0 0 1 9 0c0 18.964 0 40.459 10.8 48.661 12.449 9.455 16.251 27.529 9.462 44.976a49.171 49.171 0 0 1 -4.578 8.913c15.987-15.2 15.5-36.392 11.8-52.442a81.415 81.415 0 0 1 7.354-56.509 158.294 158.294 0 0 1 11.6-18.539c11.924-16.457 14.948-36.416 15.636-47.969a63.283 63.283 0 0 1 -7.813 4.717c-.657 4.215-2.632 12.446-8.431 18.534a21.774 21.774 0 0 1 -15.828 6.594 23.73 23.73 0 0 1 -9.329-1.923 33.814 33.814 0 0 0 -12.833-2.053 14.535 14.535 0 0 0 -1.592 4.121 80.415 80.415 0 0 1 -4.264 25.786 4.5 4.5 0 0 1 -8.49-2.988c11.777-33.447-8.1-76.311-8.3-76.74a4.5 4.5 0 0 1 8.138-3.843 154.182 154.182 0 0 1 12.051 42.784c6.157-5.134 14.9-7.8 23.954-10.561 12.133-3.695 24.679-7.515 34.071-17.387 3.717-3.909 5.972-9.8 6.7-17.519a41.071 41.071 0 0 0 -6.327-25.542c-5.147-8.327-13.103-23.277-21.779-47.22zm-115.89 74.037a4.495 4.495 0 0 1 -5.79-2.641c-3.417-9.151-19.211-20.75-42.262-16.577a4.5 4.5 0 1 1 -1.6-8.857c17.1-3.095 44.636 1.772 52.3 22.286a4.5 4.5 0 0 1 -2.648 5.789zm31.823-10.9a4.5 4.5 0 0 1 -4.45 3.872 4.552 4.552 0 0 1 -.635-.045 4.5 4.5 0 0 1 -3.826-5.085c2.524-17.865-6.343-28.227-6.721-28.66a4.5 4.5 0 0 1 6.716-5.99c.494.55 12.05 13.725 8.916 35.908zm27.109-29.914c-.422.483-9.235 10.837-6.718 28.656a4.5 4.5 0 0 1 -3.826 5.085 4.562 4.562 0 0 1 -.635.045 4.5 4.5 0 0 1 -4.45-3.872c-3.134-22.183 8.422-35.358 8.915-35.908a4.5 4.5 0 0 1 6.714 5.994zm69.475 17.969a4.5 4.5 0 0 1 -5.229 3.627c-23.051-4.175-38.845 7.426-42.262 16.577a4.5 4.5 0 0 1 -8.432-3.148c7.661-20.514 35.2-25.38 52.3-22.286a4.5 4.5 0 0 1 3.619 5.23z"/></svg>