<svg id="Layer_1" height="512" viewBox="0 0 512 512" width="512" xmlns="http://www.w3.org/2000/svg" data-name="Layer 1"><path d="m402.966 217.156c-5.285-8.876-13.637-15.943-18.84-19.805a80.665 80.665 0 0 1 -5.954 12.583 89.473 89.473 0 0 1 17.784 4.6c2.481.871 4.856 1.766 7.01 2.622z"/><path d="m342.527 191.1c-10.38 6.4-17.525 16.878-21.293 31.173 13.317 4.591 24.769 4.227 34.075-1.125a38.252 38.252 0 0 0 10.473-9.107l.018-.021c7.74-9.494 11.472-21.622 13.018-28.095-9.359-.825-23.928-.44-36.291 7.175z"/><path d="m108.969 215.3c6.864-2.572 16.239-5.542 25.291-6.648a79.854 79.854 0 0 1 -6.356-13.214c-5.229 3.862-13.649 10.956-18.935 19.862z"/><path d="m156.722 219.172c9.3 5.335 20.741 5.693 34.043 1.107-3.773-14.32-10.937-24.814-21.346-31.206-12.4-7.613-26.906-7.991-36.232-7.158 2.14 8.909 8.422 28.585 23.535 37.257z"/><path d="m206 332.772c.32-.171.651-.33.992-.472 7.638-3.184 18.584 1.7 33.468 14.929 2.1 1.871 2.953 4.905 2.393 8.544a21.533 21.533 0 0 1 -9.753 14.327 51.484 51.484 0 0 0 9.151 14.822 20.026 20.026 0 0 0 15.955 6.935 19.358 19.358 0 0 0 14.895-7.814 38.5 38.5 0 0 0 6.081-11.768 21.555 21.555 0 0 1 -10.039-14.5c-.56-3.64.29-6.673 2.393-8.543 14.067-12.5 20.827-16.565 26.772-16.08a11.774 11.774 0 0 1 7.569 3.837c.7-3.723.36-6.6-1.07-8.156-.071-.077-.153-.157-.242-.239-.07-.057-.139-.118-.207-.18-2.225-1.832-9.152-4.268-30 2.5a48.793 48.793 0 0 1 -33.389-1.168c-24.036-9.76-31.161-6.225-33.108-4.254-1.561 1.588-2.061 4.255-1.861 7.28z"/><path d="m297.583 342.117c-4-.289-15.284 9.589-19.617 13.437-.132 1.737 1.66 6.624 6.388 9.307 7.147-1.289 12.463-4.814 15.811-10.5a24.616 24.616 0 0 0 2.768-7.011l-.688-.843c-2.165-2.661-3.545-4.3-4.662-4.39z"/><path d="m282.031 441.9a42.477 42.477 0 0 1 -12.536-3.7c-8.624-4.1-18.826-4.4-28.729-.847a53.372 53.372 0 0 1 -10.8 2.556 71.4 71.4 0 0 1 -9.634.654 72.412 72.412 0 0 1 -43.149-14.408c.371 10.065 3.016 26.981 15.181 40.895 14.188 16.221 37.536 24.45 69.38 24.45h.058c28.8-1.174 49.531-9.509 61.608-24.773 10.639-13.447 12.141-29.5 11.914-38.959a72.467 72.467 0 0 1 -43.66 14.789 71.4 71.4 0 0 1 -9.633-.657z"/><path d="m234.034 353.56c-17.048-15.036-22.955-13.211-23.575-12.954-1.222.509-1.559 2.33-1.652 3.372.311 2.289 2.821 15.742 18.871 18.867 4.702-2.685 6.486-7.545 6.356-9.285z"/><path d="m106.172 390.671c3.894 4.091 7.881 7.99 11.893 11.682q7.441-2.45 15.767-4.355c6.581-1.494 13.02-2.588 19.051-3.4-.582-1.468-1.123-2.957-1.61-4.474a164.616 164.616 0 0 0 -18.828-1.471 130.324 130.324 0 0 0 -26.273 2.018z"/><path d="m92.174 374.434c16.512-4.59 33.236-5.345 47.784-4.457-15.55-3.252-34.291-5.385-53.581-3.469q2.79 4.049 5.797 7.926z"/><path d="m421.6 374.255q2.839-3.851 5.475-7.836c-18.946-1.75-37.316.361-52.6 3.558 14.348-.877 30.825-.151 47.125 4.278z"/><path d="m163.178 412.51a212.617 212.617 0 0 0 -24.178 3.82c-1.186.262-2.346.537-3.5.816a332.4 332.4 0 0 0 34.375 23.628 81.419 81.419 0 0 1 -1.578-22.4 73.468 73.468 0 0 1 -5.119-5.864z"/><path d="m89.843 154.378c.071-.084.2-.228.272-.306 9.4-9.72 18.524-16.749 31.149-26.477l2.713-2.091a132.556 132.556 0 0 1 34.951-19.361 4.5 4.5 0 0 1 3.127 8.439 123.558 123.558 0 0 0 -32.581 18.048l-2.717 2.094c-12.271 9.456-21.152 16.3-30.06 25.488-12.474 14.932-38.097 45.723-39.131 89.988-.576 24.644.869 44.583 4.295 59.264a171.363 171.363 0 0 0 13.918 39.265c26.758-4.158 52.9-.873 73.1 3.787a91.914 91.914 0 0 1 22.256-45.6 4.644 4.644 0 0 1 .457-.407c.069-.054 8.146-6.5 14.614-19.792 5.62-11.553 11.081-30.7 6.447-57.578a61.333 61.333 0 0 1 -19.162 3.36 41.978 41.978 0 0 1 -21.284-5.543 46.427 46.427 0 0 1 -11.714-9.742c-16.2.262-37.734 10.4-37.958 10.508a4.5 4.5 0 0 1 -6.3-5.155c4.487-17.916 21.784-31.338 28.786-36.146-.308-1.162-.564-2.215-.778-3.157-.417.094-.654.155-.677.161a4.5 4.5 0 1 1 -2.31-8.7c1.2-.318 29.589-7.624 52.877 6.677 13.488 8.282 22.352 22 26.348 40.77.009.044.017.088.026.132 12.684 59.862-19.382 88.042-23.1 91.075a85.225 85.225 0 0 0 -19.695 41.343 227.694 227.694 0 0 1 24.612 8.125 9.508 9.508 0 0 1 2.842 15.879 9.487 9.487 0 0 1 1.423 14.807 9.442 9.442 0 0 1 1.9 1.388 9.514 9.514 0 0 1 -6.352 16.418c-2.119.04-4.775.125-7.846.292a63.485 63.485 0 0 0 54.469 19.349 44.436 44.436 0 0 0 8.971-2.109c12.174-4.371 24.83-3.948 35.633 1.19a33.5 33.5 0 0 0 9.885 2.915 63.579 63.579 0 0 0 56.313-21.374c-2.821-.147-5.283-.226-7.265-.263a9.486 9.486 0 0 1 -4.433-17.782 9.49 9.49 0 0 1 1.406-14.831 9.5 9.5 0 0 1 2.843-15.879 225.056 225.056 0 0 1 21.975-7.395 85.309 85.309 0 0 0 -19.488-40.071c-3.727-3.039-35.784-31.22-23.1-91.074.009-.044.017-.087.026-.132 4-18.771 12.86-32.488 26.348-40.771 23.288-14.3 51.68-6.994 52.877-6.676a4.5 4.5 0 0 1 -2.309 8.7c-.041-.01-.281-.07-.678-.159-.209.919-.456 1.941-.755 3.07 6.984 4.825 24.275 18.31 28.763 36.231a4.5 4.5 0 0 1 -6.283 5.164c-11.641-5.483-30.339-12.2-37.575-10.989a46.621 46.621 0 0 1 -12.114 10.206 41.978 41.978 0 0 1 -21.283 5.544 61.333 61.333 0 0 1 -19.166-3.362c-9.2 53.211 20.75 77.13 21.064 77.372a4.519 4.519 0 0 1 .457.407 91.911 91.911 0 0 1 22.018 44.238c20.208-4.9 46.942-8.641 74.424-4.62a173.035 173.035 0 0 0 12.83-37.068c3.425-14.68 4.871-34.619 4.3-59.263-1.036-44.328-26.727-75.144-39.13-89.991-8.912-9.191-17.8-16.037-30.072-25.5l-2.706-2.086a123.558 123.558 0 0 0 -32.581-18.048 4.5 4.5 0 0 1 3.127-8.44 132.565 132.565 0 0 1 34.942 19.366l2.7 2.083c12.629 9.732 21.754 16.763 31.159 26.484.076.079.149.16.22.244 5.93 7.1 14.739 17.659 22.707 31.5 11.9-27.314 45.877-115.971 3.489-152.754-10.726-9.308-22.424-13.448-34.779-12.289-9.283.868-34.009 6.847-63.054 43.536a20.17 20.17 0 0 1 -22.009 6.676c-61.819-20.3-123.123-8.045-146.611-1.833a20.216 20.216 0 0 1 -21.12-7.147c-9.462-12.125-34.45-40.616-62.065-43.295-12.369-1.205-24.134 2.955-34.961 12.351-42.388 36.782-8.419 125.434 3.486 152.752 7.96-13.822 16.753-24.362 22.657-31.43zm21.557 130.589c5.25-7.609 15.338-9.119 15.765-9.18a4.5 4.5 0 0 1 1.283 8.908c-.15.024-6.672 1.081-9.64 5.383a4.5 4.5 0 1 1 -7.408-5.111zm0 19.958c5.25-7.609 15.338-9.119 15.765-9.18a4.5 4.5 0 0 1 1.283 8.908c-.149.023-6.672 1.081-9.64 5.383a4.5 4.5 0 1 1 -7.408-5.111zm-10.414-58.948a4.5 4.5 0 0 1 .431 6.35 54.83 54.83 0 0 0 -11.289 52 4.5 4.5 0 1 1 -8.628 2.573 63.78 63.78 0 0 1 13.133-60.487 4.5 4.5 0 0 1 6.351-.436zm298.47 67.2a4.5 4.5 0 0 1 -6.26-1.149c-2.507-3.634-7.922-5.139-9.621-5.381a4.5 4.5 0 1 1 1.263-8.91c.428.061 10.516 1.57 15.766 9.18a4.5 4.5 0 0 1 -1.15 6.264zm0-19.958a4.5 4.5 0 0 1 -6.26-1.149c-2.507-3.634-7.923-5.14-9.622-5.382a4.5 4.5 0 1 1 1.265-8.91c.427.061 10.515 1.571 15.765 9.181a4.5 4.5 0 0 1 -1.15 6.264zm31.044 15.672a4.5 4.5 0 1 1 -8.624-2.573 54.831 54.831 0 0 0 -11.289-52 4.5 4.5 0 1 1 6.78-5.918 63.783 63.783 0 0 1 13.133 60.491zm-71.89-221.9c14.23-43 49.586-57.975 51.085-58.592a4.5 4.5 0 0 1 3.431 8.321c-.406.17-27.4 11.776-41.978 43.041a95.623 95.623 0 0 1 17.809-4.193 4.5 4.5 0 1 1 1.279 8.908 85.022 85.022 0 0 0 -17.175 4.134c9.96 5.782 26.238 17.378 34.826 35.16a4.5 4.5 0 1 1 -8.106 3.914c-11.2-23.188-38.393-35.024-38.667-35.142a4.5 4.5 0 0 1 -2.506-5.55zm-168.62 293.887a4.5 4.5 0 1 1 3.19 1.32 4.528 4.528 0 0 1 -3.19-1.32zm10.37 22a4.49 4.49 0 1 1 1.32-3.18 4.531 4.531 0 0 1 -1.32 3.18zm16-13a4.49 4.49 0 1 1 1.32-3.18 4.531 4.531 0 0 1 -1.32 3.18zm86 0a4.49 4.49 0 1 1 1.32-3.18 4.531 4.531 0 0 1 -1.32 3.18zm16 13a4.49 4.49 0 1 1 1.32-3.18 4.531 4.531 0 0 1 -1.32 3.18zm.82-29.68a4.49 4.49 0 1 1 -3.19 1.32 4.531 4.531 0 0 1 3.19-1.318zm13.2-192.418a4.5 4.5 0 1 1 -8.348-3.363c11.436-28.4-15.6-47.815-15.876-48.008a4.5 4.5 0 0 1 5.174-7.365c.335.234 33.125 23.791 19.052 58.736zm-9.48-62.237a4.5 4.5 0 0 1 -6.193-1.381c-.222-.34-4.7-6.969-12.68-6.2a4.5 4.5 0 1 1 -.866-8.957c13.623-1.325 20.842 9.858 21.143 10.335a4.5 4.5 0 0 1 -1.404 6.203zm-21.735-36.5c13.623-1.318 20.843 9.86 21.144 10.336a4.5 4.5 0 0 1 -7.6 4.827c-.223-.341-4.68-6.972-12.68-6.2a4.5 4.5 0 0 1 -.867-8.959zm-3.382 107.33a4.5 4.5 0 0 1 7.633 4.767c-.154.249-15.447 25.163-11.671 49.352a4.5 4.5 0 0 1 -3.753 5.14 4.62 4.62 0 0 1 -.7.054 4.5 4.5 0 0 1 -4.441-3.807c-4.297-27.553 12.229-54.379 12.934-55.507zm-15.178-44.659a4.5 4.5 0 0 1 -.14 6.362c-5.481 5.247-13.834 13.9-15.242 16.722a4.5 4.5 0 0 1 -8.051-4.024c2.611-5.224 14.678-16.91 17.071-19.2a4.5 4.5 0 0 1 6.364.139zm-23.493-29.034c3.028-6.553 11.417-13.611 12.363-14.394a4.5 4.5 0 1 1 5.738 6.935c-2.14 1.774-8.088 7.246-9.931 11.233a4.5 4.5 0 0 1 -8.17-3.774zm-24.926-15.792a4.5 4.5 0 0 1 6.337-.6c.946.783 9.335 7.841 12.363 14.394a4.5 4.5 0 1 1 -8.17 3.775c-1.843-3.989-7.94-9.587-9.931-11.234a4.5 4.5 0 0 1 -.599-6.335zm-4.793 42.829a4.5 4.5 0 0 1 6.362-.14c2.393 2.29 14.46 13.977 17.071 19.2a4.5 4.5 0 1 1 -8.051 4.023c-1.41-2.822-9.762-11.477-15.242-16.722a4.5 4.5 0 0 1 -.14-6.361zm14.968 178.683a39.784 39.784 0 0 0 27.222.946c10.439-3.39 18.933-5.008 25.6-4.874-5.776-9.769-13.283-24.618-13.357-35.919a4.5 4.5 0 0 1 4.47-4.53h.031a4.5 4.5 0 0 1 4.5 4.471c.082 12.427 12.81 33.243 18.009 40.668.2.191.411.369.6.572 4.83 5.258 5.056 13.7.686 24.419a31.2 31.2 0 0 1 -23.967 26.091c-.914 4.574-3.833 10.776-7.825 16.154a28.315 28.315 0 0 1 -21.783 11.445q-.56.02-1.118.02a28.959 28.959 0 0 1 -21.976-10.055c-5.03-5.8-9.885-13.872-11.367-19.538a31.388 31.388 0 0 1 -24.205-26.091c-1.87-4.66-5.938-17.274.867-25.239 5.136-7.309 18.026-28.326 18.107-40.809a4.5 4.5 0 0 1 4.5-4.471h.03a4.5 4.5 0 0 1 4.47 4.529c-.072 10.96-7.131 25.25-12.826 35.014 7.483-.115 17.211 2.278 29.332 7.197zm-17.194-76.536a4.5 4.5 0 0 1 -8.9-1.366c3.725-24.257-11.613-51.221-11.769-51.49a4.5 4.5 0 0 1 7.793-4.5c.703 1.209 17.087 29.932 12.876 57.36zm-37.478-154.482c.3-.476 7.522-11.654 21.144-10.336a4.5 4.5 0 0 1 -.867 8.954c-8.026-.773-12.5 5.923-12.683 6.209a4.527 4.527 0 0 1 -3.793 2.052 4.495 4.495 0 0 1 -3.8-6.883zm-2 19.958c.3-.476 7.519-11.65 21.143-10.335a4.5 4.5 0 0 1 -.866 8.958c-8.022-.775-12.5 5.922-12.683 6.208a4.527 4.527 0 0 1 -3.793 2.052 4.495 4.495 0 0 1 -3.8-6.883zm10.974 9.709a4.5 4.5 0 0 1 5.179 7.36 53.466 53.466 0 0 0 -12.526 13.661c-6.966 11.025-8.094 22.583-3.355 34.351a4.5 4.5 0 1 1 -8.348 3.363c-14.068-34.946 18.722-58.501 19.055-58.735zm-102.229-91.195a4.5 4.5 0 0 1 5.874-2.45c1.5.617 36.854 15.593 51.083 58.593a4.5 4.5 0 0 1 -2.5 5.551c-.27.116-27.51 12.035-38.668 35.142a4.5 4.5 0 1 1 -8.1-3.914c8.587-17.783 24.865-29.379 34.825-35.161a85.022 85.022 0 0 0 -17.175-4.134 4.5 4.5 0 0 1 1.28-8.908 95.584 95.584 0 0 1 17.813 4.2c-14.649-31.468-41.685-42.922-41.983-43.046a4.5 4.5 0 0 1 -2.449-5.873z"/><path d="m396.8 402.5c3.857-3.778 7.668-7.729 11.372-11.842a130.3 130.3 0 0 0 -26.2-2.006 165.365 165.365 0 0 0 -20.724 1.739q-.594 2.025-1.3 4c6.477.833 13.475 1.987 20.64 3.613q8.592 1.943 16.212 4.496z"/><path d="m380.3 417.487c-1.6-.4-3.214-.79-4.876-1.157a213.8 213.8 0 0 0 -25.035-3.908 73.3 73.3 0 0 1 -6.583 7.834 77.678 77.678 0 0 1 -.886 24.559 324.769 324.769 0 0 0 37.38-27.328z"/><path d="m462.229 364.457a4.5 4.5 0 0 0 -2.874-5.679c-52.782-17.3-109.321 2.3-125.393 8.72a4.5 4.5 0 1 0 3.339 8.357c15.359-6.136 69.349-24.884 119.251-8.524a4.5 4.5 0 0 0 5.677-2.874z"/><path d="m447.116 400.483a4.5 4.5 0 0 0 2.509-8.238c-46.348-31.048-109.52-12.1-116.57-9.83a4.5 4.5 0 1 0 2.751 8.568 169.351 169.351 0 0 1 46.076-7.332c24.991-.477 46.09 4.922 62.734 16.071a4.478 4.478 0 0 0 2.5.761z"/><path d="m430.676 437.638a4.5 4.5 0 0 0 3.274-7.586c-11.785-12.506-30.11-21.651-54.465-27.178a240.9 240.9 0 0 0 -46.93-5.525h-.087a4.5 4.5 0 0 0 -.082 9c15.968.3 70.009 3.343 95.014 29.877a4.492 4.492 0 0 0 3.276 1.412z"/><path d="m178.791 376.178a4.5 4.5 0 0 0 1.671-8.68c-16.071-6.421-72.61-26.025-125.394-8.72a4.5 4.5 0 0 0 2.8 8.553c49.9-16.363 103.892 2.389 119.251 8.524a4.48 4.48 0 0 0 1.672.323z"/><path d="m67.308 400.483a4.481 4.481 0 0 0 2.5-.761c16.645-11.149 37.757-16.543 62.734-16.071a169.322 169.322 0 0 1 46.077 7.333 4.5 4.5 0 0 0 2.751-8.569c-7.051-2.265-70.224-21.218-116.571 9.83a4.5 4.5 0 0 0 2.509 8.238z"/><path d="m186.453 401.763a4.466 4.466 0 0 0 -4.584-4.414 240.9 240.9 0 0 0 -46.93 5.525c-24.356 5.527-42.68 14.672-54.465 27.178a4.5 4.5 0 1 0 6.55 6.172c25-26.534 79.046-29.577 95.014-29.877a4.5 4.5 0 0 0 4.415-4.584z"/></svg>