<svg id="Layer_1" height="512" viewBox="0 0 512 512" width="512" xmlns="http://www.w3.org/2000/svg" data-name="Layer 1"><path d="m137.824 237.512c-.371-.87-.718-1.715-1.04-2.519-.373.165-.589.27-.6.278a4.5 4.5 0 0 1 -4.044-8.04 45.169 45.169 0 0 1 7.368-2.754c-.161-.538-.3-1.078-.416-1.616-.767.022-1.539.049-2.281.049-30.734 0-39.892-18.837-40.291-19.693a4.5 4.5 0 0 1 8.141-3.837c.362.733 8.055 15.578 35.022 14.463a37.817 37.817 0 0 1 2.746-6.32 59.026 59.026 0 0 1 -1.739-7.828c-7.448-.743-17.21 2-20.739 3.289a4.5 4.5 0 0 1 -3.094-8.451c.586-.215 12.354-4.467 23.152-3.907a44.139 44.139 0 0 1 4.13-18.927c-19.736-6.107-91.3-25.842-130.157-4.493a110.018 110.018 0 0 0 21.066 30.819c24.061 24.905 59.464 38.475 102.776 39.487z"/><path d="m257.422 482.63a130.281 130.281 0 0 1 -28.942 3.394c-2.909 0-5.912-.122-8.948-.389a81.619 81.619 0 0 0 37.117 8.865c.354 0 .708 0 1.066-.007 16.694-.207 29.1-4.129 38.349-8.805q-3.359.254-6.933.292a139.822 139.822 0 0 1 -30.969-3.356 1.6 1.6 0 0 0 -.74.006z"/><path d="m146.466 232.134c-.351.056-.7.118-1.037.182 3.187 7.722 6.948 14.428 8.8 15.41 3.941 1.926 12.157 3.343 18.214 4.142-2.043-8.843-5.8-14.829-11.233-17.818-4.6-2.531-9.89-2.649-14.419-1.967-.107.017-.215.038-.325.051z"/><path d="m404.191 144.128a194.124 194.124 0 0 0 -45.339 15.708c.234.185.465.374.705.552a36.178 36.178 0 0 1 3.687 3.145c5.494-2.657 17.895-7.88 36.283-11.231 21.56-3.928 55.644-5.849 98.1 6.143-26.08-16.99-57.472-21.812-93.436-14.317z"/><path d="m149.186 163.837a39.609 39.609 0 0 1 2.792-3.052c1.011-.989 1.982-2.034 2.92-3.114a198.118 198.118 0 0 0 -46.444-14.853c-33.1-6.113-62.291-2.291-86.988 11.347 45.219-15.353 112.39 4.687 127.72 9.672z"/><path d="m232.964 443.986c-.41-4.054-3.2-8.667-8.1-13.456a16.212 16.212 0 0 0 1.147 6.675 13.087 13.087 0 0 0 6.953 6.781z"/><path d="m354.623 111.094 4.969 12.805c29.818-15.618 47.107-34.216 51.4-55.335 3.441-16.945-2.356-32.264-7.662-41.944a154.5 154.5 0 0 1 -5.305 26.695c-8.011 27.107-22.971 46.985-43.402 57.779z"/><path d="m152.323 124.12 5.054-13.026c-20.431-10.793-35.391-30.672-43.4-57.779a154.233 154.233 0 0 1 -5.194-25.707c-5.424 10.907-11.245 28.09-6.67 46.111 5.131 20.197 22.017 37.135 50.21 50.401z"/><path d="m252.8 464.008a46.729 46.729 0 0 1 8.659 0c16.483 1.523 37.045-4.4 45.293-25.622 4.5-11.57 3.169-23.677-2.989-31.317-2.627-2.225-14.807-11.5-29.868-6.43a50.869 50.869 0 0 1 -32.262-.018c-15.143-5.1-27.385 4.613-29.61 6.539-6.412 7.88-7.845 20.313-3.247 32.143 2.537 6.518 13.204 27.561 44.024 24.705zm37.865-44.222a4.5 4.5 0 0 1 8.374-3.262 33.594 33.594 0 0 1 1.48 4.116c.034.1.064.206.09.309 1.361 4.745 2.677 12.555-.331 19.71-2.459 5.851-7.2 10.078-14.091 12.567a7.663 7.663 0 0 1 -6.651-.689 7.258 7.258 0 0 1 -3.445-5.315c-1.391-11.574 5.838-22.233 14.577-27.436zm-73.27 1.06c.029-.117.062-.233.1-.347a32.947 32.947 0 0 1 1.44-3.975 4.5 4.5 0 0 1 8.191 3.728c0 .012-.03.067-.07.164 13.484 11.222 15.562 20.7 14.826 26.806a7.258 7.258 0 0 1 -3.445 5.315 7.665 7.665 0 0 1 -6.649.69c-6.893-2.49-11.634-6.717-14.093-12.568-3.027-7.208-1.669-15.078-.295-19.813z"/><path d="m147.561 219.093a10.581 10.581 0 0 0 .9 3.749 30.338 30.338 0 0 1 17.037 3.293 26.846 26.846 0 0 1 7.861 6.546 74.149 74.149 0 0 0 -8.095-21.033 4.5 4.5 0 0 1 7.726-4.617c.632 1.058 15.076 25.6 8.664 44.894.443 2.243.805 4.6 1.062 7.089a4.5 4.5 0 0 1 -4.015 4.937 4.594 4.594 0 0 1 -.467.024 4.488 4.488 0 0 1 -4.154-2.832 120.079 120.079 0 0 1 -19-3.527c8.461 29.9 26.721 103.262 22.978 168.044-1.074 18.566 3.509 32.265 13.621 40.716 8.4 7.021 20.577 10.619 36.195 10.692h.484a120.694 120.694 0 0 0 26.96-3.189 10.682 10.682 0 0 1 4.841-.032 135.1 135.1 0 0 0 28.882 3.133c16.2-.162 28.326-3.923 36.037-11.18 8.866-8.343 11.866-21.691 8.916-39.672-4.8-29.255-1.7-68.828 9.2-117.622 4.672-20.913 9.854-39.1 13.416-50.8a121.686 121.686 0 0 1 -18.669 3.432 4.5 4.5 0 0 1 -4.167 2.834 4.573 4.573 0 0 1 -.811-.074 4.5 4.5 0 0 1 -3.622-5.232c.455-2.5.988-4.871 1.585-7.124-6.3-19.224 7.455-43.411 8.058-44.457a4.5 4.5 0 0 1 7.8 4.5c-.088.153-6.039 10.649-7.95 22.192a28.3 28.3 0 0 1 11.477-9.568 27.765 27.765 0 0 1 14.529-2.009 20.338 20.338 0 0 0 -.4-3.125c-1.39-6.533-8.239-14.6-10.76-17.154a4.5 4.5 0 0 1 6.4-6.329c.164.165 1.683 1.714 3.648 4.121a47.515 47.515 0 0 0 1.031-7.342c.626-10.765-2.926-19.094-10.558-24.756-15.834-11.747-21.818-35.136-22.066-36.127a4.5 4.5 0 0 1 8.732-2.183 76.309 76.309 0 0 0 3.992 11.016c2.84-2.241 5.294-5.8 7.325-10.653l-6.5-16.748a51.784 51.784 0 0 1 -5.122 1.478 48.183 48.183 0 0 1 -36.784-6.372q-.811-.517-1.648-1.065c-6.161-4.03-23.725-11.183-38.333-10.285a153.18 153.18 0 0 1 -18.156-.017c-13.422-.749-29.054 5.918-35.757 10.3q-.836.547-1.648 1.065a48.18 48.18 0 0 1 -36.784 6.372 51.508 51.508 0 0 1 -5.122-1.479l-6.486 16.713a21.733 21.733 0 0 0 7.367 8.727 102.331 102.331 0 0 0 4.054-9.448 4.5 4.5 0 0 1 8.494 2.976c-.311.889-7.787 21.938-21.481 35.332-6.378 6.239-9.482 14.622-9.224 24.918a49.439 49.439 0 0 0 .488 5.727 33.574 33.574 0 0 1 2.746-2.594 4.5 4.5 0 0 1 5.7 6.967c-.088.07-8.27 6.914-10.427 16.858zm187.918-36.063a4.5 4.5 0 0 1 6.456 6.271c-.376.389-33.846 35.6-23.681 77.409a4.5 4.5 0 0 1 -3.309 5.437 4.607 4.607 0 0 1 -1.067.127 4.5 4.5 0 0 1 -4.369-3.437c-11.363-46.737 24.44-84.237 25.97-85.807zm-130 217.917a30.616 30.616 0 0 1 4.854-4.621c10.939-8.3 10.939-30.007 10.939-49.163a4.5 4.5 0 0 1 9 0c0 15.061-.007 31.541-5.169 43.781a36.41 36.41 0 0 1 19.405 1.146 41.822 41.822 0 0 0 26.52.018 36.877 36.877 0 0 1 19.8-1.115c-5.182-12.245-5.188-28.749-5.188-43.83a4.5 4.5 0 0 1 9 0c0 19.156 0 40.868 10.938 49.164 12.557 9.523 16.4 27.734 9.57 45.318-6.118 15.74-21.853 31.625-48.132 31.625q-3.093 0-6.381-.3a38.011 38.011 0 0 0 -6.995 0c-12.993 1.2-24.924-1.373-34.506-7.454a47.172 47.172 0 0 1 -18.74-22.953c-5.865-15.091-3.688-31.218 5.054-41.578zm-35.316-218.008a4.5 4.5 0 0 1 6.358.091c1.53 1.574 37.333 39.07 25.97 85.807a4.5 4.5 0 0 1 -4.369 3.437 4.56 4.56 0 0 1 -1.067-.127 4.5 4.5 0 0 1 -3.309-5.437c10.171-41.834-23.342-77.059-23.681-77.41a4.5 4.5 0 0 1 .098-6.361z"/><path d="m291.984 437.171a17.187 17.187 0 0 0 1.05-8.057c-4.212 3.37-7.985 8.818-8.109 14.915a13.125 13.125 0 0 0 7.059-6.858z"/><path d="m477.373 197.631a109.373 109.373 0 0 0 20.389-29.783c-41.782-12.279-75.2-10.533-96.155-6.776a140.675 140.675 0 0 0 -32.683 9.753 39.614 39.614 0 0 1 4.856 21.06c18.645-3.048 24.783 2.39 25.9 3.616a4.681 4.681 0 0 1 1.074 4.658 4.509 4.509 0 0 1 -7.776 1.443c-1.162-.64-6.687-3.038-20.306-.371a53.4 53.4 0 0 1 -2.378 8.222 30.643 30.643 0 0 1 2.945 7.75c.015.072.026.142.041.214 27.019.685 36.566-17.326 36.974-18.126a4.5 4.5 0 0 1 8.049 4.027c-.477.961-11.063 21.512-40.024 23.036 1.132.579 1.826 1 1.95 1.082a4.5 4.5 0 0 1 -4.768 7.633l-.017-.01c-.316.755-.654 1.544-1.012 2.355 43.422-1.02 78.934-14.705 102.941-39.783z"/><path d="m353.889 232.466c-6.112 2.72-10.7 9.212-13.7 19.317 5.985-.813 13.775-2.2 17.582-4.06 1.893-1 5.888-8 9.286-15.993-3.917-.948-8.693-1.256-13.168.736z"/></svg>