<svg id="Layer_1" height="512" viewBox="0 0 512 512" width="512" xmlns="http://www.w3.org/2000/svg" data-name="Layer 1"><path d="m265.9 383.806c2.611-1.294 6.91-2.262 12.716.309.212-1.23.33-3.023-.484-4.057-.868-1.1-3.024-1.751-6.074-1.831a7.941 7.941 0 0 0 -5.882 2.873 10.266 10.266 0 0 1 -.784.773 11.241 11.241 0 0 1 -15.257-.2l-.155-.149c-1.388-1.353-4.279-3.582-7.925-3.189-1.575.171-3.633.622-4.489 1.793-.765 1.046-.635 2.818-.435 3.982a15.74 15.74 0 0 1 6.6-1.87 8.591 8.591 0 0 1 3.962.958c3.976 2.027 6.49 6.9 8.342 16.209 1.891-8.143 5.125-13.252 9.865-15.601z"/><path d="m235.105 410.185c-.755 2.193-1.231 4.9-.2 6.506 1.426 2.218 6.23 3.141 13.185 2.536a85.3 85.3 0 0 1 14.752 0c7.147.628 12.171-.4 13.788-2.818 1.163-1.735.835-4.4.26-6.487-.752.055-1.5.088-2.254.088a43.519 43.519 0 0 1 -13.247-2.306 8.627 8.627 0 0 1 -3.575 1.815 8.342 8.342 0 0 1 -1.885.218 8.179 8.179 0 0 1 -5.133-1.842c-.069-.056-.133-.12-.2-.177a43.885 43.885 0 0 1 -13.809 2.518c-.573-.003-1.133-.02-1.682-.051z"/><path d="m283.388 438.436a6.405 6.405 0 0 1 4.887 4.081l.136.359a31.415 31.415 0 0 1 7.384-5.625 22.769 22.769 0 0 0 11.609-18.43 5.115 5.115 0 0 1 3.8-4.568 5.042 5.042 0 0 1 5.484 2.085c.068.1.133.2.2.307a87.521 87.521 0 0 1 3.2-8.762 77.618 77.618 0 0 1 5.778-10.828c12.958-20.782 6.732-55.782-.253-80.3-11.144 22.705-24.375 52.009-24.9 60.228.023 8.5-1.844 16.917-6.16 23.054a22.7 22.7 0 0 1 -8.914 7.66c1.023 3.792 1.541 9.155-1.518 13.721-3.653 5.452-11.07 7.731-22.047 6.774a76.038 76.038 0 0 0 -13.189 0q-2.424.212-4.611.211c-8.341 0-14.032-2.307-16.95-6.883-2.837-4.45-2.171-9.647-1.006-13.411a22.279 22.279 0 0 1 -8.439-6.738c-4.905-6.326-6.807-15.617-6.453-25.061h-.1c-.457-8.117-13.722-37.168-24.893-59.645-6.994 24.524-13.248 59.579-.275 80.384a77.725 77.725 0 0 1 5.778 10.828 87.288 87.288 0 0 1 3.312 9.152c.023-.07.046-.14.07-.211a4.689 4.689 0 0 1 9.12 1.276c.164 3.046 1.5 13.441 11.778 19.151a31.421 31.421 0 0 1 7.385 5.625l.183-.485a6.415 6.415 0 0 1 4.74-4.048 6.342 6.342 0 0 1 5.887 1.868 28.076 28.076 0 0 1 7.814 23.072c-.576 4.535 5.421 14.3 15.355 25.092 7.968-10.466 12.507-19.9 12.189-25.4a31.332 31.332 0 0 1 7.713-22.444 6.327 6.327 0 0 1 5.906-2.089z"/><path d="m194.442 290.087a41.616 41.616 0 0 1 -1.13 5.219c8.342 7.618 16.833 5.564 21.809 3.139-5.009-4.217-12.039-8.245-20.679-8.358z"/><path d="m318.69 295.308a41.839 41.839 0 0 1 -1.13-5.22c-8.65.11-15.686 4.152-20.7 8.372 5.005 2.468 13.462 4.508 21.83-3.152z"/><path d="m403.183 69.631c2.73 4.245 5.487 8.754 8.188 13.475a173.614 173.614 0 0 0 -17.828-59.481c4.033 17.223 7.847 36.632 9.64 46.006z"/><path d="m299.039 241.133c-11.012-6.8-13.639-20.906-14.247-28.243-3.852-.965-12.381-1.786-24.449 4.538a10.32 10.32 0 0 1 -4.783 1.195c-.112 0-.223 0-.335 0a10.331 10.331 0 0 1 -4.442-1.2c-11.961-6.326-19.978-5.556-23.568-4.61-.595 7.315-3.2 21.5-14.253 28.326-13.67 8.44-19.271 24.009-20.665 28.578.035.093.078.183.112.276a39.931 39.931 0 0 1 2.388 11.1c22.939.339 36.037 21.274 36.62 22.227l-7.672 4.706a34.858 34.858 0 0 0 -2.156-2.943 32.346 32.346 0 0 1 -15.9 4.6 25.677 25.677 0 0 1 -15.288-5.114c4.125 8.1 17.189 34.123 24.619 53.208a41.544 41.544 0 0 1 5.083-9.884c18.6-25.836 17.308-39.938 17.293-40.077a4.47 4.47 0 0 1 3.835-5.048 4.532 4.532 0 0 1 5.086 3.864c.244 1.734 1.782 17.776-18.91 46.519-9.056 12.581-8.9 34.365-2.428 42.713 4.353 5.612 11.7 6.814 21.865 3.616-1.485-6.606-2.909-8.006-3.2-8.226a13.016 13.016 0 0 0 -3.068 1.186l-.13.061a8.415 8.415 0 0 1 -7.411-.09 8.755 8.755 0 0 1 -4.66-6.142c-.916-4.517-.252-8.475 1.921-11.447 2.242-3.068 5.87-4.895 10.782-5.429a19.012 19.012 0 0 1 15.194 5.7 2.3 2.3 0 0 0 3.139.054c.039-.036.069-.063.094-.091a16.829 16.829 0 0 1 12.795-5.826c5.937.156 10.279 1.925 12.9 5.258 2.409 3.058 3.144 7.2 2.123 11.993a8.587 8.587 0 0 1 -4.591 5.954 8.494 8.494 0 0 1 -7.434.059c-2.264-1.07-4.08-1.28-5.4-.624-1.109.549-3.047 2.277-4.6 7.639 10.158 3.1 17.512 1.556 21.877-4.652 8.029-11.416 4.229-33.868-2.327-41.384-17.01-19.5-19.12-44.812-19.2-45.879a4.5 4.5 0 0 1 8.973-.692c.02.258 2.022 23.469 17.011 40.655a32.79 32.79 0 0 1 5.656 10.014c2.32-5.914 5.614-13.662 10.314-23.881 5.88-12.785 11.759-24.635 14.017-29.145a25.688 25.688 0 0 1 -15.313 5.131 32.345 32.345 0 0 1 -15.9-4.6 34.488 34.488 0 0 0 -2.156 2.942 4.5 4.5 0 0 1 -7.672-4.706c.582-.952 13.669-21.884 36.6-22.228a39.608 39.608 0 0 1 2.508-11.4c-1.398-4.6-7.004-20.127-20.647-28.551zm-48.739 46.83a4.5 4.5 0 1 1 -8.895-1.369 29.727 29.727 0 0 0 -1.727-14.807 4.5 4.5 0 0 1 8.22-3.666 38.493 38.493 0 0 1 2.402 19.842zm22.018-16.175a29.731 29.731 0 0 0 -1.726 14.806 4.5 4.5 0 1 1 -8.895 1.369 38.5 38.5 0 0 1 2.4-19.842 4.5 4.5 0 0 1 8.22 3.667z"/><path d="m341.01 230.41a4.491 4.491 0 0 1 -3.318-8.34c2.7-1.2 4.994-2.1 6.948-2.771a25.751 25.751 0 0 0 -3.931-2.788 4.5 4.5 0 0 1 -2.867-8.027 24.2 24.2 0 0 1 10.871-4.356c-.434-.26-.864-.5-1.28-.72a4.5 4.5 0 0 1 -.448-7.71c23.891-16.248 40.148-19.61 49.331-19.707a5.394 5.394 0 0 0 -.966-.56c-3.1-1.384-8.668-.585-15.277 2.192a168.159 168.159 0 0 1 -18.723 6.685c-17.843 5.138-29.389 11.907-31.677 18.572-4.528 13.193-19.387 24.545-27.127 29.741a13.7 13.7 0 0 0 1.221.854c9.881 6.1 16.149 15 19.95 22.361 1.447-9.286 6.321-20.356 18.177-24.8a2.154 2.154 0 0 0 -.884-.626z"/><path d="m188.284 255.836c3.8-7.361 10.068-16.26 19.949-22.361a13.725 13.725 0 0 0 1.207-.843c-7.737-5.2-22.585-16.562-27.113-29.752-2.287-6.665-13.834-13.434-31.677-18.572a168.074 168.074 0 0 1 -18.722-6.685c-6.61-2.778-12.178-3.577-15.277-2.192a5.365 5.365 0 0 0 -.967.56c9.183.1 25.439 3.46 49.331 19.707a4.5 4.5 0 0 1 -.447 7.71c-.416.219-.845.461-1.278.721a24.193 24.193 0 0 1 10.869 4.355 4.5 4.5 0 0 1 1.072 5.828 4.433 4.433 0 0 1 -3.94 2.2 25.8 25.8 0 0 0 -3.93 2.788c1.954.674 4.249 1.575 6.948 2.771a4.5 4.5 0 0 1 -3.329 8.355 2.048 2.048 0 0 0 -.878.612c11.859 4.44 16.734 15.511 18.182 24.798z"/><path d="m286.4 98.882c-1.791 12.706.045 31.684 10.753 54.052 16.674 34.828.291 53.578-3.514 57.279a40.515 40.515 0 0 0 3.463 15.209c6.718-4.471 20.327-14.6 24.056-25.464 4.233-12.33 22.838-20.019 37.7-24.3a159.316 159.316 0 0 0 17.726-6.333 46.125 46.125 0 0 1 11.145-3.284 78.633 78.633 0 0 0 19.395-15.766c11.277-13 13.79-26.812 7.471-41.05-9.207-20.745-21.894-39.779-31.52-52.79l4.958 17.336a19.29 19.29 0 0 0 4.281.83 4.5 4.5 0 0 1 4.408 4.59 4.545 4.545 0 0 1 -4.589 4.408c-7.122-.143-26.49-8.316-41.26-15.036a158.9 158.9 0 0 0 16.4 8.348c6.1 2.842 13.021 6.064 19.94 10.018 21.566 12.323 23.387 32.371 17.887 47.021-2.957 7.892-18.112 29.674-52.268 35.62-20.151 3.507-26.9 8.594-29.016 10.909a2.864 2.864 0 0 0 .6.61 1.254 1.254 0 0 0 -.757-.091l1.579 8.86c-4.244.76-7.838-1.731-10.712-7.407-.015-.032-.031-.063-.046-.095a38.133 38.133 0 0 1 -1.809-4.288 55.782 55.782 0 0 1 -2.751-11.922c-.887-7.245-4.46-31.611-13.182-40.962-6.131-6.574-9.009-17.033-10.338-26.302z"/><path d="m388.575 225.972a27.465 27.465 0 0 0 4.562-15.386 37.294 37.294 0 0 1 1.5-10.494l3.962-13.516a13.279 13.279 0 0 0 .332-1.459 35.767 35.767 0 0 0 -8.984.574c-6.721 1.191-17.522 4.579-32.242 13.758 2.375 1.93 4.719 4.418 5.656 7.213a4.5 4.5 0 0 1 -4.622 5.916 39.644 39.644 0 0 0 -7.714.315 57.008 57.008 0 0 1 6.482 6.132 4.553 4.553 0 0 1 -4.617 7.407 12.866 12.866 0 0 0 -2.608.547 23.614 23.614 0 0 1 2.777 5.308 4.5 4.5 0 0 1 -3.553 6.058c-7.678 1.123-12.716 5.4-15.4 13.071-.221.633-.411 1.263-.584 1.887a12.941 12.941 0 0 1 2.817-.745c25.146-3.468 42.721-12.413 52.236-26.586z"/><path d="m100.63 83.106c2.7-4.721 5.458-9.23 8.187-13.475 1.793-9.374 5.608-28.783 9.641-46.006a173.592 173.592 0 0 0 -17.828 59.481z"/><path d="m154.292 199.449c-14.72-9.179-25.52-12.567-32.242-13.758a35.8 35.8 0 0 0 -8.984-.573 13.5 13.5 0 0 0 .333 1.458l3.961 13.515a37.307 37.307 0 0 1 1.5 10.5 27.465 27.465 0 0 0 4.562 15.386c9.515 14.173 27.089 23.118 52.236 26.586a12.917 12.917 0 0 1 2.816.745c-.172-.624-.362-1.254-.584-1.887-2.686-7.672-7.725-11.948-15.4-13.071a4.5 4.5 0 0 1 -3.553-6.058 23.416 23.416 0 0 1 2.819-5.3 13.114 13.114 0 0 0 -2.651-.559 4.553 4.553 0 0 1 -4.617-7.407 57.224 57.224 0 0 1 6.493-6.141 39.035 39.035 0 0 0 -7.725-.306 4.5 4.5 0 0 1 -4.621-5.916c.938-2.796 3.283-5.284 5.657-7.214z"/><path d="m202.081 166.146a55.782 55.782 0 0 1 -2.751 11.922 38.227 38.227 0 0 1 -1.81 4.289c-.014.031-.03.062-.045.093-2.874 5.676-6.468 8.167-10.713 7.408l1.579-8.86a1.266 1.266 0 0 0 -.757.091 2.849 2.849 0 0 0 .6-.61c-2.114-2.315-8.865-7.4-29.016-10.909-34.157-5.946-49.311-27.728-52.269-35.62-5.491-14.651-3.675-34.7 17.888-47.02 6.919-3.954 13.837-7.176 19.941-10.018a158.9 158.9 0 0 0 16.4-8.348c-14.771 6.72-34.138 14.893-41.26 15.036a4.5 4.5 0 1 1 -.182-9 18.467 18.467 0 0 0 4.034-.761l5-17.122c-9.6 13-22.17 31.912-31.31 52.507-6.35 14.305-3.784 28.176 7.626 41.228a78.218 78.218 0 0 0 19.235 15.588 46.073 46.073 0 0 1 11.149 3.284 159.46 159.46 0 0 0 17.726 6.333c14.863 4.28 33.468 11.969 37.7 24.3 3.73 10.868 17.333 21 24.049 25.48a40.528 40.528 0 0 0 3.471-15.225c-3.807-3.7-20.187-22.453-3.514-57.279 10.708-22.368 12.544-41.346 10.752-54.052-1.327 9.269-4.2 19.728-10.336 26.3-8.727 9.354-12.3 33.719-13.187 40.965z"/></svg>