<svg id="Layer_1" height="512" viewBox="0 0 512 512" width="512" xmlns="http://www.w3.org/2000/svg" data-name="Layer 1"><path d="m255.245 380.241a12.15 12.15 0 0 0 3.557 0 35.518 35.518 0 0 0 19.888-9.358c-2.509-.113-5.41-.349-8.589-.794-6.076-.852-10.547-4.6-11.96-10.035a13.344 13.344 0 0 1 4.5-13.944 10.759 10.759 0 0 1 9.35-1.98c4.353 1.131 8.381 5.053 10.771 10.491a7.974 7.974 0 0 0 3.421 3.557 26.094 26.094 0 0 0 .38-11.731c-3.39-17.3-21.1-17.591-28.559-16.915a21.448 21.448 0 0 1 -3.9 0c-1.145-.1-2.535-.184-4.076-.184-8.494 0-21.633 2.458-24.5 17.1a23.679 23.679 0 0 0 .653 11.528 7.4 7.4 0 0 0 3.148-3.354c2.39-5.438 6.418-9.36 10.771-10.491a10.763 10.763 0 0 1 9.35 1.98 13.344 13.344 0 0 1 4.5 13.944c-1.413 5.432-5.884 9.183-11.96 10.035-2.752.385-5.235.626-7.414.774a39.253 39.253 0 0 0 20.669 9.377z"/><path d="m269.728 352.839a1.663 1.663 0 0 0 -.431-.063 2.022 2.022 0 0 0 -1.222.507 4.529 4.529 0 0 0 -1.224 4.5c.487 1.872 2.043 3.044 4.5 3.388 1.889.265 3.671.447 5.312.569a15.335 15.335 0 0 1 -2.139-3.5c-1.418-3.223-3.48-5.059-4.796-5.401z"/><path d="m245.238 357.786a4.531 4.531 0 0 0 -1.224-4.5 2.022 2.022 0 0 0 -1.223-.507 1.661 1.661 0 0 0 -.43.063c-1.317.342-3.378 2.178-4.8 5.4a15.469 15.469 0 0 1 -2.151 3.53c1.616-.136 3.4-.328 5.324-.6 2.466-.342 4.017-1.514 4.504-3.386z"/><path d="m185.079 250.654c4.8 1.047 9.821.19 14.946-2.532-3.25-7.653-7.379-12.116-12.321-13.279-6.227-1.462-13.094 2.337-17.733 5.754 2.85 3.403 8.143 8.541 15.108 10.057z"/><path d="m217.76 441.162a116.683 116.683 0 0 0 23.673 8.671c21.813 5.288 41.357 2.75 58.275-7.521-10.27-1.628-20.554-6.586-30.236-14.608a22.625 22.625 0 0 1 -12.12 3.722 23.442 23.442 0 0 1 -13.583-4.7c-8.334 7.148-17.135 12.028-26.009 14.436z"/><path d="m157.167 369.248c4.424-26.04 18.325-50.38 27-63.57 3.2-4.868 7.589-10.885 11.462-16.194 1.608-2.2 3.15-4.316 4.519-6.226a123.4 123.4 0 0 0 9.265-15.091c9.376-18.1 12.229-43.74-2.532-60.215-13.144-14.671-26.227-21.3-38.883-19.7-20.9 2.635-35.215 26.576-37.609 30.839a112.875 112.875 0 0 0 -1.119 13.537l4.13 48.949a228.666 228.666 0 0 1 .414 32.773c4.321 12.297 14.686 39.541 23.353 54.898zm.787-130.165c.647-.685 16.053-16.712 31.81-13 8.739 2.056 15.443 9.53 19.968 22.208.018.043.031.087.048.131.374 1.056.74 2.136 1.084 3.264a4.488 4.488 0 0 1 -7.237 4.709 31.552 31.552 0 0 1 -14.443 3.706 28.229 28.229 0 0 1 -6.1-.67c-9.513-2.1-16.392-8.7-20.079-13.123a4.5 4.5 0 0 1 -5.052-7.225z"/><path d="m324.368 234.848c-4.935 1.169-9.058 5.63-12.3 13.274 5.144 2.732 10.176 3.586 15 2.52 7.007-1.546 12.262-6.663 15.081-10.053-4.921-3.589-11.802-7.157-17.781-5.741z"/><path d="m382.821 232.625a113.742 113.742 0 0 0 -1.136-13.565c-2.451-4.341-16.826-28.217-37.623-30.817-12.644-1.579-25.718 5.049-38.852 19.709-14.761 16.475-11.908 42.114-2.532 60.215a123.4 123.4 0 0 0 9.265 15.091c1.369 1.91 2.911 4.024 4.518 6.226 3.874 5.309 8.262 11.326 11.462 16.194 8.8 13.38 22.98 38.231 27.187 64.695 9.852-15.368 19.511-43.6 23.173-55.91a228.708 228.708 0 0 1 .408-32.891zm-28.857 12.819a4.5 4.5 0 0 1 -4.881.864c-3.687 4.423-10.567 11.024-20.079 13.123a28.3 28.3 0 0 1 -6.1.67 31.546 31.546 0 0 1 -14.443-3.706 4.49 4.49 0 0 1 -7.237-4.709c.345-1.128.71-2.208 1.084-3.264.017-.044.03-.088.048-.131 4.525-12.678 11.229-20.152 19.968-22.208 15.758-3.706 31.162 12.316 31.81 13a4.5 4.5 0 0 1 -.17 6.361z"/><path d="m253.077 421.651a12.352 12.352 0 0 0 9.747-.565 43.621 43.621 0 0 1 -6.064-10.932 49.9 49.9 0 0 1 -6.534 10.124 15.237 15.237 0 0 0 2.851 1.373z"/><path d="m467.9 153.042c-19.593-43.677-21.2-44.067-40.863-48.844a246.863 246.863 0 0 1 -26.3-7.645c-41.975-14.849-53.093 6.494-53.546 7.41a4.5 4.5 0 0 1 -8.129-3.861 29.187 29.187 0 0 1 8.8-10.012c-21.957-15.6-44.848-25.345-68.137-28.974a140.43 140.43 0 0 0 -60.959 4.116 165.357 165.357 0 0 0 -52.671 26.337 27.98 27.98 0 0 1 6.944 8.533 4.5 4.5 0 0 1 -8.131 3.857c-.483-.971-11.622-22.238-53.544-7.406a246.863 246.863 0 0 1 -26.3 7.645c-19.665 4.777-21.27 5.167-40.863 48.844-12.983 28.941-22.237 38.7-27.767 44.535-6.73 7.1-6.511 10.119-5.454 24.631 2.739 37.611 26.493 75.963 32.7 84.175 3.1 4.1 7.376 8.3 12.327 13.167 10.627 10.45 23.857 23.45 35.452 44.885 3.46 6.4 8.242 9.686 13.437 9.239a13.167 13.167 0 0 0 10.906-8.547c.806-2.367 2.295-7.713 4.814-19.738a218.031 218.031 0 0 0 3.813-63.06l-4.146-49.148c-.01-.12-.015-.24-.016-.36-.007-1.71.09-42.128 22.52-64.524 19.782-19.752 19.7-40.228 19.7-40.433a4.5 4.5 0 1 1 9-.138c.016.99.116 24.523-22.335 46.941-6.175 6.166-10.425 14.1-13.359 22.115 7.6-7.985 18.145-15.833 31.083-17.465 15.77-1.981 31.48 5.627 46.713 22.629 17.624 19.672 14.618 49.513 3.82 70.361a132.563 132.563 0 0 1 -9.949 16.193c-1.382 1.929-2.939 4.064-4.561 6.288-3.813 5.226-8.134 11.149-11.214 15.833-8.92 13.568-23.673 39.482-26.461 65.977a232.216 232.216 0 0 1 25.953 2.021 9.5 9.5 0 0 1 4.36 17q-.384.288-.788.533a9.493 9.493 0 0 1 -5.379 17.273c-3.713.029-9.587.283-16.343.919a52.939 52.939 0 0 0 7.626 9.809c9.2 9.285 31.914 18.574 58.682-5.5a40.61 40.61 0 0 0 13.344-27.825c-.039-.633-.064-1.273-.088-1.914-12.633-2.171-23.215-8.5-29.89-17.93a33.95 33.95 0 0 1 -6.008-26.273c2.081-10.624 8.408-18.179 18.3-21.851 7.724-2.868 15.8-2.67 19.926-2.3a12.678 12.678 0 0 0 2.272 0c4.123-.375 12.189-.577 19.908 2.288 9.888 3.67 16.215 11.229 18.3 21.859a35.335 35.335 0 0 1 -5.975 27.41c-6.2 8.772-16.044 14.681-27.826 16.767.522 12.893 4.574 23.843 11.158 29.765 26.771 24.077 49.483 14.788 58.683 5.5a52.936 52.936 0 0 0 7.653-9.855c-6.553-.6-12.241-.845-15.866-.873a9.488 9.488 0 0 1 -5.376-17.27q-.41-.248-.8-.538a9.5 9.5 0 0 1 4.366-17 232.236 232.236 0 0 1 25.451-2.009c-2.784-26.5-17.54-52.419-26.462-65.989-3.08-4.684-7.4-10.607-11.214-15.833-1.622-2.224-3.179-4.359-4.562-6.288a132.679 132.679 0 0 1 -9.942-16.194c-10.8-20.848-13.8-50.689 3.82-70.361 15.233-17 30.947-24.61 46.713-22.629 12.925 1.63 23.456 9.463 31.059 17.439-2.934-8.012-7.176-15.94-13.335-22.089-22.451-22.418-22.351-45.951-22.335-46.941a4.5 4.5 0 1 1 9 .138c0 .189.078 20.845 19.7 40.433 22.43 22.4 22.527 62.814 22.52 64.524 0 .12-.006.24-.016.36l-4.146 49.148a218.031 218.031 0 0 0 3.813 63.06c2.519 12.025 4.008 17.371 4.814 19.738a13.165 13.165 0 0 0 10.906 8.547c5.215.44 9.978-2.843 13.437-9.239 11.588-21.428 24.818-34.428 35.448-44.878 4.951-4.865 9.226-9.067 12.327-13.167 6.211-8.212 29.965-46.564 32.7-84.175 1.276-17.532.117-18.754-5.454-24.631-5.526-5.832-14.781-15.594-27.758-44.535zm-231.083 56.685c-.12.01-.24.014-.359.014a4.5 4.5 0 0 1 -4.482-4.145c-1.195-15.117-14.315-30.888-14.448-31.045a4.5 4.5 0 0 1 6.882-5.8c.617.731 15.113 18.107 16.539 36.135a4.5 4.5 0 0 1 -4.132 4.841zm57.744-35.176c-.133.157-13.253 15.928-14.448 31.045a4.5 4.5 0 0 1 -4.482 4.145c-.119 0-.239 0-.359-.014a4.5 4.5 0 0 1 -4.132-4.841c1.426-18.028 15.922-35.4 16.539-36.135a4.5 4.5 0 0 1 6.882 5.8z"/><path d="m119.018 394.156a4.5 4.5 0 0 0 6.016 2.077c20.235-9.846 63.733-3.815 64.171-3.753a4.5 4.5 0 0 0 1.268-8.91c-1.894-.27-46.663-6.482-69.377 4.571a4.5 4.5 0 0 0 -2.078 6.015z"/><path d="m193.807 403.9a4.532 4.532 0 0 0 -4.527-4.471c-1.914.012-47.111.462-67.945 14.739a4.5 4.5 0 0 0 5.088 7.424c18.561-12.719 62.473-13.16 62.914-13.163a4.5 4.5 0 0 0 4.47-4.529z"/><path d="m318.3 388.659a4.5 4.5 0 0 0 5.09 3.821c.435-.062 43.906-6.106 64.169 3.753a4.5 4.5 0 1 0 3.938-8.092c-22.713-11.053-67.481-4.841-69.376-4.571a4.5 4.5 0 0 0 -3.821 5.089z"/><path d="m323.257 408.43c.441 0 44.328.428 62.912 13.163a4.5 4.5 0 1 0 5.088-7.424c-20.833-14.277-66.029-14.727-67.943-14.739h-.029a4.5 4.5 0 0 0 -.028 9z"/></svg>