<svg id="Layer_1" height="512" viewBox="0 0 512 512" width="512" xmlns="http://www.w3.org/2000/svg" data-name="Layer 1"><path d="m285.467 457.94c6.521 3.273 9.352.96 11.088-1.419 6.322-8.67 4.693-29.466-1.211-35.487a70.584 70.584 0 0 1 -17.572-32.229 4.5 4.5 0 0 1 8.821-1.787c.016.074.255 1.178.8 2.974 0-.045.01-.087.012-.133a25.14 25.14 0 0 0 -4.405-15.193c-3.479-5.021-8.066-12.515-10.169-19.693-2.046-6.981-12.5-7.273-15.646-7.187q-1.2.03-2.393 0c-3.143-.085-13.571.206-15.616 7.187-2.1 7.178-6.69 14.672-10.169 19.694a25.128 25.128 0 0 0 -4.412 15.193c0 .053.011.1.014.154.557-1.834.791-2.95.8-2.991a4.5 4.5 0 0 1 8.822 1.782 70.584 70.584 0 0 1 -17.572 32.229c-5.9 6.021-7.533 26.817-1.211 35.487 1.736 2.38 4.566 4.695 11.088 1.419a4.5 4.5 0 1 1 4.037 8.044c-.8.4-1.594.752-2.38 1.058 1.966 4.245 5.786 10.762 12.2 15.406 9.323 6.751 21.928 6.408 31.361-.848a43.848 43.848 0 0 0 11.867-14.637c-.724-.289-1.453-.609-2.189-.979a4.5 4.5 0 1 1 4.037-8.044zm-44.8-6.466a4.5 4.5 0 0 1 -8.818-1.8c.953-4.674.468-8.354-1.444-10.937-2.97-4.011-8.675-4.6-8.732-4.605a4.5 4.5 0 0 1 .765-8.968c.393.032 9.688.873 15.13 8.123 3.551 4.734 4.594 10.853 3.097 18.187zm34.936 2.467a4.494 4.494 0 0 1 -5.309-3.509c-1.5-7.334-.453-13.453 3.1-18.186 5.442-7.249 14.737-8.09 15.13-8.122a4.5 4.5 0 0 1 .762 8.968c-.165.017-5.788.632-8.73 4.605-1.911 2.582-2.4 6.262-1.443 10.936a4.5 4.5 0 0 1 -3.513 5.308z"/><path d="m143.254 42c4.23-5.682 8.176-10.068 9.028-11a4.478 4.478 0 0 1 .79-.684c1.068-.728 4.866-2.751 8.907 1.783 7.98 8.948 39.473 78.566 47.388 135.308a83.523 83.523 0 0 1 9.074-10.166c-3.055-54.856-47.251-127.927-58.863-146.253-4.548 4.673-12.327 14.658-16.324 31.012z"/><path d="m172.137 159.261a32.282 32.282 0 0 1 4.509 18.1c-.828 15.234 6.314 24.093 10.492 27.93 4.935-5.772 8.985-11.5 9.78-14.927a28.233 28.233 0 0 1 2.167-6.364c.7-1.42 1.563-3.053 2.557-4.818-4.445-52.834-35.4-125.078-45.1-139.4-5.342 6.282-14.212 17.868-15.842 25.182.192 27.312 10.725 58.949 31.437 94.297z"/><path d="m206.3 278.087a4.477 4.477 0 0 1 -5.464-1.573 29.911 29.911 0 0 1 -5.714.6 24.761 24.761 0 0 1 -6.088-.744c-.439 1.868-.936 4.25-1.386 7.053 3.5 9.04 6.616 10.857 7.823 11.207.5.144 2.013.581 5.168-1.838 8.409-6.451 9.968-11.721 9.984-11.773a.748.748 0 0 1 .052-.192 51.76 51.76 0 0 0 1.014-25.675l-.034-.164c-1.729-8.335-6.231-12.879-13.762-13.893-5.531-.745-9.828.1-12.768 2.523a12.106 12.106 0 0 0 -3.227 4.261 26.249 26.249 0 0 1 4.928 1.09c9.144 2.979 16.489 10.788 21.831 23.211a4.5 4.5 0 0 1 -2.357 5.907z"/><path d="m255.332 496.3a34.36 34.36 0 0 1 -20.218-6.562 42.171 42.171 0 0 1 -5.534-4.807 12.85 12.85 0 0 0 4.321 8.018 32.172 32.172 0 0 0 21.149 8.069h.056a38.191 38.191 0 0 0 22.994-8.068 12.741 12.741 0 0 0 4.416-8.971 46.688 46.688 0 0 1 -5.273 4.753 35.908 35.908 0 0 1 -21.911 7.568z"/><path d="m257 150.6c-.177 0-.353 0-.53 0-.106.007-.214.011-.322.011h-.289c-.106 0-.212 0-.316-.011-9.323-.151-31.567 3.529-48.393 37.4a19.749 19.749 0 0 0 -1.46 4.388c-2.521 10.857-20.257 28.36-26.271 33.636a13.979 13.979 0 0 0 -4.777 8.673 9.5 9.5 0 0 0 1 6.093 19.989 19.989 0 0 1 3.764-4.131c4.951-4.073 11.57-5.586 19.687-4.493 11.291 1.521 18.882 8.973 21.373 20.985l.031.141a60.814 60.814 0 0 1 -1.187 30.063c-.394 1.46-2.768 8.572-13.194 16.569-3.318 2.544-6.6 3.823-9.793 3.823a12.007 12.007 0 0 1 -3.359-.482 14.75 14.75 0 0 1 -6.664-4.329 87.02 87.02 0 0 0 3.638 26.648c9.6 31.108 15.92 66.682 19.431 90.1q.42-.5.864-.957a57.1 57.1 0 0 0 9.016-12.178 26.031 26.031 0 0 1 -3.647-12.344 34.178 34.178 0 0 1 6.007-20.668c3.1-4.477 7.165-11.077 8.931-17.1.973-3.322 5.594-14.116 24.474-13.653.647.016 1.3.016 1.95 0 18.864-.449 23.53 10.331 24.5 13.653 1.766 6.025 5.831 12.625 8.931 17.1a34.189 34.189 0 0 1 6.005 20.673 26.024 26.024 0 0 1 -3.64 12.331 56.968 56.968 0 0 0 9.008 12.192q.444.454.864.957c3.511-23.418 9.827-58.993 19.431-90.1a86.078 86.078 0 0 0 3.607-26.381 14.565 14.565 0 0 1 -6.407 4.062 12.049 12.049 0 0 1 -3.359.482c-3.2 0-6.475-1.278-9.792-3.823-10.427-8-12.8-15.11-13.2-16.569a60.849 60.849 0 0 1 -1.185-30.063l.03-.141c2.491-12.012 10.082-19.464 21.373-20.985 8.11-1.09 14.737.42 19.688 4.493a20.022 20.022 0 0 1 3.789 4.168 11.494 11.494 0 0 0 .749-6.13 13.978 13.978 0 0 0 -4.776-8.673c-6.015-5.276-23.751-22.779-26.272-33.635a19.849 19.849 0 0 0 -1.457-4.395c-4.379-8.845-20.651-37.4-47.851-37.4zm-18.973 182.419a4.5 4.5 0 0 1 -8.66-2.45c4.838-17.1 3.139-32.894.863-43.131a4.5 4.5 0 1 1 8.785-1.954c2.502 11.248 4.362 28.626-.988 47.535zm44.052 3.105a4.5 4.5 0 0 1 -5.555-3.105c-5.348-18.907-3.489-36.286-.988-47.535a4.5 4.5 0 1 1 8.785 1.954c-2.277 10.238-3.974 26.031.863 43.131a4.5 4.5 0 0 1 -3.105 5.555z"/><path d="m187.642 266.212a15.4 15.4 0 0 0 8.714 1.846c-3.532-5.476-7.655-9.015-12.323-10.536a17.365 17.365 0 0 0 -4.807-.828c1.609 3.22 4.296 7.223 8.416 9.518z"/><path d="m332.988 256.7a17.311 17.311 0 0 0 -4.9.858c-4.626 1.538-8.715 5.066-12.22 10.5a15.387 15.387 0 0 0 8.755-1.87c4.077-2.288 6.757-6.28 8.365-9.488z"/><path d="m371.3 65.214-.171.034c-1.464-7.309-10.5-19.11-15.915-25.469-9.634 14.279-40.405 86.426-44.857 139.4 1.043 1.845 1.9 3.487 2.56 4.824a29.237 29.237 0 0 1 2.165 6.353c.795 3.426 4.839 9.146 9.77 14.914a31.461 31.461 0 0 0 4.305-4.891c4.592-6.448 6.677-14.194 6.2-23.027a32.282 32.282 0 0 1 4.509-18.095c20.645-35.236 31.179-66.789 31.434-94.043z"/><path d="m325.4 248.965a26.15 26.15 0 0 1 4.92-1.089 12.035 12.035 0 0 0 -3.28-4.312c-2.938-2.381-7.213-3.212-12.707-2.473-7.531 1.014-12.033 5.558-13.761 13.893l-.035.164a51.788 51.788 0 0 0 1.013 25.676 1.567 1.567 0 0 1 .076.284s1.584 5.254 9.962 11.68c3.158 2.422 4.668 1.982 5.167 1.838 1.181-.342 4.187-2.075 7.6-10.624-.485-3.03-1.028-5.592-1.5-7.56a24.821 24.821 0 0 1 -5.748.668 29.884 29.884 0 0 1 -5.713-.6 4.494 4.494 0 0 1 -7.821-4.338c5.341-12.418 12.685-20.228 21.827-23.207z"/><path d="m293.553 157.326c.469.443.94.879 1.405 1.34a85.78 85.78 0 0 1 7.673 8.783c7.691-54.9 37.875-124.959 47.147-135.358 4.04-4.53 7.839-2.51 8.907-1.782a4.443 4.443 0 0 1 .79.685c.877.96 5.03 5.578 9.4 11.5-3.958-16.65-11.856-26.787-16.451-31.514-11.624 18.336-55.859 91.48-58.871 146.346z"/></svg>