<svg id="Layer_1" height="512" viewBox="0 0 512 512" width="512" xmlns="http://www.w3.org/2000/svg" data-name="Layer 1"><path d="m280.546 374.252c-24.882-7.8-44.645-1.884-52.95 1.554.194 5.416.393 10.974.593 16.614a86.163 86.163 0 0 1 52.357-1.447z"/><path d="m280.546 428.03a105.286 105.286 0 0 0 -51.16-.234c.188 5.924.367 11.815.532 17.616a166.642 166.642 0 0 1 50.628.055z"/><path d="m280.546 400.379a77.558 77.558 0 0 0 -52.025 1.514c.193 5.536.383 11.121.568 16.707a115.072 115.072 0 0 1 51.457.181z"/><path d="m184.529 41.017a103.784 103.784 0 0 0 -46.992 6.341c-16.516 6.416-30.26 17.121-38.7 30.144-16.218 25.018-44.275 56.792-86.518 68.039 1.8 5.89 5.226 11.693 11.557 15.435 15.272 9.028 27.315 20.6 35.8 34.4l.395.642a123.387 123.387 0 0 0 25.16 28.915c1.211 1.036 2.354 1.982 3.439 2.88 7.749 6.413 13.348 11.047 19.027 27.589 2.441 7.111 8.986 13.549 17.506 17.222 6.9 2.973 13.761 3.5 18.354 1.418 22.6-10.257 35.727-11.893 42.857-11.4a197 197 0 0 1 .526-20.821c0-.121.015-.243.029-.365.193-2.349.43-4.674.71-6.96a145.728 145.728 0 0 1 3.757-19.753c-9.794-9.356-14.927-26.36-15.894-35.568a19.926 19.926 0 0 0 -7.446-13.6c-12.865-10.045-17.539-23.392-13.16-37.585a37.924 37.924 0 0 0 1.579-17.4c-3.707-22.28 3.007-44.861 17.958-60.4a101.7 101.7 0 0 1 10.056-9.173z"/><path d="m280.546 347.269c-25.875-7.934-45.973-1.018-53.869 2.6.182 5.266.376 10.759.579 16.427a87.565 87.565 0 0 1 53.29-1.431z"/><path d="m280.546 322.05c-26.907-9.232-47.529-2.9-54.749.028.15 5.508.338 11.6.555 18.159 10.142-3.99 29.778-9.072 54.194-2.343z"/><path d="m208.769 234.283a134.938 134.938 0 0 0 5.951-50.872 38.617 38.617 0 0 1 -5.344 12.384c-5.37 7.514-10.038 20.776-12.445 37.1a18.215 18.215 0 0 1 7.437 0 21.366 21.366 0 0 1 4.401 1.388z"/><path d="m195.722 243.626a173.084 173.084 0 0 0 .418 31.544c11.148-11.9 15.773-21.4 15.378-24.86-.524-4.581-4.875-7.787-8.9-8.587-1.497-.297-5.018-.662-6.896 1.903z"/><path d="m238.983 480.758a25 25 0 0 0 33.464-.41 184.2 184.2 0 0 0 -33.464.41z"/><path d="m280.546 461.963v-7.394a157.386 157.386 0 0 0 -50.381-.086c.071 2.724.139 5.429.2 8.089a24.53 24.53 0 0 0 2.313 9.825c12.254-1.489 29.095-2.557 45.783-.469a24.8 24.8 0 0 0 2.085-9.965z"/><path d="m280.546 300.075c0-.1 0-.2.01-.3.008-.119.088-1.3.291-3.182-27.519-9.467-48.531-2.865-55.5-.022.052 1.468.085 2.977.085 4.554 0 3.164.05 7.021.141 11.457 9.865-3.366 29.95-7.743 54.978.007z"/><path d="m220.459 249.288c.377 3.295-.622 7.034-2.4 10.866 12.241-5.688 40.777-15.223 73.524-.777-1.558-3.559-2.4-7.017-2.053-10.089a17.732 17.732 0 0 1 3.939-9.141c-36.771-17.026-69.4-3.648-76.976-.041a17.755 17.755 0 0 1 3.966 9.182z"/><path d="m282.979 283.472a69.47 69.47 0 0 1 5.228-15.746c-31.5-14-58.651-3.321-68.122 1.43a67.235 67.235 0 0 1 4.531 18.054c9.826-3.509 30.828-8.377 57.544.351.24-1.315.509-2.682.819-4.089z"/><path d="m180.951 56.429c-13.184 13.7-18.858 32.909-15.567 52.688a46.785 46.785 0 0 1 -1.857 21.528c-3.292 10.67.106 20.036 10.1 27.838a28.975 28.975 0 0 1 10.858 19.752c.869 8.275 4.769 19.329 10.161 26.545a63.928 63.928 0 0 1 7.409-14.218c5.719-8 7.06-27.811 7.094-34.768 0-7.7-4.326-16-11.02-21.126-5.2-3.983-10.976-5.391-16.252-3.964a10.14 10.14 0 0 0 -6.405 6.234 4.5 4.5 0 0 1 -8.6-2.636 19.149 19.149 0 0 1 12.661-12.286c8.045-2.176 16.592-.221 24.072 5.506 8.714 6.671 14.207 17.086 14.519 27.374 1.359 3.619 6.461 18.782 6.034 41.088 11.134-3.585 34.827-8.836 61.675-.576-.328-21.937 4.668-36.853 6.03-40.484a35.042 35.042 0 0 1 9.033-23.3 31.545 31.545 0 0 1 23.4-9.944h.032c7.87.008 13.839 1.678 19.27 9.967a4.5 4.5 0 0 1 -7.527 4.932c-3.3-5.04-5.831-5.893-11.751-5.9h-.023a22.637 22.637 0 0 0 -16.81 7.078 26.245 26.245 0 0 0 -6.639 18.056c.038 6.94 1.387 26.761 7.1 34.746a63.925 63.925 0 0 1 7.408 14.218c5.392-7.216 9.292-18.27 10.16-26.545a28.977 28.977 0 0 1 10.859-19.752c9.993-7.8 13.39-17.167 10.1-27.838a46.781 46.781 0 0 1 -1.857-21.528c3.291-19.779-2.383-38.982-15.567-52.688-21.381-22.206-44.522-26.826-72.696-26.926h-2.741c-28.158.1-51.299 4.72-72.663 26.929zm-2.8 85.136v-.041a4.505 4.505 0 0 1 4.789-4.15c8.5.579 14.83 3.432 18.82 8.481 5.46 6.909 4.144 15.258 4.085 15.61l-1.7 9.126a4.5 4.5 0 1 1 -8.847-1.648l.6-3.212c-6.921-1.531-19.171-5.165-17.749-24.166zm135.932 24.164.6 3.215a4.5 4.5 0 1 1 -8.849 1.645l-1.68-9.042c-.073-.435-1.388-8.791 4.074-15.7 3.985-5.042 10.306-7.892 18.787-8.471a4.5 4.5 0 0 1 4.79 4.151v.042c1.421 18.993-10.805 22.631-17.724 24.16z"/><path d="m196.887 156.728a11.06 11.06 0 0 0 -2.24-5.363 13.369 13.369 0 0 0 -7.473-4.273c.804 6.827 4.965 8.527 9.713 9.636z"/><path d="m420.718 72.607c15.263 23.542 41.5 53.393 80.619 64.068.044-.528.08-1.048.107-1.557a40.7 40.7 0 0 0 -15.152-33.646c-8.036-6.5-20.763-18.012-35.759-35.96-10.326-12.359-23.674-22.185-39.672-29.2l-.6-.263c-28.423-12.527-63.946-14.35-101.18-5.394q2.8 1.364 5.569 2.981c42.783-7.536 86.212 8.343 106.068 38.971z"/><path d="m386.806 272.619c8.52-3.673 15.065-10.111 17.506-17.222 5.679-16.542 11.277-21.176 19.026-27.589 1.085-.9 2.229-1.843 3.44-2.88a123.371 123.371 0 0 0 25.16-28.916l.394-.641c8.48-13.8 20.524-25.367 35.8-34.4 6.331-3.742 9.759-9.545 11.557-15.435-42.242-11.247-70.3-43.021-86.518-68.039-8.381-12.926-22.414-23.592-39.513-30.033a107.873 107.873 0 0 0 -47.958-6.256 101.9 101.9 0 0 1 9.819 8.982c14.953 15.543 21.666 38.125 17.958 60.4a37.938 37.938 0 0 0 1.58 17.4c4.378 14.193-.3 27.541-13.161 37.585a19.929 19.929 0 0 0 -7.445 13.6c-.967 9.208-6.1 26.212-15.894 35.568a145.561 145.561 0 0 1 3.756 19.753c.281 2.284.517 4.607.71 6.953.016.127.026.253.031.379a196.917 196.917 0 0 1 .53 20.533c7.377-.459 21.4 1.026 44.867 11.677 4.595 2.085 11.456 1.555 18.355-1.419z"/><path d="m315.34 151.357a11.074 11.074 0 0 0 -2.242 5.369c4.734-1.109 8.882-2.811 9.684-9.631a13.328 13.328 0 0 0 -7.442 4.262z"/><path d="m290.377 229.086a146.823 146.823 0 0 1 -4.07-24.052c-28.937-10.057-54.849-2.225-62.689.673a146.86 146.86 0 0 1 -3.987 23.293 100.608 100.608 0 0 1 70.746.086z"/><path d="m10.663 136.675c39.121-10.675 65.356-40.525 80.619-64.068 9.463-14.6 24.733-26.543 43-33.638 18.99-7.376 40.175-9.267 61.371-5.525q2.922-1.683 5.871-3.089c-36.533-8.679-71.552-6.755-99.79 5.692l-.588.259c-16 7.021-29.349 16.847-39.675 29.206-15 17.948-27.723 29.462-35.759 35.96a40.7 40.7 0 0 0 -15.152 33.646c.023.509.059 1.029.103 1.557z"/><path d="m295.292 183.515a135.075 135.075 0 0 0 5.925 50.767 21.334 21.334 0 0 1 4.4-1.386 18.163 18.163 0 0 1 7.437 0c-2.407-16.321-7.075-29.583-12.445-37.1a38.5 38.5 0 0 1 -5.317-12.281z"/><path d="m307.37 241.723c-4.028.8-8.379 4.006-8.9 8.587-.395 3.456 4.23 12.958 15.378 24.86a173.094 173.094 0 0 0 .418-31.545 5.738 5.738 0 0 0 -4.825-2.11 10.82 10.82 0 0 0 -2.071.208z"/></svg>