<svg id="Layer_1" height="512" viewBox="0 0 512 512" width="512" xmlns="http://www.w3.org/2000/svg" data-name="Layer 1"><path d="m105.68 221.579c16.35-16.62 29.532-30.711 39.084-41.783-.534-60.243-30.069-98.587-41.008-110.724-31.172 59.492-6.509 131.528 1.924 152.507z"/><path d="m407.95 69.053c-10.93 12.05-40.468 50.183-41 110.429 8.389 9.74 20.807 23.239 39.18 41.914a250.511 250.511 0 0 0 14.032-49.3c4.838-27.685 6.423-67.465-12.212-103.043z"/><path d="m98.8 228.53a253.747 253.747 0 0 1 -16.029-54.544c-7.736-43.936-2.163-83.595 16.123-114.686a4.5 4.5 0 0 1 6.9-1.053c.5.451 12.291 11.259 24.138 31.892a182.1 182.1 0 0 1 23.472 79.206c.2-.261.413-.526.611-.781a27.852 27.852 0 0 0 4.409-25.681c-19.324-59.4-47.8-122.262-72.748-131.355-.031-.007-.061-.017-.093-.025a18.88 18.88 0 0 0 -3.443-.9 377.586 377.586 0 0 0 -16.232 75.697c-4.468 40.455-4.041 99.215 22.373 152.739q5.442-5.398 10.519-10.509z"/><path d="m349.636 155.44c.311 1.314 1.852 4.848 8.676 13.579a181.073 181.073 0 0 1 23.476-79.054c11.85-20.555 23.651-31.285 24.147-31.731a4.5 4.5 0 0 1 6.889 1.064c18.284 31.093 23.874 70.717 16.163 114.589a252.915 252.915 0 0 1 -15.987 54.452q5.087 5.113 10.716 10.7c26.454-53.6 26.848-112.457 22.346-152.979a376.74 376.74 0 0 0 -16.2-75.45c-15.244 2.47-33.976 27.429-53.169 71.03a699.5 699.5 0 0 0 -27.057 73.8z"/><path d="m224.774 487.8a41.235 41.235 0 0 0 28.919 13.559 42.306 42.306 0 0 0 33.184-13.523q-2.6.248-5.219.251a54.765 54.765 0 0 1 -9.174-.774 107.622 107.622 0 0 1 -17.239-5.1 84.041 84.041 0 0 1 -15.729 5.1 54.755 54.755 0 0 1 -14.742.487z"/><path d="m323.117 282.4c-8.6 6.981-11.874 17.971-13.119 25.694 17.278.038 30.175-4.013 38.477-12.169a33.376 33.376 0 0 0 9.476-19.2c-14.919-2.894-26.625-.989-34.834 5.675z"/><path d="m188.883 282.4c-8.208-6.665-19.915-8.57-34.835-5.675a33.39 33.39 0 0 0 9.477 19.2c8.3 8.156 21.226 12.242 38.477 12.169-1.245-7.722-4.522-18.712-13.119-25.694z"/><path d="m83.231 377.566c26.169 6.253 61.143 17.106 79.145 33.3 4.03 3.623 7.59 9.285 11.275 16.053a105.579 105.579 0 0 1 12.876-32.738 54.1 54.1 0 0 0 7.363-20.343 50.809 50.809 0 0 0 .492-6.5c-10.871-1.092-39.966-7.351-75.2-41.96-13.426-13.185-26.7-19.485-39.461-18.756-14.025.814-23.569 10.113-26.082 12.843a90.46 90.46 0 0 0 -.616 23.967 39.832 39.832 0 0 0 30.208 34.134z"/><path d="m277.72 437.706a7.074 7.074 0 0 0 -1.637-5.405 24.954 24.954 0 0 0 -36.209-1.136 7.092 7.092 0 0 0 -1.928 5.213 7.443 7.443 0 0 0 2.487 5.277l16.29 14.6 18.231-13.709a6.989 6.989 0 0 0 2.766-4.84z"/><path d="m392.823 325.376c-35.24 34.61-64.337 40.868-75.207 41.96a50.836 50.836 0 0 0 .492 6.509 54.088 54.088 0 0 0 7.364 20.342 105.609 105.609 0 0 1 12.874 32.732c3.686-6.769 7.247-12.434 11.278-16.058 18-16.189 52.976-27.042 79.145-33.3a39.832 39.832 0 0 0 30.213-34.136 90.469 90.469 0 0 0 -.616-23.968c-2.513-2.729-12.057-12.028-26.082-12.842-12.763-.728-26.035 5.576-39.461 18.761z"/><path d="m197.1 451.578c-3-.966-7.144-2.161-12.126-3.266.57 1.02 1.155 2.029 1.743 3.036 3.841.031 7.351.12 10.383.23z"/><path d="m315.5 451.579c2.874-.105 6.179-.19 9.78-.225.56-.957 1.117-1.915 1.66-2.884-4.677 1.06-8.576 2.188-11.44 3.109z"/><path d="m125.483 318.955c31.489 30.925 57.368 37.717 67.939 39.2-.136-.575-.281-1.144-.445-1.7-4.237-14.3 2.5-29.076 8.972-39.373-19.746.066-34.838-4.921-44.869-14.868a41.945 41.945 0 0 1 -12.283-29.23 4.5 4.5 0 0 1 3.454-4.207c19.6-4.665 35.189-2.418 46.355 6.681 10.142 8.265 14.3 20.357 16 29.427.1-.144.191-.272.251-.366 5.425-8.5 6.671-21.377 4.864-25.912a4.5 4.5 0 1 1 8.36-3.332c2.931 7.354 1.337 23.162-5.638 34.087-.453.71-1.149 1.629-2.113 2.9-5.319 7.023-19.448 25.68-14.722 41.634a50.026 50.026 0 0 1 1.2 21.182 63.038 63.038 0 0 1 -8.556 23.723 96.465 96.465 0 0 0 -11.688 29.527 137.728 137.728 0 0 1 27.436 7.706 9.488 9.488 0 0 1 1.326 16.77 9.5 9.5 0 0 1 -4.134 18.344c-.994-.081-2.083-.157-3.219-.231a46.828 46.828 0 0 0 34.032 7.521 76.991 76.991 0 0 0 12.976-4.185l.824-10.313-17.384-15.584a16.588 16.588 0 0 1 -5.471-11.607 16.022 16.022 0 0 1 4.38-11.767 33.946 33.946 0 0 1 49.632 1.52 16.208 16.208 0 0 1 3.7 12.218 15.9 15.9 0 0 1 -6.3 11.022l-19.562 14.714-.8 9.958a104.745 104.745 0 0 0 13.99 4.024 46.826 46.826 0 0 0 33.969-7.478c-.893.06-1.758.122-2.557.187a9.5 9.5 0 0 1 -4.14-18.344 9.488 9.488 0 0 1 1.325-16.769 136.99 136.99 0 0 1 26.867-7.6 96.4 96.4 0 0 0 -11.7-29.623 63.038 63.038 0 0 1 -8.556-23.723 50.043 50.043 0 0 1 1.2-21.182c4.726-15.955-9.4-34.611-14.722-41.635-.963-1.272-1.66-2.191-2.113-2.9-6.974-10.924-8.569-26.733-5.638-34.087a4.5 4.5 0 1 1 8.36 3.331c-1.807 4.536-.561 17.415 4.864 25.913.06.094.149.221.251.365 1.7-9.07 5.853-21.169 16-29.437 11.164-9.1 26.759-11.346 46.355-6.681a4.5 4.5 0 0 1 3.454 4.207 41.945 41.945 0 0 1 -12.283 29.23c-10.033 9.949-25.124 14.923-44.879 14.867 6.479 10.3 13.219 25.079 8.98 39.385-.159.538-.3 1.09-.431 1.646 10.629-1.549 36.66-8.446 67.927-39.154 15.361-15.087 30.979-22.257 46.427-21.311a46.062 46.062 0 0 1 22.194 7.48 130.936 130.936 0 0 0 -33.373-55.365c-81.2-80.07-81.2-90.727-81.2-94.74a4.486 4.486 0 0 1 .181-1.261 708.08 708.08 0 0 1 27.676-75.674q15.841-36 31.03-55.182a170.749 170.749 0 0 0 -26.446 17.537c-25.241 20.335-44.675 47.43-57.761 80.533a12.054 12.054 0 0 1 -17.114 6.095c-36.366-20.39-74.286-5.15-88.9 2.349a10.374 10.374 0 0 1 -8.365.478 10.5 10.5 0 0 1 -6.045-5.949c-7.52-18.969-33.513-75.828-83.1-102.249q10.77 13.355 22.075 35.642c15.166 29.871 27.3 64.672 33.184 82.758a36.843 36.843 0 0 1 -5.848 33.971c-12.312 15.92-36.829 42.093-70.9 75.691a130.948 130.948 0 0 0 -33.374 55.365 46.07 46.07 0 0 1 22.2-7.48c15.441-.944 31.058 6.224 46.419 21.311zm169.831-60.418c13.909-20.485 38.616-18.375 39.662-18.274a4.5 4.5 0 0 1 -.844 8.96c-.847-.078-20.507-1.631-31.372 14.37a4.5 4.5 0 1 1 -7.446-5.056zm-118.29-18.274c1.046-.1 25.753-2.21 39.662 18.274a4.5 4.5 0 1 1 -7.446 5.056c-10.869-16.007-30.54-14.442-31.373-14.37a4.5 4.5 0 0 1 -.843-8.96z"/><path d="m402.436 449.273a4.5 4.5 0 0 0 1.842-8.608c-48.131-21.566-97.644-.922-99.727-.032a4.5 4.5 0 0 0 3.528 8.279c.475-.2 48.055-19.955 92.52-.034a4.477 4.477 0 0 0 1.837.395z"/><path d="m300.148 462.043a4.507 4.507 0 0 0 4.85 4.121c18.783-1.527 71.073-2.473 87.272 11.3a4.5 4.5 0 0 0 5.829-6.857c-9.568-8.134-28.39-12.843-55.946-14a342.137 342.137 0 0 0 -37.885.586 4.5 4.5 0 0 0 -4.12 4.85z"/><path d="m206.273 449.273a4.5 4.5 0 0 0 1.768-8.64c-2.084-.891-51.6-21.534-99.728.032a4.5 4.5 0 0 0 3.68 8.213c44.424-19.9 91.956-.2 92.518.034a4.485 4.485 0 0 0 1.762.361z"/><path d="m117.41 478.533a4.483 4.483 0 0 0 2.912-1.071c16.2-13.77 68.488-12.825 87.272-11.3a4.5 4.5 0 0 0 .73-8.971 342.394 342.394 0 0 0 -37.886-.586c-27.555 1.155-46.377 5.864-55.945 14a4.5 4.5 0 0 0 2.917 7.928z"/></svg>