<svg id="Layer_1" height="512" viewBox="0 0 512 512" width="512" xmlns="http://www.w3.org/2000/svg" data-name="Layer 1"><path d="m215.605 254.411c5.706 7.091 7.247 17.1 4.457 28.94a39.191 39.191 0 0 0 7.492 33.844 48.154 48.154 0 0 1 10.625 30.136v100.442a9.742 9.742 0 0 0 .747 3.91c1.1 2.537 2.424 2.537 3.058 2.537a18.37 18.37 0 0 1 12.972 5.479c4.483-4.879 9.489-5.821 15.327-5.471 2.62.187 3.406-4.217 3.538-5.106v-101.791a48.154 48.154 0 0 1 10.625-30.131 39.191 39.191 0 0 0 7.492-33.844c-2.79-11.842-1.249-21.85 4.457-28.94 8.146-10.122 5.829-19.548 4.254-23.479a27.855 27.855 0 0 1 -13.479-6.291 11.586 11.586 0 0 1 -3.865-6.382c-3.373.214-9.842.852-21.605 2.678a37.057 37.057 0 0 1 -11.4 0c-11.763-1.825-18.232-2.464-21.605-2.678a11.582 11.582 0 0 1 -3.865 6.382 27.866 27.866 0 0 1 -13.483 6.292c-1.567 3.906-3.896 13.341 4.258 23.473z"/><path d="m297.069 178.357c5.418 1.566 14.122.794 20.477-.443.488-4.865 1.071-9.892 1.762-14.92a42.373 42.373 0 0 1 -4.652.265 27.829 27.829 0 0 1 -12.43-2.622c-2.076 6.649-3.772 12.52-5.157 17.72z"/><path d="m292.847 217.657c7.013 5.7 13.8 6.022 20.16.952a5.671 5.671 0 0 0 2.134-4.258c.019-.607.043-1.273.068-1.983a44.623 44.623 0 0 1 -11.894 1.694 34.553 34.553 0 0 1 -11.89-2.034c.206 4.477 1.275 5.512 1.422 5.629z"/><path d="m291.983 202.469c9.131 4.634 19.209 1.946 23.663.317.247-4.569.588-9.87 1.056-15.584a74.6 74.6 0 0 1 -11.821 1.042 38.592 38.592 0 0 1 -10-1.173c-1.475 6.345-2.381 11.391-2.898 15.398z"/><path d="m197.344 163.259a42.373 42.373 0 0 1 -4.652-.265c.691 5.028 1.274 10.055 1.762 14.92 6.355 1.238 15.06 2.009 20.477.443-1.385-5.2-3.081-11.071-5.157-17.721a27.817 27.817 0 0 1 -12.43 2.623z"/><path d="m207.119 188.244a74.6 74.6 0 0 1 -11.819-1.044c.467 5.709.808 11 1.055 15.57 4.475 1.615 14.587 4.284 23.664-.3-.517-4.008-1.423-9.052-2.9-15.4a38.6 38.6 0 0 1 -10 1.174z"/><path d="m196.791 212.369c.026.709.049 1.375.068 1.982a5.669 5.669 0 0 0 2.135 4.258c6.362 5.07 13.145 4.75 20.159-.952.144-.117 1.216-1.152 1.422-5.629a34.557 34.557 0 0 1 -11.89 2.034 44.62 44.62 0 0 1 -11.894-1.693z"/><path d="m335.562 48.725a7.484 7.484 0 0 0 6.164-.24c-1.426-13.7-5-25.8-10.5-35.335a124.433 124.433 0 0 1 4.336 35.575z"/><path d="m190.926 141.174c-.722 0-1.422-.044-2.109-.106.921 4.071 1.738 8.325 2.464 12.653 4.382.784 11.3 1.134 15.673-1.868q-2.13-6.479-4.694-13.816a21.749 21.749 0 0 1 -11.334 3.137z"/><path d="m333.46 69.106a16.3 16.3 0 0 0 8.8.056c.079-1.666.14-3.333.162-4.994.028-2.159 0-4.285-.07-6.388a16.073 16.073 0 0 1 -3.871.47 17.268 17.268 0 0 1 -3.452-.355q-.529 5.623-1.569 11.211z"/><path d="m339.656 90.9c.788-4.045 1.422-8.219 1.883-12.451a28.134 28.134 0 0 1 -3.964.29 22.265 22.265 0 0 1 -6.065-.808c-.784 3.03-1.691 6.038-2.7 9.022a18.493 18.493 0 0 0 10.846 3.947z"/><path d="m305.038 151.878c4.6 3.191 11.813 2.507 15.685 1.82.725-4.321 1.541-8.566 2.46-12.63-.687.062-1.387.106-2.109.106a21.746 21.746 0 0 1 -11.334-3.137q-2.575 7.363-4.702 13.841z"/><path d="m312.86 129.264a13.132 13.132 0 0 0 12.814 2.172 89.923 89.923 0 0 1 3.477-9.8 22.464 22.464 0 0 1 -11.885-4.355q-2.338 6.249-4.406 11.983z"/><path d="m320.649 108.339a13.645 13.645 0 0 0 12.777 4.067 103.624 103.624 0 0 0 4.2-12.662 27.911 27.911 0 0 1 -12.075-4.035c-1.712 4.357-3.351 8.577-4.902 12.63z"/><path d="m292.568 428.973c-.813-11.891 1.675-25.666 7.606-42.11 6.064-16.812 5.543-30.52 4.038-39.06a51.527 51.527 0 0 0 -4.415-14.019 4.929 4.929 0 0 1 -1.143-5.079c5.612-16.14 19.811-27.9 35.336-29.264.548-.048 1.079-.1 1.6-.154a18.085 18.085 0 0 0 -.279-8.581 60.459 60.459 0 0 1 -3.637-13.444 79.24 79.24 0 0 1 -.636-13.721c0-.047 0-.094 0-.141a83.218 83.218 0 0 1 1.028-10.136c3.443-20.927 15.224-39.56 33.172-52.467 17.78-12.785 41.452-34.054 53.261-62.77a95.645 95.645 0 0 0 4.166-12.439c-1.6 2.241-2.85 4.04-3.565 5.174-.893 1.413-2.164 3.627-3.636 6.191-9.76 16.99-27.926 48.616-48.608 52.891-26.922 5.564-45.733 42.5-45.92 42.868l-7.526-3.777a23.3 23.3 0 0 1 -3.487 1.343c1.968 6.624 2.992 17.954-6.521 29.775-3.958 4.919-4.87 12.063-2.709 21.234a48.125 48.125 0 0 1 -9.246 41.556 39.134 39.134 0 0 0 -8.631 24.488v102.069c0 .146-.007.293-.021.438a20.434 20.434 0 0 1 -1.827 6.35c-2.306 4.748-6.392 7.319-11.224 7.02-4.4-.266-6.868.147-9.836 4.727a30.442 30.442 0 0 1 1.425 9.388 32.418 32.418 0 0 1 6.237 1.634c11.075 4.133 19.857 2.746 26.1-4.123 6.932-7.622 7.8-18.455 6.808-20.5a57.067 57.067 0 0 1 -7.91-25.361z"/><path d="m248.048 487.412a42.217 42.217 0 0 1 -14.305 2.938c3.262 4.016 9.493 8.433 21.144 8.443h.2c9.979.449 17.488-2.013 22.336-7.308.377-.412.718-.825 1.034-1.234a42.047 42.047 0 0 1 -14.024-2.863 23.3 23.3 0 0 0 -16.385.024z"/><path d="m201.449 336.262c-1.579.119-3.129.2-4.622.2a39.25 39.25 0 0 1 -18.227-3.962 121.427 121.427 0 0 0 -.755 12.593c-.072 13.533 2.443 23.906 7.272 30 12.179 15.359 19.959 44.372 23.665 62.926 3-10.7 2.852-25.162-5.42-48.1-8.902-24.679-5.323-43.671-1.913-53.657z"/><path d="m182.852 121.641a89.9 89.9 0 0 1 3.471 9.785 13.156 13.156 0 0 0 12.817-2.162q-2.072-5.738-4.4-11.969a22.1 22.1 0 0 1 -11.888 4.346z"/><path d="m252.327 477.163c-.063-4.66-1.208-8.36-3.411-10.8a9.4 9.4 0 0 0 -6.932-3.148c-4.989 0-9.111-2.894-11.31-7.942a18.679 18.679 0 0 1 -1.5-7.5v-100.442a39.134 39.134 0 0 0 -8.631-24.488 48.125 48.125 0 0 1 -9.246-41.556c2.161-9.171 1.249-16.315-2.709-21.234-9.513-11.821-8.489-23.151-6.521-29.775a23.3 23.3 0 0 1 -3.487-1.343l-7.525 3.779c-.187-.372-19.063-37.319-45.921-42.87-20.682-4.275-38.848-35.9-48.608-52.891-1.472-2.564-2.743-4.778-3.636-6.192-.716-1.134-1.962-2.933-3.565-5.174a95.5 95.5 0 0 0 4.166 12.44c6.518 15.849 21.049 39.606 53.261 62.77 17.948 12.907 29.729 31.54 33.172 52.467a83.156 83.156 0 0 1 1.034 10.313c0 .091.012.181.009.273a78.988 78.988 0 0 1 -.646 13.411 60.452 60.452 0 0 1 -3.637 13.445 18.085 18.085 0 0 0 -.279 8.581c.521.054 1.052.106 1.6.154 15.525 1.365 29.724 13.124 35.335 29.26a4.93 4.93 0 0 1 -1.138 5.079c-1.938 3.85-10.836 24.1-.381 53.083 13 36.038 7.526 53.737-.324 67.5-.975 2.029-.043 12.9 6.962 20.545 6.349 6.927 15.233 8.3 26.407 4.088a32.148 32.148 0 0 1 7.461-1.833z"/><path d="m309.083 327.107c10.719 1.192 18.87-.613 24.282-5.392 4.727-4.174 6.547-9.876 7.239-13.989-1.792.266-3.728.5-5.826.68-10.578.93-20.424 8.242-25.695 18.701z"/><path d="m370.5 208.1c-14.917 10.727-25.041 25.847-28.818 42.885 18.059-16.756 31.114-22.522 31.748-22.8a4.5 4.5 0 0 1 3.578 8.258c-.163.07-16.22 7.251-37.025 28.814-.027 1.39 0 2.773.048 4.151 11.95-10.356 29.437-13.992 29.652-14.034a2.371 2.371 0 0 0 .317-.074c18.379-6.209 33.771-18.984 45.744-37.97 9.757-15.472 17.293-35.068 22.4-58.243a337.808 337.808 0 0 0 7.292-64.057c-3.392 4.475-7.465 9.867-11.406 15.137-.071 9.477-3.676 54.893-63.53 97.933z"/><path d="m315.173 336.459c-1.493 0-3.043-.078-4.622-.2 3.41 9.986 6.989 28.978-1.911 53.653-8.272 22.935-8.418 37.4-5.42 48.1 3.706-18.554 11.487-47.567 23.665-62.926 4.829-6.089 7.344-16.462 7.272-30a121.444 121.444 0 0 0 -.757-12.586 39.25 39.25 0 0 1 -18.227 3.959z"/><path d="m176.438 48.725a124.433 124.433 0 0 1 4.338-35.575c-5.5 9.533-9.075 21.631-10.5 35.336a7.48 7.48 0 0 0 6.162.239z"/><path d="m202.917 327.107c-5.269-10.459-15.114-17.771-25.695-18.7q-3.129-.276-5.8-.676c.709 4.148 2.546 9.9 7.268 14.034 5.41 4.741 13.548 6.529 24.227 5.342z"/><path d="m174.372 99.744a103.5 103.5 0 0 0 4.195 12.644 14.257 14.257 0 0 0 3.971.256 13.608 13.608 0 0 0 8.81-4.313q-2.325-6.076-4.9-12.622a27.924 27.924 0 0 1 -12.076 4.035z"/><path d="m174.425 78.734a28.284 28.284 0 0 1 -3.964-.29c.461 4.224 1.092 8.39 1.879 12.428a18.788 18.788 0 0 0 10.848-3.929c-1.008-2.983-1.914-5.989-2.7-9.018a22.267 22.267 0 0 1 -6.063.809z"/><path d="m172.026 265.642c-24.233-24.342-36.609-29.029-36.734-29.074a4.5 4.5 0 0 1 2.949-8.5c.509.174 11.323 4.031 32.207 23.511-3.674-17.279-13.858-32.624-28.948-43.479-59.856-43.044-63.461-88.461-63.527-97.938-3.94-5.262-8.013-10.662-11.405-15.133a337.808 337.808 0 0 0 7.292 64.057c5.105 23.175 12.641 42.771 22.4 58.243 11.973 18.986 27.365 31.761 45.75 37.972a2.373 2.373 0 0 0 .3.08c.22.042 17.71 3.68 29.659 14.035.051-1.254.075-2.516.057-3.774z"/><path d="m169.578 64.168c.022 1.662.083 3.328.162 4.994a16.3 16.3 0 0 0 8.8-.057q-1.032-5.582-1.569-11.211a17.2 17.2 0 0 1 -3.452.356 16.079 16.079 0 0 1 -3.871-.47c-.068 2.103-.098 4.229-.07 6.388z"/></svg>