<svg id="Layer_1" height="512" viewBox="0 0 512 512" width="512" xmlns="http://www.w3.org/2000/svg" data-name="Layer 1"><path d="m160.415 263.114c-3.509-3.71-8.176-8.981-14.292-16.463-7.628-9.331-16.832-10.671-24.1-9.7 8.463 20.417 20.599 28.725 38.392 26.163z"/><path d="m366.6 279.9c5.123-1.787 6.425-6.179 6.534-9.864a38.72 38.72 0 0 1 -14.273 2.583 57.917 57.917 0 0 1 -14.227-1.923 13.362 13.362 0 0 1 -1.3.923 4.5 4.5 0 0 1 -4.7-7.675c.367-.248 5.832-4.087 21.281-22.985 7.947-9.719 17.578-13.072 26.436-13.261a85.039 85.039 0 0 0 -4.187-14.937c-5.35-1.019-20.431-2.754-34.683 6.166-15.1 9.449-25.112 27.877-29.769 54.773a4.5 4.5 0 0 1 -4.429 3.734 4.419 4.419 0 0 1 -.772-.068 4.5 4.5 0 0 1 -3.666-5.2c5.125-29.6 16.563-50.111 34-60.952 15.256-9.488 30.9-8.867 38.754-7.691.062-3.536-.707-6.785-1.805-8.477a18.629 18.629 0 0 0 -5.856-5.631 47.15 47.15 0 0 1 -10.079-8.764c-.014-.014-.026-.031-.04-.045a105.391 105.391 0 0 1 -14.477-21.851 4.5 4.5 0 1 1 8.115-3.89c.06.124 1.675 3.441 4.353 7.808-1.84-19.528-7.272-33.067-16.732-42.015-2.665-2.52-5.207-4.851-7.772-7.124a63.874 63.874 0 0 1 -20.725-36.524c-.812-4.667-.881-8.375-.209-11.337 1.208-5.331-2.469-23.813-6.148-38.985a45.4 45.4 0 0 0 -3.639 21.549l.155 2.048a4.623 4.623 0 0 1 -3.7 4.957 4.5 4.5 0 0 1 -5.264-4.094l-.169-2.234a54.585 54.585 0 0 1 .682-13.548c-.227-6.085-.709-12.833-1.307-18.051-2.974 7.368-6.318 17.707-6.58 20.853-.467 5.632-5.02 27.757-5.632 30.718-.246 1.487-1.878 10.89-4.7 15.842a19.408 19.408 0 0 0 -1.1 15.221 10.035 10.035 0 0 0 5.679 6.26 4.444 4.444 0 0 1 3 4.141 4.511 4.511 0 0 1 -6.059 4.322 17.878 17.878 0 0 1 -8.895-7.273 50.084 50.084 0 0 1 -16.624 2.916 46.138 46.138 0 0 1 -15.86-2.766 17.842 17.842 0 0 1 -8.792 7.123 4.5 4.5 0 1 1 -3.062-8.463 10.034 10.034 0 0 0 5.68-6.26 19.408 19.408 0 0 0 -1.1-15.221c-2.818-4.952-4.451-14.355-4.7-15.842-.612-2.961-5.165-25.086-5.632-30.719-.262-3.145-3.607-13.485-6.581-20.852-.6 5.217-1.08 11.965-1.306 18.05a54.534 54.534 0 0 1 .681 13.548l-.169 2.235a4.51 4.51 0 0 1 -5.306 4.086 4.647 4.647 0 0 1 -3.652-4.977l.153-2.022a45.4 45.4 0 0 0 -3.639-21.547c-3.68 15.174-7.356 33.657-6.148 38.986 1.2 5.312-.045 13.6-3.713 24.63a44.761 44.761 0 0 1 -13.325 19.826c-4 3.434-7.707 6.778-11.668 10.523-9.463 8.95-14.894 22.493-16.733 42.028 2.7-4.4 4.315-7.74 4.354-7.821a4.5 4.5 0 1 1 8.115 3.89 105.391 105.391 0 0 1 -14.477 21.85c-.015.014-.026.031-.041.045a47.122 47.122 0 0 1 -10.078 8.764 18.6 18.6 0 0 0 -5.855 5.631 13.392 13.392 0 0 0 -2.2 8.543c7.79-1.22 23.964-2.049 39.681 7.751 17.445 10.877 28.878 31.342 33.983 60.826a4.5 4.5 0 1 1 -8.868 1.535c-4.637-26.782-14.651-45.171-29.765-54.654-14.436-9.058-29.781-7.307-35.21-6.28a84.867 84.867 0 0 0 -4.186 14.933c8.858.188 18.49 3.54 26.436 13.26 15.449 18.9 20.915 22.737 21.281 22.985a4.5 4.5 0 0 1 -4.7 7.675 13.108 13.108 0 0 1 -1.3-.923 57.918 57.918 0 0 1 -14.228 1.923 38.72 38.72 0 0 1 -14.273-2.583c.109 3.683 1.41 8.077 6.534 9.864a27.676 27.676 0 0 1 4.692 2.2l.011.007a62.413 62.413 0 0 1 13.539 11.331 4.5 4.5 0 0 1 -6.726 5.98c-.176-.2-.394-.433-.629-.683a146.5 146.5 0 0 1 -.027 23.913c-1.424 20.82 18.871 52.026 32.008 62.7-2.478-10.07-7.385-15.339-9.389-17.142l-.079-.072a4.015 4.015 0 0 1 1.111-6.523l.555-.263a4.851 4.851 0 0 1 4.361.1c2.925 2.63 10.549 10.8 13.085 26.323 9.2-13 17.9-18.989 26.464-18.247 11.357.972 16.5 13.755 16.711 14.3a4.5 4.5 0 0 1 -8.379 3.287c-.027-.065-3.431-8.156-9.126-8.62-2.761-.223-8.074 1.222-15.931 11.26a25.368 25.368 0 0 1 18.013 15.095c3.127 7.531 3.691 13.333 1.72 17.707l-4.569 18.657a4.662 4.662 0 0 1 -3.834 3.574 4.6 4.6 0 0 1 -.584.038 4.5 4.5 0 0 1 -3.992-2.428c-.026-.049-3.672-6.794-9.778-8.053a17.494 17.494 0 0 1 -11.794-8.538c-1.028 5.83-.142 14.037 7.268 23.826 21.718 28.685 25.8 35.812 26.348 40.18 1.236 9.862 21.3 11.788 28.954 11.686h.18c7.679.09 27.719-1.823 28.955-11.686.548-4.37 4.63-11.5 26.348-40.181 7.423-9.806 8.294-18.062 7.247-23.936a17.193 17.193 0 0 1 -11.772 8.649c-6.107 1.259-9.753 8-9.789 8.072a4.52 4.52 0 0 1 -3.981 2.4 4.63 4.63 0 0 1 -.642-.045 4.576 4.576 0 0 1 -3.758-3.479l-4.588-18.735c-1.971-4.374-1.407-10.176 1.72-17.707a25.369 25.369 0 0 1 18.01-15.094c-7.878-10.063-13.214-11.506-15.96-11.256-5.661.485-9.062 8.533-9.094 8.614a4.5 4.5 0 1 1 -8.379-3.285c.213-.543 5.349-13.322 16.7-14.3 8.563-.731 17.274 5.263 26.492 18.279 2.778-16.711 11.455-25.763 11.947-26.262a4.5 4.5 0 0 1 6.432 6.294c-.34.354-5.114 5.457-8.019 15.023 13.15-10.55 32.665-39.859 31.272-60.219a149.622 149.622 0 0 1 -.063-23.875c-.221.236-.426.457-.593.645a4.5 4.5 0 0 1 -6.726-5.98c.956-1.054 9.5-10.478 18.256-13.526zm-164.237 84.788a4.5 4.5 0 0 1 -8.25-3.6c8.331-19.1-.133-50.963-.218-51.283a4.5 4.5 0 1 1 8.687-2.35c.387 1.432 9.361 35.267-.219 57.233zm114.2 2.326a4.5 4.5 0 0 1 -5.923-2.326c-9.581-21.965-.606-55.8-.219-57.231a4.5 4.5 0 1 1 8.687 2.35c-.115.431-8.516 32.26-.218 51.283a4.5 4.5 0 0 1 -2.322 5.924z"/><path d="m125.925 161.406a24.431 24.431 0 0 0 -4.376 1 19.87 19.87 0 0 1 9.771 6.828 21.627 21.627 0 0 1 4.077 11.831 38.343 38.343 0 0 0 6.117-5.368 166.047 166.047 0 0 1 1.239-18.456c-5.5-8.142-11.89-12.708-19.023-13.565-7-.839-13.871 1.883-19.256 5.072 5.37.5 12.445 1.542 21.762 3.379a4.7 4.7 0 0 1 -.311 9.279z"/><path d="m311.388 400.1q-.606-1-1.2-1.938c-.117 0-.234 0-.35 0a16.409 16.409 0 0 0 -15.2 10.139c-3.007 7.241-2.113 10.009-1.766 10.684a4.524 4.524 0 0 1 .365.981l2.589 10.573a21.4 21.4 0 0 1 9.72-5.009c3.665-.756 8.1-4.125 8.4-15.883a17.39 17.39 0 0 0 -.1-2.312c-.016-.123-.027-.242-.042-.363a17.45 17.45 0 0 0 -2.416-6.872z"/><path d="m125.319 190.711c1-3.205 2.448-11.279-1.2-16.075-2.8-3.677-8.391-5.285-16.615-4.792a4.5 4.5 0 0 1 -3.268-7.844 39.671 39.671 0 0 1 4.955-3.619c-8.212-1.111-14.326-1.4-16.384-.679a4.634 4.634 0 0 1 -4.77-7.7c4.257-4.109 19.481-17.334 36.767-15.26 7.473.9 14.189 4.51 20.064 10.739q.729-3.045 1.619-5.872a541.506 541.506 0 0 0 -49.48-41.985c-32.956-24.337-57.9-34.343-70.774-28.5 2.942 23.013 11.373 58.741 30.28 87.345 17.025 25.757 39.057 40.631 65.541 44.271a22.547 22.547 0 0 1 3.265-10.029z"/><path d="m25.067 48.276a76.882 76.882 0 0 0 .211 11.589c16.6-5.278 42.489 4.964 77.147 30.57a547.79 547.79 0 0 1 47.585 40.1 57.6 57.6 0 0 1 5.082-8.74c-13.642-13.924-77.878-76.365-130.025-73.519z"/><path d="m415.8 100.311a525.438 525.438 0 0 0 -48.62 41.509q.508 1.79.959 3.657c6.036-6.4 12.957-10.036 20.675-10.8 19.48-1.937 36.247 15.382 36.952 16.119a4.5 4.5 0 0 1 -4.805 7.332c-6.13-2.251-12.719-2-18.466-.993a42.606 42.606 0 0 1 6.413 4.994 4.5 4.5 0 0 1 -3.408 7.719c-8.254-.5-13.842 1.121-16.632 4.815-4.058 5.372-1.726 14.219-1.168 16.086 1.954 3.366 2.973 8.174 2.879 13.034 26.2-3.793 48.019-18.634 64.908-44.185 18.909-28.606 27.339-64.335 30.28-87.347-12.846-5.865-37.515 3.991-69.967 28.06z"/><path d="m486.933 51.4c-52.158-2.881-114.669 58.733-127.74 72.273a59.915 59.915 0 0 1 4.7 8.838 531.407 531.407 0 0 1 46.547-39.429c34.142-25.321 59.744-35.406 76.287-30.1a76.88 76.88 0 0 0 .206-11.582z"/><path d="m390.989 236.949c-7.273-.968-16.477.372-24.1 9.7-6.117 7.483-10.784 12.754-14.294 16.465 17.79 2.565 29.926-5.746 38.394-26.165z"/><path d="m386.457 152.078c.658-.189 1.417-.425 2.268-.689a81.166 81.166 0 0 1 17.642-3.849c-4.9-2.573-10.738-4.512-16.695-3.908-7.3.738-13.821 5.32-19.418 13.611a166.155 166.155 0 0 1 1.239 18.448 38.32 38.32 0 0 0 6.117 5.374 21.633 21.633 0 0 1 4.076-11.831 20.2 20.2 0 0 1 10.728-7.132 13.667 13.667 0 0 0 -4.626-.885h-.035a4.66 4.66 0 0 1 -1.3-9.139z"/><path d="m217.173 430.538 2.589-10.573a4.524 4.524 0 0 1 .365-.981c.347-.675 1.241-3.443-1.766-10.684a16.381 16.381 0 0 0 -15.547-10.135q-.592.942-1.2 1.945a18.747 18.747 0 0 0 -2.538 9.941c.229 9.172 3.047 14.38 8.377 15.478a21.4 21.4 0 0 1 9.72 5.009z"/></svg>