<svg id="Layer_1" height="512" viewBox="0 0 512 512" width="512" xmlns="http://www.w3.org/2000/svg" data-name="Layer 1"><path d="m189.176 312.211c-2.071-7.6-5.639-18.818-12-20.623-3.093-.876-6.778.575-10.3 2.867-.094 2.467.124 8.933 4.543 13.233 3.702 3.598 9.667 5.112 17.757 4.523z"/><path d="m254.613 465.542a37.046 37.046 0 0 1 -11.14-1.715 46.678 46.678 0 0 1 -22.545-15.364c3.632 17.2 12.812 28 27.329 32.079a26.743 26.743 0 0 0 13.047.265c16.35-3.679 26.122-14.4 29.875-32.768q.207-1.01.381-2.027a52.479 52.479 0 0 1 -25.967 17.888 37.725 37.725 0 0 1 -10.98 1.642z"/><path d="m212.064 418.6c.416-2.073.906-4.136 1.484-6.182q.615-2.169 1.246-4.374c2.163-7.566 4.41-15.442 6.284-24.151a14.912 14.912 0 0 1 -8.43-3.209c-2.029-1.727-4.4-4.977-4.166-10.653.5-12.084-1.891-37.25-3.359-51.175a87.031 87.031 0 0 0 -6.349-24.982c-4.931-11.595-10.872-18.452-17.183-19.83-6.2-1.356-11.412 2.891-11.915 3.318a13.083 13.083 0 0 0 -4.057 7.437c5.012-2.49 9.654-3.105 14.016-1.866 12.021 3.413 16.325 19.7 18.9 29.432a49.428 49.428 0 0 0 1.42 4.852 4.5 4.5 0 0 1 -8.151 3.793 46.131 46.131 0 0 1 -13.929-.446c-1.045 4.771-2.11 12.756.475 19.016 2.457 5.948 9.708 17.73 15.535 27.2 6.1 9.917 9.328 15.213 10.162 17.781.555 1.707.457 3.709.322 6.48-.336 6.844-.855 17.567 7.695 27.559z"/><path d="m107.978 257.258c9.2 3.393 17.89 6.6 24.583 8.073a174.607 174.607 0 0 0 28.12 4.19c-4.626-18.264-3.227-31.638 4.22-39.769a22.561 22.561 0 0 1 4.537-3.789c-18.1.844-47.077 5.941-73.039 27.1 3.901 1.365 7.783 2.795 11.579 4.195z"/><path d="m106.7 84.232a70.052 70.052 0 0 1 20.06-7.28c11.889-2.32 22.7-.88 31.791 4.133 2.907-3.344 3.938-10.7 3.957-14.308a4.5 4.5 0 0 1 4.5-4.48h.017a4.5 4.5 0 0 1 4.485 4.503c0 1.519-.221 12.544-5.586 19.477.195.172.4.33.59.506a42.389 42.389 0 0 1 6.1 7.034 30.745 30.745 0 0 0 8.141-8.457 4.5 4.5 0 0 1 7.66 4.724 39.969 39.969 0 0 1 -11.207 11.469 96.536 96.536 0 0 1 5.438 13.4 17.842 17.842 0 0 0 9.024-5.07 4.5 4.5 0 0 1 6.8 5.9 27.143 27.143 0 0 1 -13.309 7.833c1.451 5.639 2.643 11.55 3.621 17.568 5.432-2.11 7.487-4.724 7.591-4.86a4.461 4.461 0 0 1 6.242-1.072 4.538 4.538 0 0 1 1.082 6.3c-.435.621-4.154 5.579-13.606 8.713.733 5.782 1.292 11.582 1.71 17.264 9.074-.158 12.313-4.538 12.345-4.588a4.5 4.5 0 0 1 7.6 4.816c-.241.38-5.509 8.355-19.391 8.749.6 11.764.654 22.627.52 31.219 3.2-2.7 7.519-4.328 12.913-4.814a38.275 38.275 0 0 1 21.046 4.313l11.483 6.021c.1.055.214.1.32.156-.154-18.7-1.537-73.122-12.023-112.785-8.074-30.557-32.033-55.776-62.524-65.816-25.8-8.5-51.964-4.246-71.785 11.658-7.34 5.89-13.026 14.377-18.044 21.866-3.275 4.888-6.1 9.11-9.017 12.061a71.525 71.525 0 0 1 -44.42 20.845 46.492 46.492 0 0 0 8.665 2.316c24.711 4.232 55.611-8.154 77.211-19.314z"/><path d="m88.741 274.229c-.193 2.21 2.21 4.378 4.258 5.81 2.2 1.531 9.984 4.415 34.9-1.888 3.3-.835 6.514-1.736 9.514-2.63-2.143-.413-4.4-.875-6.786-1.4-7.293-1.607-16.263-4.915-25.76-8.417-1.752-.646-3.543-1.307-5.357-1.968-4.652 2.501-10.462 6.969-10.769 10.493z"/><path d="m261.494 401.663h-14.9a8.188 8.188 0 0 0 -7.347 4.3c-.689 1.368-1.347 3.578.868 6.978a171.975 171.975 0 0 0 13.93 18.038 171.7 171.7 0 0 0 13.93-18.038c2.216-3.4 1.558-5.61.869-6.978a8.185 8.185 0 0 0 -7.35-4.3z"/><path d="m222.678 215.205a29.272 29.272 0 0 0 -16.078-3.329c-4.293.386-7.329 1.678-9.022 3.838-1.517 1.935-2.114 4.8-1.79 8.525 11.644 8.6 40.4 27.457 56.042 27.529q4.173.021 8.34 0c15.646-.072 44.4-18.924 56.043-27.529.324-3.725-.273-6.59-1.79-8.525-1.693-2.16-4.729-3.452-9.022-3.838a29.306 29.306 0 0 0 -16.1 3.338c-.052.027-.1.054-.159.079l-14.535 6.821a45.747 45.747 0 0 1 -40.468-.9z"/><path d="m49.468 256.144c-3.68 2.243-5.836 6.3-6.589 12.395-.58 4.7 1.325 8.8 5.824 12.531 7.535 6.25 21.98 10.906 39.63 12.775 15.634 1.656 31.582.859 40.629-2.029 7.14-2.278 14.71-6.644 20.952-10.82-5.176 1.744-12.231 3.962-19.811 5.88-10.994 2.782-20 4.172-27.127 4.172-6.65 0-11.664-1.211-15.129-3.631-7.246-5.059-8.388-10.4-8.071-13.986.494-5.579 4.782-10.2 9.015-13.46-10.32-3.443-20.656-6.214-28.842-6.214-4.136 0-7.722.706-10.481 2.387z"/><path d="m412.494 263.735c-1.814.662-3.605 1.322-5.357 1.968-9.5 3.5-18.467 6.81-25.761 8.417-2.386.526-4.642.988-6.784 1.4 3.024.9 6.265 1.81 9.59 2.649 24.854 6.279 32.628 3.4 34.82 1.869 2.048-1.432 4.451-3.6 4.258-5.81-.307-3.523-6.117-7.991-10.766-10.493z"/><path d="m424.154 287.417c-3.465 2.42-8.48 3.631-15.128 3.631-7.127 0-16.132-1.39-27.128-4.172-7.572-1.916-14.621-4.131-19.8-5.875 6.245 4.177 13.812 8.542 20.936 10.815 9.047 2.888 25 3.685 40.629 2.029 17.65-1.869 32.095-6.525 39.63-12.775 4.5-3.73 6.4-7.829 5.824-12.531-.753-6.1-2.909-10.152-6.589-12.395-8.219-5.008-23.791-1.358-39.325 3.826 4.233 3.259 8.523 7.881 9.017 13.461.322 3.588-.82 8.927-8.066 13.986z"/><path d="m347.1 229.752c7.447 8.131 8.845 21.5 4.221 39.767a174.83 174.83 0 0 0 28.118-4.188c6.694-1.475 15.384-4.68 24.584-8.073 3.959-1.46 8.01-2.952 12.08-4.376-26.1-21.233-55.419-26.215-73.635-26.978a22.535 22.535 0 0 1 4.632 3.848z"/><path d="m306.208 202.912c5.39.485 9.7 2.11 12.907 4.808-.134-8.592-.078-19.456.522-31.221-7.255-.207-12.157-2.483-15.218-4.805a4.419 4.419 0 0 1 5.191-7.15c1.82 1.3 5.143 2.893 10.585 2.981.422-5.718.985-11.554 1.726-17.372-9.419-3.1-13.148-7.946-13.584-8.553a4.5 4.5 0 0 1 7.262-5.316c.173.216 2.272 2.732 7.634 4.791.952-5.843 2.108-11.582 3.507-17.07a23.246 23.246 0 0 1 -13.551-8.673 4.5 4.5 0 0 1 7.473-5.017 14.276 14.276 0 0 0 8.562 5.03 96.948 96.948 0 0 1 5.562-13.777 40.179 40.179 0 0 1 -11.2-11.48 4.5 4.5 0 0 1 7.66-4.726 31.023 31.023 0 0 0 8.132 8.468 42.393 42.393 0 0 1 6.109-7.045c.193-.176.395-.334.59-.506-5.365-6.934-5.583-17.958-5.586-19.477a4.5 4.5 0 0 1 4.491-4.509h.009a4.5 4.5 0 0 1 4.5 4.486c.019 3.613 1.051 10.962 3.956 14.305 9.087-5.013 19.9-6.453 31.792-4.132a70.052 70.052 0 0 1 20.06 7.28c21.606 11.16 52.51 23.543 77.213 19.316a46.424 46.424 0 0 0 8.664-2.316 71.513 71.513 0 0 1 -44.42-20.845c-2.912-2.951-5.741-7.173-9.016-12.061-5.018-7.489-10.7-15.976-18.044-21.866-19.819-15.9-45.985-20.152-71.785-11.658-30.491 10.038-54.451 35.257-62.529 65.815-10.446 39.512-11.845 93.351-12 112.132l11.863-5.566a38.275 38.275 0 0 1 20.963-4.271z"/><path d="m321.943 311.717c7.79-.127 13.728-2.1 17.669-5.895a18.487 18.487 0 0 0 5.255-10.852c-4.255-2.457-8.733-3.922-12.369-2.515-4.769 1.845-8.306 8.323-10.555 19.262z"/><path d="m342.257 277.293-.086-.086c-.528-.458-5.666-4.7-11.8-3.382-6.3 1.36-12.231 8.282-17.139 20.02a88.945 88.945 0 0 0 -6.36 25.008c-1.467 13.925-3.854 39.091-3.358 51.175.23 5.61-2.14 8.8-4.169 10.488a15 15 0 0 1 -8.729 3.1c2.043 8.558 4.291 16.415 6.393 23.755q.748 2.613 1.459 5.113c.572 2.023 1.057 4.063 1.469 6.113 8.556-9.989 8.032-20.712 7.694-27.56-.137-2.772-.235-4.775.32-6.485.834-2.567 4.058-7.863 10.162-17.78 5.827-9.467 13.078-21.249 15.535-27.2 2.479-6 .869-14.7-.769-20.252a47.136 47.136 0 0 1 -12.56 1.39 4.493 4.493 0 0 1 -8.612-2.344c.045-.3.1-.663.154-1.085 1.058-7.659 3.871-28 17.387-33.226 5.09-1.969 10.856-1.418 17.226 1.609a12.765 12.765 0 0 0 -4.217-8.371z"/><path d="m342.073 277.1a4.457 4.457 0 0 1 -.555-.748 4.3 4.3 0 0 0 .555.748z"/><path d="m322.268 230.951c-6.144 4.565-40.946 29.719-62.056 29.817q-2.106.009-4.211.01t-4.213-.01c-21.11-.1-55.915-25.254-62.056-29.818-2.968-.407-12.673-1.188-18.225 4.914-5.165 5.677-5.887 16.406-2.175 31.194a22.045 22.045 0 0 1 14.18-1.81c9.414 2.057 17.335 10.5 23.543 25.1a96.066 96.066 0 0 1 7.02 27.562c1.492 14.17 3.919 39.831 3.4 52.487-.1 2.478.726 3.188 1 3.422a7.213 7.213 0 0 0 4.322 1.156c3.12-18.461 4.166-40.9-.468-71.452a4.5 4.5 0 1 1 8.9-1.349c8.039 53.014-.363 82.407-7.776 108.341q-.627 2.193-1.239 4.349a72.8 72.8 0 0 0 -2.384 12.548c1 3.641 6.889 21.7 26.351 27.831a28.312 28.312 0 0 0 16.8.045c19.782-6.007 27.65-24.046 29.184-28.073a72.312 72.312 0 0 0 -2.349-12.279q-.7-2.487-1.451-5.085c-2.525-8.818-5.378-18.792-7.826-30.112-.024-.1-.05-.207-.067-.314a251.231 251.231 0 0 1 -4.759-76.9 4.5 4.5 0 0 1 8.964.8 239.567 239.567 0 0 0 3.954 71.324c1.9.055 3.942-.2 4.973-1.065.253-.212 1.022-.857.926-3.194-.52-12.656 1.907-38.317 3.4-52.487a97.9 97.9 0 0 1 7.008-27.537c9.295-22.227 21-26.274 29.156-25.764a24.607 24.607 0 0 1 8.61 2.33c3.678-14.727 2.945-25.413-2.206-31.075-5.552-6.092-15.245-5.316-18.23-4.906zm-45.388 170.967c1.793 3.561 3.012 9.218-1.368 15.938a185.133 185.133 0 0 1 -15.748 20.244 7.647 7.647 0 0 1 -11.443 0 185.119 185.119 0 0 1 -15.749-20.244c-4.379-6.72-3.16-12.377-1.367-15.939a17.254 17.254 0 0 1 15.386-9.254h14.9a17.25 17.25 0 0 1 15.389 9.255z"/></svg>