<svg id="Layer_1" height="512" viewBox="0 0 512 512" width="512" xmlns="http://www.w3.org/2000/svg" data-name="Layer 1"><path d="m286.64 378.745c10.046-4.679 34.264-17.9 37.925-38.076 1.731-9.545-1.029-16.625-8.439-21.645a15.966 15.966 0 0 0 -8.982-2.726 16.554 16.554 0 0 0 -12.743 5.946c-8.379 10.118-16.241 27.99-7.761 56.501zm12.506-55.8c4.122-4.3 8.213-3.1 9.783-2.384 6.962 3.18 10.891 7.574 11.68 13.061 1.592 11.076-10.642 21.675-17.215 27.368-.709.614-1.324 1.146-1.8 1.582a6.211 6.211 0 0 1 -4.2 1.636 6.366 6.366 0 0 1 -1.145-.1 6.181 6.181 0 0 1 -4.434-3.3c-4.04-7.933.347-30.575 7.331-37.862z"/><path d="m311.7 334.9c-.308-2.146-2.3-4.123-5.927-5.88-1.156 1.077-3.526 4.977-5.248 12.492a47.1 47.1 0 0 0 -1.325 11.188c4.835-4.267 13.288-12.313 12.5-17.8z"/><path d="m204.856 316.3a15.966 15.966 0 0 0 -8.982 2.726c-7.41 5.02-10.17 12.1-8.439 21.645 3.671 20.226 27.88 33.419 37.923 38.082 8.483-28.514.62-46.388-7.759-56.507a16.556 16.556 0 0 0 -12.743-5.946zm15.334 44.5a6.181 6.181 0 0 1 -4.434 3.3 6.358 6.358 0 0 1 -1.145.1 6.208 6.208 0 0 1 -4.2-1.638c-.477-.434-1.092-.966-1.8-1.58-6.573-5.693-18.807-16.292-17.215-27.368.789-5.487 4.718-9.881 11.68-13.061 1.571-.714 5.662-1.916 9.784 2.384 6.978 7.296 11.365 29.938 7.33 37.863z"/><path d="m282.229 475.242a132.835 132.835 0 0 0 -54.914.1 247.382 247.382 0 0 1 -50.916 5.624 164.906 164.906 0 0 1 -25.48-1.824 53.88 53.88 0 0 1 -9.279-2.334 68.081 68.081 0 0 0 10.148 9.837c18.41 14.422 42.512 18.343 71.637 11.661 1.383-.385 13.1-3.589 24.431-3.37 5.461.088 9.875.09 13.889.006 12.305-.274 26.234 3.214 26.82 3.362 29.075 6.695 53.136 2.841 71.419-11.477a66.847 66.847 0 0 0 10.231-9.969 53.936 53.936 0 0 1 -9.134 2.284c-10.313 1.626-38.641 4.5-78.852-3.9z"/><path d="m206.227 329.023c-3.625 1.757-5.619 3.734-5.927 5.88-.788 5.484 7.665 13.53 12.5 17.8a47.1 47.1 0 0 0 -1.321-11.187c-1.726-7.516-4.096-11.416-5.252-12.493z"/><path d="m169.992 140.6c-1.675-4.206-5.435-6.929-8.292-8.478-1.138 3.3-2.175 8.192-.342 12.324 1.345 3.031 4.219 5.342 8.517 6.922 1.306-4.062 1.353-7.668.117-10.768z"/><path d="m345.139 139.1c-1.414 3.65-1.231 8.026.522 13.055 3.353-1.307 5.571-3.207 6.608-5.677 1.892-4.512.065-10.394-1.568-14.164a15.017 15.017 0 0 0 -5.562 6.786z"/><path d="m90.659 203.536a4.479 4.479 0 0 1 -3.055-1.2c-.808-.747-2.905-3.138-4.258-8.623a244.5 244.5 0 0 1 -17.821 20.919c-21.365 22.792-27.765 71.268-22.94 105.318 4.341 30.629 18.959 72.47 63.268 101.865.048-.62.093-1.239.163-1.861 4.615-41.231 17.38-112.763 51.037-129.794 1.777-1.255 5.309-6.759 6.2-14.922.694-6.384-.1-15.635-7.821-23.458-11.77-11.922-11.906-33.434-11.906-34.344a4.5 4.5 0 0 1 9-.006c0 .187.154 18.752 9.31 28.028 7.963 8.066 11.644 18.987 10.364 30.753a42.194 42.194 0 0 1 -1.2 6.345c25.025-15.289 24.94-26.343 24.918-26.462a4.5 4.5 0 0 1 8.848-1.651c.389 2.088 2.482 21.051-43.37 43.6-13.035 6.41-24.061 24.075-32.771 52.5-7.531 24.581-11.588 51.857-13.666 70.412a44.676 44.676 0 0 0 37.362 49.294c11.863 1.871 37.138 3.876 73.136-3.716a141.8 141.8 0 0 1 58.611-.1c38.755 8.095 65.788 5.368 75.611 3.818a44.676 44.676 0 0 0 37.362-49.294c-3.565-31.845-15.227-107.567-46.437-122.915-31.179-15.332-40.189-29.006-42.64-36.845a4.51 4.51 0 0 1 5.028-5.81 4.458 4.458 0 0 1 3.561 3.065c1.267 4.133 6.108 12.955 24.451 24.122a42.3 42.3 0 0 1 -1.2-6.362c-1.28-11.766 2.4-22.687 10.364-30.753 7.637-7.737 9.31-22.851 9.31-28.022a4.5 4.5 0 1 1 9 0c0 .91-.136 22.422-11.906 34.345-7.721 7.822-8.515 17.073-7.821 23.457.887 8.163 4.419 13.667 6.2 14.922 33.657 17.031 46.422 88.563 51.037 129.794.07.622.115 1.241.163 1.861 44.309-29.395 58.927-71.236 63.268-101.865 4.825-34.045-1.575-82.526-22.94-105.316a244.5 244.5 0 0 1 -17.821-20.919 27.811 27.811 0 0 1 -.985 3.2 4.319 4.319 0 0 1 -7.13 1.482l-.306-.312a4.364 4.364 0 0 1 -.957-4.545c1.57-4.351 3.5-15.437-2.654-39.219-5.851-22.615-20.742-33.506-32.708-42.257-6.893-5.042-12.848-9.4-15.268-15.053a33.231 33.231 0 0 1 -2.833-9.805 24.209 24.209 0 0 0 -6.922 1.938 4.5 4.5 0 0 1 -6.168-2.494 4.669 4.669 0 0 1 2.588-5.768c5.267-2.434 11.721-3.095 17.012-3.126h.048.1.022a72.038 72.038 0 0 1 7.869.41 13.782 13.782 0 0 0 2.874.061c2.431-.246 23.7-3.3 21.669-34.048-.032-.493-.082-.97-.132-1.447-3.158-1.837-10.534-5.444-17.324-3.715-4.513 1.151-8.06 4.469-10.847 10.145-10.973 22.351-29.087 23.7-29.853 23.746-.093.006-.184.009-.276.009a4.5 4.5 0 0 1 -.269-8.992c.519-.042 13.754-1.284 22.319-18.729 3.974-8.094 9.613-13.112 16.761-14.915a28.5 28.5 0 0 1 15.61.91 15.166 15.166 0 0 0 -8.82-6.175 18.527 18.527 0 0 0 -19.727 7.677c-11.292 17.432-28.954 17.32-29.711 17.326a4.5 4.5 0 0 1 .076-9h.068a24.649 24.649 0 0 0 8.5-1.878c-33.865-35.732-72.3-28.675-79.894-26.823a67.206 67.206 0 0 1 -31.735-.057c-7.288-1.781-44.174-8.478-77.986 27.219a24.478 24.478 0 0 0 7.549 1.539h.03a4.441 4.441 0 0 1 4.269 2.9 4.517 4.517 0 0 1 -4.143 6.1c-.754 0-18.419.107-29.711-17.326a18.525 18.525 0 0 0 -19.727-7.677 15.163 15.163 0 0 0 -8.82 6.175 28.488 28.488 0 0 1 15.61-.91c7.148 1.8 12.787 6.821 16.761 14.915 8.691 17.7 22.184 18.721 22.319 18.729a4.5 4.5 0 0 1 -.269 8.992c-.092 0-.183 0-.276-.009-.766-.046-18.88-1.4-29.853-23.746-2.787-5.676-6.334-8.994-10.847-10.145-6.8-1.732-14.167 1.874-17.324 3.713-.05.477-.1.955-.132 1.449-2.027 30.752 19.238 33.8 21.67 34.048a13.647 13.647 0 0 0 2.874-.061c1.627-.177 4.112-.378 7.009-.4.017 0 .033-.005.049-.005h.083.038c5.452-.036 12.344.559 17.909 3.143a4.653 4.653 0 0 1 2.549 5.747 4.5 4.5 0 0 1 -6.168 2.5 24.418 24.418 0 0 0 -7.118-1.975 29.388 29.388 0 0 1 -2.649 9.835c-2.42 5.657-8.374 10.011-15.268 15.053-11.966 8.751-26.856 19.642-32.708 42.256-4.783 18.486-4.658 29.257-3.711 35.037.731 4.469 2.038 6.364 2.05 6.375a4.5 4.5 0 0 1 -3.058 7.8zm274.455-84.6a4.492 4.492 0 0 1 6.251 1.093c.412.584 10.031 14.519 6.275 32.313-2.864 13.563-12.569 25.4-28.845 35.193-28.226 16.974-21.265 47.726-21.191 48.035a4.5 4.5 0 1 1 -8.754 2.088c-.089-.373-8.5-37.506 25.306-57.836 14-8.419 22.293-18.251 24.654-29.224 2.993-13.918-4.736-25.29-4.814-25.4a4.508 4.508 0 0 1 1.118-6.261zm-4.546 31.019c-2.054 4.9-6.039 8.47-11.867 10.672a4.494 4.494 0 0 1 -8.433 1.533c-5.287-9.993-6.453-18.893-3.467-26.454 3.988-10.1 13.953-13.63 14.375-13.775a4.493 4.493 0 0 1 5.283 1.885h.006l.044.071.009.015c.796 1.306 8.746 14.861 4.05 26.054zm-33.035-55.117c13.863-8.363 30.326-.813 31.021-.488a4.5 4.5 0 0 1 -3.813 8.153c-.235-.108-12.932-5.808-22.6.068-7.568 4.6-11.787 15.177-12.542 31.444a4.5 4.5 0 0 1 -4.491 4.292c-.071 0-.142 0-.213 0a4.5 4.5 0 0 1 -4.287-4.7c.903-19.496 6.598-32.537 16.925-38.769zm-6.358 216.735c7.237 4.9 15.237 14.211 12.245 30.7-5.527 30.459-46.227 46.125-47.957 46.778a4.5 4.5 0 0 1 -5.84-2.739c-12.168-35.174-2.449-57.377 7.847-69.811a25.24 25.24 0 0 1 33.705-4.928zm-56.524-236.273a4.506 4.506 0 0 1 4.828 4.085c.048.407 2.333 16.925 31.814 29.4a4.5 4.5 0 1 1 -3.506 8.289c-35.193-14.89-37.209-36.048-37.277-36.942a4.5 4.5 0 0 1 4.141-4.832zm-32.274 311.015a4.5 4.5 0 0 1 -5.84 2.739c-1.73-.653-42.43-16.319-47.957-46.778-2.992-16.492 5.008-25.8 12.245-30.7a25.239 25.239 0 0 1 33.705 4.924c10.296 12.438 20.015 34.641 7.847 69.815zm-21.67-277.53c29.719-12.574 31.8-29.177 31.811-29.341a4.5 4.5 0 1 1 8.972.688c-.068.894-2.084 22.052-37.277 36.942a4.5 4.5 0 1 1 -3.506-8.289zm-57.261-14.435c.694-.326 17.16-7.874 31.021.488 10.327 6.232 16.022 19.273 16.927 38.76a4.5 4.5 0 0 1 -4.287 4.7c-.071 0-.142 0-.212 0a4.5 4.5 0 0 1 -4.492-4.292c-.757-16.3-4.991-26.888-12.587-31.471-9.791-5.908-22.42-.105-22.547-.046a4.5 4.5 0 1 1 -3.823-8.148zm-.339 53.685c-4.734-10.764 1.692-22.9 2.291-23.986v-.007l.033-.061h.006a4.5 4.5 0 0 1 5.217-2.107c.537.163 13.2 4.094 17.7 15.388 2.923 7.342 1.715 15.762-3.59 25.028a4.492 4.492 0 0 1 -8.378-2.608c-6.496-2.459-10.954-6.362-13.279-11.647zm-12.472-28a4.5 4.5 0 0 1 7.365 5.165c-.156.229-7.789 11.555-4.812 25.4 2.361 10.973 10.656 20.805 24.654 29.224 33.8 20.33 25.4 57.463 25.306 57.836a4.5 4.5 0 0 1 -8.754-2.088c.292-1.253 6.88-31.154-21.191-48.035-16.276-9.789-25.981-21.63-28.845-35.193-3.758-17.795 5.865-31.73 6.277-32.314z"/></svg>