<svg id="Layer_1" height="512" viewBox="0 0 512 512" width="512" xmlns="http://www.w3.org/2000/svg" data-name="Layer 1"><path d="m255.8 487.455c-1.518 0-3.037-.059-4.546-.178-15.915-1.254-29.648-6.21-40.546-14.511a26.838 26.838 0 0 0 5.472 12.886c7.189 9.027 20.594 13.826 39.841 14.266 19-.393 32.24-5.165 39.346-14.184a27.347 27.347 0 0 0 5.553-13.5c-10.889 8.555-24.291 13.6-40.014 14.993-1.695.153-3.406.228-5.106.228z"/><path d="m175.988 210.376c-.786-3.823-2.55-9.874-6.339-14.6a13.691 13.691 0 0 0 -9.422-5.069 14.721 14.721 0 0 0 -10.324 2.937c2.849 7.382 6.979 12.431 12.3 15.03a23.068 23.068 0 0 0 13.785 1.702z"/><path d="m219.621 394.255.895-2.812a2.571 2.571 0 0 0 -.313-2.2 4.489 4.489 0 0 0 -3.271-1.878 5.255 5.255 0 0 0 -.695-.058c-.922 0-2.074.413-2.854 2.936a2.287 2.287 0 0 0 -.037 1.213l2.381 10.205a11.291 11.291 0 0 1 .066 4.848c-.195.964-.5 2.206-.85 3.645-1.9 7.8-6.364 26.076-.192 33.522 2.177 2.626 5.719 3.771 10.806 3.5 4.359-.231 5.726-1.9 6.375-3.13 3.879-7.37-4.18-26.937-10.849-37.841a14.287 14.287 0 0 1 -1.462-11.95z"/><path d="m293.214 406.508a11.326 11.326 0 0 1 .066-4.849l2.382-10.207a2.294 2.294 0 0 0 -.037-1.212c-.78-2.522-1.932-2.936-2.854-2.936a5.255 5.255 0 0 0 -.695.058 4.485 4.485 0 0 0 -3.271 1.878 2.568 2.568 0 0 0 -.313 2.2l.895 2.812a14.287 14.287 0 0 1 -1.462 11.95c-6.669 10.9-14.728 30.471-10.849 37.841.649 1.233 2.016 2.9 6.375 3.13 5.093.265 8.629-.877 10.806-3.5 6.172-7.446 1.712-25.719-.192-33.522-.352-1.439-.655-2.681-.851-3.643z"/><path d="m212.326 131.118a80.475 80.475 0 0 1 9.781-18.884 4.5 4.5 0 0 1 7.421 5.092c-.627.914-1.209 1.806-1.763 2.684 2.412 26.931 21.138 42.8 27.125 47.222 10.63-5.05 17.361-17.587 21.2-27.529a120.744 120.744 0 0 0 5.955-21.472c-.56-.774-1.121-1.55-1.723-2.361a4.5 4.5 0 1 1 7.232-5.358 190.322 190.322 0 0 1 13.877 21.151c6.361-9.226 9.406-21.056 9.063-35.268a36.286 36.286 0 0 0 -32.142-35.084 201.911 201.911 0 0 0 -42.851-.2 36.525 36.525 0 0 0 -32.467 34.389c-.723 14.963 2.4 26.906 9.292 35.618z"/><path d="m168.17 123.494c2.393-4.107 5.642-11.679 6.012-22.929.86-26.174-14.02-54.489-29.292-76.436.077 9.075.482 20.5 1.683 32.521 3.204 32.05 10.636 54.985 21.597 66.844z"/><path d="m343.6 123.758c11.113-11.793 18.64-34.863 21.862-67.222.937-9.411 1.386-18.447 1.574-26.275-15.156 21.689-29.881 49.128-29.136 73.139.315 10.308 3.392 16.852 5.7 20.358z"/><path d="m183.138 101.843c-.9 19.322-9.159 29.473-10.8 31.3-1.57 2.19-19.227 27.447-15.134 48.548a23.279 23.279 0 0 1 3.915.052 22.627 22.627 0 0 1 15.555 8.4c7.745 9.67 8.831 22.7 8.873 23.251a4.5 4.5 0 0 1 -2.89 4.554 33.721 33.721 0 0 1 -11.03 1.8 32.17 32.17 0 0 1 -6.558-.668c1.117 13.131 3.969 42.922 8.668 67.728 2.444 12.9 5.632 22.33 9.474 28.027a4.5 4.5 0 0 1 -7.462 5.032c-4.523-6.706-8.17-17.243-10.842-31.319a211.738 211.738 0 0 0 -3.63 32.555c-.778 24.742 3.035 59.051 24 88.431 1.358-28.357 10-45.017 18.267-54.563-8.862-14.518-16.289-36.25-22.1-64.694-4.595-22.5-6.369-40.567-6.442-41.325a4.5 4.5 0 0 1 8.958-.867c.067.7 6.746 67.562 26.723 101.3a11.951 11.951 0 0 1 7.188-.2 12.436 12.436 0 0 1 8.7 9.136 21.68 21.68 0 0 0 1.194 3.569c1.383 3.21 11.7 8.174 29.454 8.667 9.582-.309 24.718-3.262 27.046-8.667a21.473 21.473 0 0 0 1.194-3.57 12.438 12.438 0 0 1 8.7-9.135 11.967 11.967 0 0 1 7.188.2c19.977-33.734 26.656-100.6 26.723-101.3a4.5 4.5 0 0 1 8.958.867c-.073.758-1.847 18.82-6.442 41.325-5.808 28.444-13.236 50.176-22.1 64.693 8.455 9.769 17.413 27.108 18.37 57.041 22.2-22.626 32.033-52.616 29.236-89.306a183.81 183.81 0 0 0 -7.374-38.7c-2.865 14.375-6.864 27.592-12.44 35.859a4.5 4.5 0 0 1 -7.461-5.032c13.7-20.31 17.111-77.49 17.873-96.253a40.389 40.389 0 0 1 -7.117.62 41.291 41.291 0 0 1 -9.759-1.107 4.5 4.5 0 0 1 -3.334-4.7c.042-.55 1.128-13.581 8.874-23.251a22.626 22.626 0 0 1 15.554-8.4 23.2 23.2 0 0 1 3.917-.051c4.04-20.766-12.925-45.445-15.032-48.4-4.346-4.206-34.009-37.746 27.318-118.386-.015-1-.032-1.956-.052-2.826-19.585 13.236-48.785 47.16-57.284 57.259a45.027 45.027 0 0 1 9.717 26.836c.471 19.5-4.814 35.268-15.709 46.864a4.5 4.5 0 0 1 -7.494-1.5c-.019-.049-1.754-4.449-7.232-13.04-3.732 14.9-12.965 40.7-33.166 48.062a4.49 4.49 0 0 1 -3.911-.4c-1.086-.673-23.273-14.756-30.916-42.719a36.5 36.5 0 0 0 -1.924 7.022 4.51 4.51 0 0 1 -7.372 2.94c-12.608-10.629-18.736-27.343-17.722-48.335a45.112 45.112 0 0 1 9.076-24.958c-7.786-9.211-33.617-39.137-53.1-54.33 23.13 32.175 34.278 61.096 33.116 86.064zm93.174 224.1c9.125-9.5 12.273-31.057 12.716-38.562a4.5 4.5 0 0 1 8.985.531c-.073 1.237-1.942 30.451-15.209 44.265a4.5 4.5 0 1 1 -6.492-6.234zm-56.3-42.789a4.494 4.494 0 0 1 4.757 4.227c.024.4 1.777 27.173 12.716 38.562a4.5 4.5 0 1 1 -6.485 6.231c-13.268-13.814-15.136-43.028-15.209-44.265a4.5 4.5 0 0 1 4.222-4.758z"/><path d="m351.8 190.7a13.693 13.693 0 0 0 -9.423 5.069c-3.653 4.56-5.43 10.408-6.257 14.254 4.223.411 11.047.33 16.791-3.165 4.425-2.693 7.586-7.078 9.42-13.059a14.712 14.712 0 0 0 -10.531-3.099z"/><path d="m317.942 418.086c.152-33.73-9.868-50.938-18.3-59.435a2.992 2.992 0 0 0 -3.041-.812 3.393 3.393 0 0 0 -2.384 2.539 30.519 30.519 0 0 1 -1.689 5.067c-2.509 5.825-9.408 9.963-20.5 12.3a92.286 92.286 0 0 1 -14.666 1.806c-.083 0-.167 0-.25 0-5.326-.142-32.171-1.486-37.609-14.106a30.514 30.514 0 0 1 -1.688-5.067 3.392 3.392 0 0 0 -2.385-2.539 3.263 3.263 0 0 0 -.883-.124 2.965 2.965 0 0 0 -2.157.936c-8.751 8.817-19.022 26.793-18.263 62.362a58.088 58.088 0 0 0 11.112 33.5c10.457 14.166 26.178 22.169 46.724 23.788a49.08 49.08 0 0 0 8.151-.039c17.782-1.577 32.14-8.32 42.675-20.041a60.23 60.23 0 0 0 15.153-40.135zm-78.042 30.153c-1.776 3.374-5.623 7.488-13.863 7.924q-.948.051-1.861.05c-7.114 0-12.607-2.281-16.35-6.8-9.058-10.929-4.035-31.509-1.621-41.4.329-1.348.613-2.512.773-3.3a2.357 2.357 0 0 0 -.011-1.014l-2.381-10.2a11.325 11.325 0 0 1 .2-5.915c2.026-6.56 7.008-9.981 13.327-9.142a13.437 13.437 0 0 1 9.69 5.977 11.606 11.606 0 0 1 1.29 9.756l-.9 2.811a5.341 5.341 0 0 0 .564 4.525c.788 1.28 19.116 31.573 11.143 46.728zm44.941 7.974q-.912 0-1.86-.05c-8.24-.436-12.087-4.55-13.864-7.924-7.977-15.155 10.351-45.448 11.135-46.73a5.341 5.341 0 0 0 .564-4.525l-.895-2.811a11.606 11.606 0 0 1 1.29-9.756 13.437 13.437 0 0 1 9.69-5.977c6.323-.839 11.3 2.583 13.328 9.143a11.333 11.333 0 0 1 .2 5.914l-2.384 10.203a2.373 2.373 0 0 0 -.01 1.014c.16.789.444 1.953.773 3.3 2.414 9.89 7.437 30.47-1.622 41.4-3.742 4.517-9.236 6.799-16.35 6.799z"/></svg>