<svg id="Layer_1" height="512" viewBox="0 0 512 512" width="512" xmlns="http://www.w3.org/2000/svg" data-name="Layer 1"><path d="m187.369 275.718c-4.642-5.209-9.382-7.85-14.13-7.864h-.039c-5.419 0-10.069 3.415-12.77 5.944 2.632 2.513 7.195 5.95 12.88 6.492 4.599.441 9.315-1.099 14.059-4.572z"/><path d="m286.164 432.834a96.334 96.334 0 0 1 -19.188-7.9 23.592 23.592 0 0 0 -11.379-2.68 24.416 24.416 0 0 0 -10.956 2.884 95.663 95.663 0 0 1 -19.1 7.775 48.943 48.943 0 0 1 -18.49 1.48c5.947 6.762 17.858 14.8 40.048 12.052a72.358 72.358 0 0 1 17.793 0c22.188 2.746 34.1-5.3 40.057-12.079a49.26 49.26 0 0 1 -18.785-1.532z"/><path d="m226.137 358.205c-2.442-4.2-5.12-7.261-7.052-7.261a1.677 1.677 0 0 0 -.51.078 2.7 2.7 0 0 0 -1.912 3.55c.737 2.379 3.937 4.177 9.474 3.633z"/><path d="m295.335 354.572a2.693 2.693 0 0 0 -1.912-3.55c-1.7-.556-4.72 2.268-7.6 7.178 5.552.563 8.777-1.243 9.512-3.628z"/><path d="m296.5 293.031c-.184-.15-.36-.3-.541-.452.722 9.936.521 22.809-3.766 31.7 7.866 3.029 15.545 7.492 20.635 14.082 5.617 7.275 7.369 16.019 5.207 25.992-2.129 9.816-6.846 16.952-14.018 21.21-11.526 6.842-25.314 3.577-27.591 2.965-.361-.058-1.116-.18-2.139-.342a116.7 116.7 0 0 0 -38.674.334 43.078 43.078 0 0 1 -10.668 1.322 33.132 33.132 0 0 1 -16.953-4.279c-7.173-4.258-11.89-11.394-14.018-21.21-2.163-9.973-.411-18.718 5.207-25.992 5.09-6.591 12.77-11.054 20.635-14.082-4.285-8.89-4.483-21.765-3.759-31.706-.183.153-.361.306-.548.459-19.23 15.719-61.708 57.646-40.876 107.36a40.987 40.987 0 0 0 48.517 23.85 86.659 86.659 0 0 0 17.283-7.055 33.464 33.464 0 0 1 15.01-3.928 32.106 32.106 0 0 1 15.775 3.741 87.391 87.391 0 0 0 17.379 7.17 41.029 41.029 0 0 0 48.812-23.87c20.742-49.677-21.703-91.566-40.909-107.269z"/><path d="m202.764 362.443c1.573 7.252 4.86 12.417 9.77 15.352 8.928 5.338 20.706 2.043 20.824 2.009a4.814 4.814 0 0 1 .516-.118 125.617 125.617 0 0 1 41.819-.39c1.488.236 2.417.388 2.417.388a4.4 4.4 0 0 1 .543.124c.1.03 11.884 3.324 20.811-2.013 4.91-2.935 8.2-8.1 9.77-15.352 1.594-7.352.441-13.426-3.526-18.57-11.528-14.947-42.339-16.8-44.158-16.9h-11.1c-1.791.093-32.625 1.944-44.158 16.9-3.969 5.144-5.122 11.218-3.528 18.57zm70.122 2.747a70.4 70.4 0 0 1 5.486-12c6.749-11.436 13.41-12.151 17.807-10.736a11.63 11.63 0 0 1 7.753 14.78c-2.078 6.716-9.619 11.867-22.046 9.472q-.237.657-.463 1.334a4.5 4.5 0 1 1 -8.537-2.85zm-57.067-22.736c4.4-1.412 11.058-.7 17.807 10.736a70.451 70.451 0 0 1 5.487 12 4.5 4.5 0 0 1 -8.536 2.853q-.224-.666-.469-1.336c-12.422 2.391-19.963-2.759-22.042-9.473a11.631 11.631 0 0 1 7.753-14.78z"/><path d="m338.714 267.854c-4.732.031-9.458 2.672-14.085 7.864 4.766 3.49 9.5 5.027 14.122 4.565 5.643-.56 10.193-3.991 12.817-6.493-2.7-2.531-7.335-5.937-12.77-5.937z"/><path d="m497.379 172.194c-.009-.054-.03-.1-.037-.156-.5-3.707-10.184-12.794-30.242-23.984-17.757-9.906-34.393-16.454-40.217-17.054a27.24 27.24 0 0 0 -27.533 15.6c-.043.092-.087.181-.136.269l-21.049 38.425a4.5 4.5 0 0 1 -7.894-4.324l20.98-38.3a36.229 36.229 0 0 1 36.563-20.625c8.986.934 28.771 9.838 43.67 18.149a172.783 172.783 0 0 1 21.268 13.643c-12.608-41.52-35.949-68.961-51.207-80.495-9.5-7.183-16.229-8.938-19.354-8.18-7.376 1.783-24.457 19.369-43.515 44.8-15.806 21.094-27.927 40.812-30.876 48.358 5.967 4.905 9.528 8.187 9.789 8.428a4.5 4.5 0 1 1 -6.113 6.6c-.447-.413-45.19-41.474-87.19-52.571a34.806 34.806 0 0 0 -18.3.146c-41.5 11.674-85.015 52.005-85.45 52.411a4.5 4.5 0 0 1 -6.145-6.575c.254-.238 3.72-3.464 9.54-8.3-2.848-7.458-14.96-27.291-30.776-48.5-18.966-25.436-35.982-43.022-43.349-44.8-3.128-.758-9.853 1-19.355 8.18-14.445 10.92-36.141 36.086-49.111 73.966a148.572 148.572 0 0 1 20.309-10.963c15.917-7.286 34.2-13.434 42.534-14.3a36.224 36.224 0 0 1 36.562 20.625l20.98 38.3a4.5 4.5 0 1 1 -7.894 4.324l-21.049-38.425c-.048-.088-.094-.177-.136-.269a27.236 27.236 0 0 0 -27.531-15.597c-6.321.657-23.3 6.019-39.718 13.532-21.141 9.678-28.077 16.736-29 19.717a208.6 208.6 0 0 0 -5.8 41.6c-.98 25.084 5.584 44.01 19.511 56.255 20.951 18.419 53.283 17.143 64.555 16.035-.258-4.022-.449-8.145-.551-12.4a311.236 311.236 0 0 1 1.15-36.506 4.5 4.5 0 0 1 8.951.943c-.064.605-6.164 60.987 10.133 100.331.645 1.554 2.993 5.952 11.483 17.933 6.512 9.189 12.891 19.266 20.075 31.713a53.443 53.443 0 0 0 18.483 18.634c-7.82-22.5-5.282-45.624 7.583-68.833 10.862-19.592 26.572-34.683 37.838-43.893 13.293-10.866 11.571-18.21 9.119-22.79-10.114-18.89-21.484-30.146-33.795-33.456-9.139-2.456-18.874-.548-28.933 5.674-12.989 8.036-21.593 20.806-23.605 35.033a4.5 4.5 0 1 1 -8.912-1.259c2.388-16.881 12.514-31.981 27.783-41.428 12.083-7.475 24.532-9.8 36-6.711 14.805 3.98 28.059 16.731 39.393 37.9 3.857 7.206 3.751 14.424-.284 21.574-2.162 12.044-3.257 32.111 1.91 40.878a110.16 110.16 0 0 1 21.663-3.5q.094 0 .189 0h11.32q.094 0 .189 0a110.18 110.18 0 0 1 21.665 3.5c5.18-8.773 4.087-28.823 1.923-40.853-4.049-7.158-4.161-14.385-.3-21.6 11.333-21.168 24.587-33.919 39.393-37.9 11.471-3.085 23.92-.762 36 6.711 15.27 9.447 25.4 24.547 27.783 41.428a4.5 4.5 0 1 1 -8.912 1.259c-2.011-14.227-10.616-27-23.606-35.033-10.057-6.222-19.791-8.131-28.932-5.674-12.311 3.31-23.681 14.566-33.8 33.456-2.452 4.58-4.174 11.925 9.119 22.79 11.257 9.2 26.956 24.281 37.817 43.855 12.9 23.245 15.436 46.413 7.58 68.944 6.808-4.032 14.84-10.191 19.753-18.707 7.185-12.447 13.563-22.524 20.075-31.713 8.491-11.981 10.839-16.379 11.483-17.934 16.3-39.343 10.2-99.725 10.134-100.33a4.5 4.5 0 0 1 8.95-.943 311.1 311.1 0 0 1 1.151 36.506c-.111 4.6-.323 9.054-.616 13.386 11.169.978 42.673 1.835 63.289-16.448 13.992-12.408 20.584-31.529 19.6-56.832a210.44 210.44 0 0 0 -4.015-33.65zm-346.646 98.866c.375-.5 9.32-12.207 22.467-12.207h.065c8.661.026 16.741 5.009 24.016 14.813.013.017.02.037.033.054.077.108.137.225.205.338.08.135.164.267.229.407.049.105.081.217.122.326a4.45 4.45 0 0 1 .157.469c.029.117.043.236.062.355a4.432 4.432 0 0 1 .062.471c.007.126 0 .252 0 .379a4.539 4.539 0 0 1 -.031.467c-.017.123-.042.244-.069.367a4.534 4.534 0 0 1 -.133.486c-.02.06-.026.12-.049.18-2.083 5.409-7.048 11.106-14.758 16.932a96.509 96.509 0 0 1 -10.611 6.973 4.5 4.5 0 0 1 -4.332-7.89 80.991 80.991 0 0 0 7.29-4.63c-.183 0-.367.015-.55.015q-1.273 0-2.551-.126c-13.109-1.3-21.318-12.352-21.661-12.822a4.5 4.5 0 0 1 .037-5.357zm-18.627-70.26a4.484 4.484 0 0 1 -2.884 2.24 83.947 83.947 0 0 1 -20.265 2.643c-18.176 0-27.291-7.113-27.785-7.51a4.5 4.5 0 0 1 5.613-7.036c.515.4 9.9 7.337 29.492 5.132-7.95-5.872-12.267-11.045-14.578-14.69a4.508 4.508 0 0 1 7.6-4.852c2.275 3.582 7.874 10.263 20.948 17.966a4.64 4.64 0 0 1 1.859 6.107zm122.651-16.819c-5.481 28.282-31.435 41.08-32.537 41.611a4.5 4.5 0 0 1 -3.914-8.1c.254-.124 23.012-11.468 27.615-35.22a4.5 4.5 0 0 1 8.836 1.713zm41.029 39.51a4.5 4.5 0 0 1 -6.007 2.1c-1.1-.531-27.057-13.328-32.537-41.611a4.5 4.5 0 0 1 8.835-1.713c4.631 23.9 27.378 35.106 27.608 35.216a4.5 4.5 0 0 1 2.101 6.017zm65.514 52.926c-.344.47-8.553 11.519-21.662 12.822q-1.276.126-2.55.126c-.188 0-.375-.011-.562-.015a80.58 80.58 0 0 0 7.3 4.629 4.5 4.5 0 1 1 -4.329 7.891 96.509 96.509 0 0 1 -10.607-6.97c-7.71-5.826-12.676-11.523-14.759-16.932-.023-.059-.029-.12-.049-.18a4.534 4.534 0 0 1 -.133-.486c-.027-.123-.052-.244-.068-.367a4.54 4.54 0 0 1 -.032-.467c0-.127-.009-.253 0-.379a4.688 4.688 0 0 1 .062-.472c.02-.118.033-.237.062-.353a4.49 4.49 0 0 1 .158-.471c.04-.109.073-.22.121-.325a4.526 4.526 0 0 1 .229-.406c.068-.114.128-.231.205-.339.013-.017.02-.037.033-.054 7.275-9.8 15.356-14.788 24.017-14.813h.064c13.149 0 22.093 11.708 22.468 12.207a4.5 4.5 0 0 1 .032 5.354zm69.523-78.236c-.494.4-9.611 7.511-27.785 7.511a83.9 83.9 0 0 1 -20.265-2.643 4.5 4.5 0 0 1 -1.193-8.245c19.544-11.472 22.506-20.659 22.527-20.747a4.5 4.5 0 1 1 8.75 2.1c-.258 1.073-2.677 9.44-17.139 20.12 19.664 2.214 29.045-4.786 29.5-5.136a4.5 4.5 0 0 1 5.608 7.039z"/></svg>