<svg id="Layer_1" height="512" viewBox="0 0 512 512" width="512" xmlns="http://www.w3.org/2000/svg" data-name="Layer 1"><path d="m256.788 443.023c-11.148 1.127-23.05-9.635-29.823-17.048-.786 4.033-1.031 9.214 1.016 14.044 2.5 5.895 8.052 10.3 16.5 13.1a13.73 13.73 0 0 1 5.266 3.165c4.078 3.981 8.689 3.869 13.707-.337a14.284 14.284 0 0 1 4.894-2.7c8.41-2.649 13.946-7.526 16.456-14.5a26.273 26.273 0 0 0 1.444-10.313 47.273 47.273 0 0 1 -29.46 14.589z"/><path d="m333.339 293.126c4.517-2.6 6.958-7.355 8.235-11.055-7.655.687-18.6 3.2-26.347 11.383 7.456 2.417 13.533 2.31 18.112-.328z"/><path d="m178.7 293.15c4.575 2.617 10.637 2.714 18.069.305-7.756-8.185-18.7-10.7-26.357-11.387 1.279 3.709 3.728 8.472 8.288 11.082z"/><path d="m257.973 501.248a43.98 43.98 0 0 0 28.235-13.009c-8.073 3.321-17.253 4.683-27.478 4.042a59.284 59.284 0 0 0 -7.308.017q-2.325.138-4.579.138a58.248 58.248 0 0 1 -22.717-4.277 43.972 43.972 0 0 0 33.847 13.089z"/><path d="m354.078 69.231c-22.255 20.589-39.5 45.966-51.246 75.424-.664 1.665-2.608 4.249-8.178 2.83-1.844-.469-4.139-1.286-7.046-2.32-7.865-2.8-19.749-7.027-31.329-7.027h-.025c-11.659.006-23.7 4.226-31.665 7.018-7.753 2.716-13.355 4.68-15.423-.507-11.75-29.457-28.992-54.832-51.247-75.42a217.174 217.174 0 0 0 -62.694-40.124 247.236 247.236 0 0 0 -71.151-18.434c.082 3.473.325 8.746.988 15.362 1.517.022 3.357.117 5.656.319 10.158.891 37.348 4.936 70.357 23.219 37.18 20.593 69.5 52.145 96.053 93.78a4.5 4.5 0 1 1 -7.588 4.84c-36.675-57.5-78.859-85.177-107.789-98.269-26.321-11.911-47.182-14.516-55.606-14.844a243.939 243.939 0 0 0 11.521 47.608 205.16 205.16 0 0 0 36.053 63.931c19.2 22.835 43.575 40.74 72.461 53.218a4.5 4.5 0 0 1 -3.569 8.262c-.677-.292-1.339-.6-2.011-.9 4.4 10.071 10.082 25.15 11.789 39.063a47.581 47.581 0 0 1 20.5-3.767c10.611.275 31.22 3.834 50.016 24.578a4.5 4.5 0 0 1 -6.669 6.043c-16.546-18.261-34.407-21.386-43.581-21.624-9.565-.24-16.338 2.261-19.815 4.837a36.707 36.707 0 0 1 -1.213 8.083c-5.35 19.285-17.994 83.626 34.471 127.254.214-2.991.433-4.878.482-5.279a4.5 4.5 0 0 1 8.934 1.086c-.068.562-6.5 56.472 18.109 82.63 9.122 9.694 21.66 14.147 37.265 13.214a68.6 68.6 0 0 1 8.406-.016c15.748.984 28.468-3.456 37.812-13.213 25.066-26.176 19.433-82.117 19.373-82.678a4.5 4.5 0 0 1 8.948-.959c.045.42.254 2.467.431 5.716 21.289-17.761 34.166-40.846 38.314-68.743 3.96-26.625-1.337-50.139-3.8-59.012a36.586 36.586 0 0 1 -1.206-7.936c-3.739-2.75-11.047-5.137-20.482-4.9-9.41.244-27.654 3.367-44.122 21.541a4.5 4.5 0 0 1 -6.669-6.043c18.718-20.657 39.71-24.214 50.558-24.5a49.148 49.148 0 0 1 21.142 3.821c1.686-13.951 7.394-29.1 11.806-39.2-.672.3-1.334.609-2.011.9a4.5 4.5 0 0 1 -3.569-8.262c28.886-12.478 53.265-30.383 72.461-53.218a205.16 205.16 0 0 0 36.053-63.931 244.248 244.248 0 0 0 11.781-49.538c-11.391.679-37.616 3.965-68.553 19.284-40.64 20.126-74.256 53-99.916 97.713a4.5 4.5 0 1 1 -7.805-4.48c26.56-46.282 61.46-80.361 103.728-101.294 33.548-16.613 61.456-19.772 73.558-20.3.522-5.7.726-10.278.8-13.4a247.234 247.234 0 0 0 -71.153 18.435 217.147 217.147 0 0 0 -62.695 40.129zm-254.943 68.619a4.5 4.5 0 0 1 -5.924 2.324c-15.7-6.849-19.682-28.365-19.844-29.277a4.5 4.5 0 0 1 8.86-1.58c.032.177 3.324 17.7 14.583 22.609a4.5 4.5 0 0 1 2.325 5.924zm68.965 42.576a4.5 4.5 0 0 1 -4.5 4.433h-.068a4.493 4.493 0 0 1 -3.726-2.085 23.862 23.862 0 0 0 -12.194-10.032 4.5 4.5 0 0 1 2.429-8.666 29.14 29.14 0 0 1 8.405 4.35c-1.989-20.556-9.985-62.141-42.071-78.384a4.5 4.5 0 0 1 4.065-8.029c20.084 10.167 34.7 30.5 42.255 58.8a160.071 160.071 0 0 1 5.405 39.613zm50.712 26.828a4.5 4.5 0 1 1 6.143-6.576c.545.509 13.349 12.747 13.32 36.986a4.5 4.5 0 0 1 -4.5 4.5 4.5 4.5 0 0 1 -4.5-4.5c.025-20.377-10.355-30.311-10.46-30.41zm-31.834 96.939a25.213 25.213 0 0 1 -12.815-3.271c-8.363-4.822-11.808-13.686-13.163-18.932a4.488 4.488 0 0 1 -.6-8.946 63.124 63.124 0 0 1 18.886 1.251c12.5 2.741 22.226 9.1 28.372 18.474.058.078.108.162.161.245.565.875 1.111 1.766 1.613 2.693a4.5 4.5 0 0 1 -7.134 5.326 43.7 43.7 0 0 1 -15.317 3.16zm115.589-8.486c.5-.927 1.047-1.818 1.612-2.693.054-.082.1-.167.162-.245 6.146-9.369 15.876-15.733 28.372-18.474a63.163 63.163 0 0 1 18.886-1.251 4.489 4.489 0 0 1 -.6 8.949c-1.355 5.246-4.8 14.106-13.165 18.929a25.21 25.21 0 0 1 -12.815 3.271 43.692 43.692 0 0 1 -15.315-3.159 4.5 4.5 0 0 1 -7.134-5.327zm-12.028 32.771a4.5 4.5 0 0 1 4.312 4.682c-.019.439-1.708 44.19 6.87 60.794 11.814 22.866 6.463 43.232-15.47 58.9a36.1 36.1 0 0 1 -15.2 8.965 5.4 5.4 0 0 0 -1.816 1.017 21.317 21.317 0 0 1 -13.373 5.319c-4.12 0-8.409-1.54-12.4-5.441a4.669 4.669 0 0 0 -1.805-1.059 42.006 42.006 0 0 1 -14.027-7.5c-29.684-20.021-25.843-43.775-17.355-60.206 8.578-16.6 6.889-60.355 6.87-60.794a4.5 4.5 0 0 1 8.993-.371c.078 1.893 1.8 46.58-7.866 65.3-6.493 12.567-6.8 23.661-.878 33.529a41.957 41.957 0 0 1 3.723-16.78 4.5 4.5 0 0 1 7.641-.72c6.133 8.155 18.918 20.756 27.121 19.956 15.694-1.592 25.751-12.609 26.925-16.527a5.048 5.048 0 0 1 5.291-3.81c4.976.461 6.507 7.91 6.977 12.309a36.843 36.843 0 0 1 .2 4.409c5.228-9.575 4.7-20.285-1.543-32.366-9.668-18.716-7.944-63.4-7.866-65.3a4.5 4.5 0 0 1 4.679-4.306zm6.541-121.24a31.517 31.517 0 0 0 -5.265 7.6 48.949 48.949 0 0 0 -5.216 22.819 4.5 4.5 0 0 1 -4.494 4.5h-.005a4.5 4.5 0 0 1 -4.5-4.5c-.028-24.239 12.775-36.477 13.32-36.986a4.5 4.5 0 0 1 6.161 6.56zm124.553-77.724c11.26-4.913 14.552-22.432 14.583-22.609a4.5 4.5 0 0 1 8.861 1.58c-.162.912-4.144 22.428-19.844 29.277a4.5 4.5 0 1 1 -3.6-8.248zm-73.325 8.386c7.938-30.755 25.482-53.714 50.735-66.395a4.5 4.5 0 1 1 4.039 8.042c-23.114 11.607-38.588 31.908-45.991 60.338a139.556 139.556 0 0 0 -4.259 29.077 29.519 29.519 0 0 1 9.124-4.88 4.5 4.5 0 0 1 2.425 8.667 23.884 23.884 0 0 0 -12.189 10.031l-.015-.009a4.478 4.478 0 0 1 -3.416 2.076c-.124.01-.247.015-.37.015a4.5 4.5 0 0 1 -4.48-4.131 141.817 141.817 0 0 1 4.397-42.831z"/></svg>