<svg id="Layer_1" height="512" viewBox="0 0 512 512" width="512" xmlns="http://www.w3.org/2000/svg" data-name="Layer 1"><path d="m272.528 315.493c-3.4 2.288-5.372 6.748-5.9 13.275 12.046-3.37 17.752-6.636 20.41-11.5a16.147 16.147 0 0 0 1.1-2.541c-4.457-1.278-11.166-2.227-15.61.766z"/><path d="m244 309.032c6.188 4.25 9.653 11.521 10.343 21.632a25.577 25.577 0 0 0 3.181.011c.35-10.824 3.708-18.448 10.024-22.674 7.217-4.83 16.294-3.7 22.076-2.182.3-5.127.1-11.523-.161-19.564q-.087-2.721-.176-5.681c-.44-15.1-4.971-25.907-13.464-32.121a26.141 26.141 0 0 0 -15.377-4.811h-8.9a26.141 26.141 0 0 0 -15.376 4.81c-8.494 6.215-13.024 17.023-13.465 32.122q-.085 2.961-.176 5.681c-.257 8.067-.459 14.476-.157 19.612 5.615-1.137 14.476-1.745 21.628 3.165z"/><ellipse cx="182.003" cy="254.88" rx="16.706" ry="16.643"/><path d="m25.471 215.785a4.5 4.5 0 0 1 1.076 4.616c-.187.555-18.438 56.1 7.241 90.06 14.2 18.783 39.415 27.8 74.985 26.825a48.079 48.079 0 0 1 3.683-14.557c-.791.69-1.629 1.482-2.511 2.391-2.583 2.659-4.781 2.48-6.144 1.893-41.644-13.961-59.451-33.067-54.426-58.4a6.337 6.337 0 0 0 -4.878-7.126 12.958 12.958 0 0 1 -8.763-17.76l12.842-29.39a6.064 6.064 0 0 1 -5.1-8.417c8.582-20 21.515-32.864 38.441-38.235 27.555-8.739 56.984 5.155 66.264 10.176a81.971 81.971 0 0 1 16-10.573c-8.163-8.847-29.4-28.5-58.5-30.6-22.814-1.645-45.918 7.66-68.79 27.678h6.546a4.5 4.5 0 0 1 1.8 8.622 97.323 97.323 0 0 0 -13.206 7.14l2.2-.694a4.5 4.5 0 0 1 3.821 8.054c-.246.163-20.5 13.742-26.125 32.588a27 27 0 0 1 8.932-5.378 4.5 4.5 0 0 1 4.612 1.087z"/><path d="m238.925 316.467c-4.643-3.207-11.052-2.587-15.075-1.722a16.215 16.215 0 0 0 1.094 2.525c2.641 4.829 8.283 8.083 20.162 11.429-.789-5.828-2.855-9.934-6.181-12.232z"/><path d="m105.508 288.449c11.435-7.328 17.106-34.661 18.416-45.159-1.817-24.111 4.07-43.87 17.458-58.8a111.9 111.9 0 0 0 -15.371-6.3c-10.73-3.471-26.626-6.624-41.412-1.916-13.152 4.185-23.557 13.965-30.975 29.1a7.593 7.593 0 0 1 2.633 1.675 7.472 7.472 0 0 1 1.65 8.411l-13.925 31.867a3.959 3.959 0 0 0 2.69 5.422 15.244 15.244 0 0 1 11.528 17.611c-1.112 5.6-1.648 13.108 4.122 21.435 6.666 9.618 20.267 18.135 40.459 25.346.256-.515.525-1.037.8-1.561 1.362-2.638 3.343-6.221 5.888-10.65.982-1.709 1.975-3.417 2.924-5.035-6.706 1.783-11.249 2.373-13.126-1.531-2.175-4.521 2.89-7.764 6.241-9.915z"/><ellipse cx="329.979" cy="254.88" rx="16.706" ry="16.643"/><path d="m388.389 309.284a12.2 12.2 0 0 1 6.5.381c-2.721-4.728-5.886-10.074-8.933-15.091a4.5 4.5 0 0 1 5.29-6.6c.969.328 1.98.659 3 .984-11.307-14.973-14.766-41.541-15.179-45.042a4.483 4.483 0 0 1 -.017-.882c2.035-25.7-5.317-45.54-21.852-58.96-14.246-11.562-32.8-16.285-45.857-18.211a25.342 25.342 0 0 1 -10.85-4.169c-11.976-8.3-27.636-4.03-27.793-3.985a4.507 4.507 0 0 1 -5.707-4.778c.636-6.338 7.75-13.976 14.98-20.209-11.357 4-19.781 12.062-25.506 17.536-4.643 4.44-7.441 7.124-11.127 5.783-1.193-.433-3.254-1.678-3.642-5.148a24.279 24.279 0 0 1 1.634-11.231c-13.985 5.687-20.03 21.085-20.1 21.271a4.558 4.558 0 0 1 -4.309 2.893c-.456-.019-45.084-.672-69.816 25.517-12.5 13.241-17.947 31.306-16.174 53.691a4.561 4.561 0 0 1 -.018.882c-.413 3.5-3.871 30.069-15.179 45.042 1.021-.325 2.032-.656 3-.984a4.5 4.5 0 0 1 5.293 6.593c-3.042 5.025-6.2 10.378-8.914 15.111a12.116 12.116 0 0 1 6.476-.4 4.5 4.5 0 0 1 2.495 6.933c-.123.175-10.314 14.939-8.078 27.095l.289-.575a4.5 4.5 0 0 1 8.432 1.118c.284 1.311 7.707 32.671 60.212 26.711.444-.046 4.536-.442 10.89-.442 10.427 0 26.947 1.067 43.455 6.509a42.2 42.2 0 0 0 29.417 0 135.317 135.317 0 0 1 54.411-6.057c52.444 5.967 59.857-25.408 60.148-26.746a4.506 4.506 0 0 1 8.425-1.091l.3.6c2.283-12.181-7.961-26.936-8.087-27.115a4.5 4.5 0 0 1 2.492-6.932zm-206.389-28.761a25.643 25.643 0 1 1 25.706-25.643 25.7 25.7 0 0 1 -25.706 25.643zm121.33 68.027a66.328 66.328 0 0 1 -44.508 17.75q-.457 0-.873-.008c-1.3-.022-2.617-.022-3.915 0a66.124 66.124 0 0 1 -45.385-17.746c-19.786-18.186-5.993-46.778 4.812-60.443.022-.707.044-1.408.067-2.139q.088-2.711.176-5.656c.654-22.444 9.685-33.663 17.146-39.123a34.72 34.72 0 0 1 20.691-6.547h8.9a34.724 34.724 0 0 1 20.693 6.548c7.46 5.459 16.49 16.678 17.144 39.122q.087 2.947.176 5.656c.024.731.045 1.432.067 2.139 10.805 13.669 24.598 42.261 4.812 60.447zm26.647-68.027a25.643 25.643 0 1 1 25.7-25.643 25.7 25.7 0 0 1 -25.697 25.643z"/><path d="m468.554 164.361h6.546c-22.843-19.985-45.93-29.262-68.746-27.638-29.2 2.1-50.53 21.824-58.734 30.707a80.857 80.857 0 0 1 15.252 9.656c.314.255.617.517.925.775 9.271-5.019 38.709-18.926 66.271-10.179 16.926 5.37 29.86 18.233 38.442 38.233a6.065 6.065 0 0 1 -5.1 8.418l12.842 29.39a12.959 12.959 0 0 1 -8.764 17.761 6.442 6.442 0 0 0 -4.854 7.245 38.523 38.523 0 0 1 -6.619 29.088c-8.557 12.224-24.587 22.015-47.634 29.109-1.348.636-3.608.928-6.284-1.827-.919-.945-1.789-1.764-2.61-2.475a48.18 48.18 0 0 1 3.727 14.662c35.567.972 60.782-8.042 74.984-26.825 25.679-33.959 7.428-89.505 7.241-90.063a4.5 4.5 0 0 1 5.688-5.7 27.024 27.024 0 0 1 8.95 5.392c-5.6-18.9-25.892-32.438-26.142-32.6a4.5 4.5 0 0 1 3.82-8.054l2.226.7a96.993 96.993 0 0 0 -13.226-7.145 4.5 4.5 0 0 1 1.8-8.623z"/><path d="m264.314 338.694a34.263 34.263 0 0 1 -16.644 0c-15.224-3.827-25.656-8.025-30.622-17.106-2.451-4.483-3.432-9.693-3.727-16.4-5.537 10.774-10.044 26.2 1.418 36.732a58.145 58.145 0 0 0 39.14 15.375c1.4-.026 2.824-.026 4.226 0a57.979 57.979 0 0 0 39.138-15.375c11.462-10.535 6.956-25.957 1.418-36.732-.3 6.7-1.275 11.914-3.726 16.4-4.966 9.081-15.399 13.279-30.621 17.106z"/><path d="m406.474 288.449c3.351 2.148 8.417 5.394 6.243 9.915-1.875 3.9-6.411 3.317-13.1 1.537.948 1.612 1.941 3.313 2.922 5.014 2.552 4.427 4.539 8.007 5.9 10.643.286.55.567 1.1.836 1.634 32.515-10.773 47.886-26.955 44.481-46.953a15.48 15.48 0 0 1 11.553-17.488 3.934 3.934 0 0 0 2.614-2.1 3.888 3.888 0 0 0 .076-3.32l-13.925-31.871a7.474 7.474 0 0 1 1.651-8.412 7.58 7.58 0 0 1 2.632-1.675c-7.418-15.132-17.822-24.91-30.974-29.1-14.786-4.706-30.681-1.555-41.412 1.916a111.856 111.856 0 0 0 -15.309 6.268c13.381 14.78 19.23 34.514 17.4 58.833 1.306 10.498 6.977 37.831 18.412 45.159z"/></svg>