<svg id="Layer_1" height="512" viewBox="0 0 512 512" width="512" xmlns="http://www.w3.org/2000/svg" data-name="Layer 1"><path d="m158.777 220.721c-12.436-3.921-25.928 3.591-30.077 6.818a30.257 30.257 0 0 1 -4.02 2.638c4.442 7.343 15.377 22.194 31.169 22.194h.44c9.77-.155 18.474 2.111 25.037 6.305a63.942 63.942 0 0 0 -2.521-12.792c-4.272-13.856-11.005-22.32-20.028-25.163z"/><path d="m353.223 220.721c-9.018 2.843-15.756 11.307-20.028 25.159a63.966 63.966 0 0 0 -2.52 12.786c6.562-4.2 15.266-6.466 25.036-6.3h.44c15.794 0 26.728-14.851 31.169-22.194a30.223 30.223 0 0 1 -4.02-2.638c-4.149-3.22-17.64-10.734-30.077-6.813z"/><path d="m258.89 410.739c-21.392 10.512-40.5 15.794-57.15 15.794a74.062 74.062 0 0 1 -7.54-.384c2.153 6.482 7.958 17.358 23.574 26.339 23.482 13.5 52.971 13.306 76.957-.517 15.256-8.791 21.4-19.257 23.837-25.519-1.056.046-2.121.077-3.2.077-16.219 0-35.101-5.279-56.478-15.79z"/><path d="m244.806 387.009c-.271 8.449 5.756 12.753 11 13.873 5.385 1.15 12.829-.358 16.115-8.38a38.644 38.644 0 0 0 2.6-8.135 4.5 4.5 0 0 1 3.173-4.876q18.153-5.436 28.421-13.342c-1.8-3.627-5.8-9.83-12.759-11.931-8.374-2.523-19.036 1.247-31.676 11.219a4.5 4.5 0 0 1 -6.06-.444c-8.833-9.356-17.252-13.56-25.011-12.464-8.632 1.206-14.819 8.563-17.689 12.743q9.7 8.033 27.551 13.645a6.453 6.453 0 0 1 4.366 7.627 4.312 4.312 0 0 0 -.031.465z"/><path d="m452.185 124.839a13.764 13.764 0 0 0 -4.593-.861c-5.139 0-9.111 3.648-11.843 10.9-.026.069-.054.136-.083.2l-3.875 8.929a32.912 32.912 0 0 0 2.137 30.248 203.852 203.852 0 0 1 11.032 20.614c6.765-3.43 20.893-12.5 26.894-30.614 5.315-16.032-8.1-35.321-19.669-39.416z"/><path d="m450.894 50.512c-17.786-3.739-39 3.29-54.063 17.921-1.021.992-2.036 1.948-3.049 2.888-4.92 6.05-6.985 14.6-7.837 21.155a78.8 78.8 0 0 0 -.461 15.7 4.5 4.5 0 0 1 -4.052 4.907c-.145.013-.289.02-.432.02a4.5 4.5 0 0 1 -4.475-4.073 85.427 85.427 0 0 1 1.863-25.193c-16.69 11.578-32.219 15.614-46.342 11.985-55.111-14.163-82.356-15.776-135.062 2.554-13.86 4.82-29.764 2.978-47.275-5.474a124.689 124.689 0 0 1 -17.729-10.567c4.37 15.674 3.312 31.729 3.242 32.707a4.5 4.5 0 0 1 -4.484 4.176c-.108 0-.217 0-.328-.011a4.5 4.5 0 0 1 -4.165-4.812c.032-.465 2.015-31.417-11.194-46.073-15.051-14.554-36.205-21.543-53.946-17.809-18 3.79-32.514 18.125-41.962 41.455-11.643 28.754-11.582 61.032.178 90.89 9.96 25.285 22.216 39.51 37.363 43.333a174.015 174.015 0 0 1 7.544-23.43 61.01 61.01 0 0 1 -31.569-35.672c-6.679-20.154 8.281-44.743 25.211-50.735 4.571-1.618 20.082-5.288 27.859 15.349a63.2 63.2 0 0 1 -3.343 53.634c-14.175 26.005-28.5 65.674-16.232 106.975 9.505 32 33.733 59.781 72.067 82.7a86.337 86.337 0 0 1 -3.129-14.32 4.5 4.5 0 0 1 8.946-.977c.041.367 4.4 36.9 31.487 51.59 17.81 9.656 41.6 8.071 70.836-4.667a21.753 21.753 0 0 1 -10.555-19.768c-22.584-7.428-36.487-18.233-41.341-32.133-6.67-19.1 5.845-37.584 9.958-43.657 5.456-8.057 11.312-40.368 13.109-52.138a4.5 4.5 0 0 1 8.9 1.357c-.693 4.538-6.983 44.648-14.555 55.828-3.485 5.146-14.092 20.809-8.912 35.642a26.773 26.773 0 0 0 3.65 6.864c4.124-5.522 11.831-13.5 22.75-15.02 9.888-1.373 19.937 2.764 29.946 12.324 13.824-10.072 26.173-13.537 36.739-10.308 8.607 2.632 13.893 9.1 16.817 14.079a28.393 28.393 0 0 0 4.828-8.414c3.59-10.078.858-21.91-8.122-35.167-7.576-11.187-14.218-54.565-14.952-59.474a4.5 4.5 0 0 1 8.9-1.328c2.755 18.469 8.626 48.558 13.5 55.755 7.339 10.836 14.884 27.133 9.148 43.234-5.1 14.322-19.577 25.387-43.043 32.912a53.171 53.171 0 0 1 -2.878 8.685 22.641 22.641 0 0 1 -8.762 10.765c29.137 12.732 52.322 14.286 69.013 4.582 25.293-14.709 27.422-50.918 27.44-51.282a4.5 4.5 0 0 1 8.989.459 85.94 85.94 0 0 1 -2.272 14.237c39.681-23.479 64.291-52.025 73.189-84.974 12.3-45.534-8.253-88.931-21.6-110.746a41.921 41.921 0 0 1 -2.715-38.528l3.832-8.83c7.791-20.521 23.259-16.856 27.821-15.242 16.93 5.993 31.888 30.582 25.209 50.736-7.189 21.7-23.837 32.158-31.833 36.072a174.331 174.331 0 0 1 7.6 23.062c14.846-3.676 26.235-17.27 36.515-43.366 11.76-29.856 11.823-62.136.178-90.89-9.443-23.328-23.952-37.666-41.958-41.454zm-264.743 234.925a4.5 4.5 0 0 1 -4.5-4.5v-9.993c-4.607-6.213-13.9-9.778-25.2-9.581-.206 0-.415.006-.619.006-21.6 0-35.091-19.828-39.732-28a33.636 33.636 0 0 1 -11.93.524 4.5 4.5 0 0 1 1.516-8.871c.216.032 9.726 1.445 17.5-4.593 6.447-5.013 22.751-13.2 38.306-8.3 12.006 3.786 20.727 14.246 25.921 31.09a74.431 74.431 0 0 1 3.24 21.945v15.763a4.5 4.5 0 0 1 -4.502 4.51zm42.767-53.388a4.5 4.5 0 0 1 -4.451 3.882 4.405 4.405 0 0 1 -.624-.044 4.5 4.5 0 0 1 -3.843-5.075c2.7-19.457-8.954-25.988-9.072-26.051a4.5 4.5 0 1 1 4.275-7.92c.71.381 17.26 9.631 13.715 35.208zm84.163-27.307c-.563.321-11.751 6.987-9.106 26.07a4.5 4.5 0 0 1 -3.839 5.075 4.405 4.405 0 0 1 -.624.044 4.5 4.5 0 0 1 -4.452-3.882c-3.544-25.577 13-34.827 13.712-35.208a4.5 4.5 0 0 1 4.309 7.9zm94.753 29.158a33.718 33.718 0 0 1 -11.93-.524c-4.642 8.168-18.135 28-39.732 28-.206 0-.411 0-.619-.006-11.286-.178-20.593 3.369-25.2 9.582v9.992a4.5 4.5 0 0 1 -4.5 4.5 4.5 4.5 0 0 1 -4.5-4.5v-15.764a74.429 74.429 0 0 1 3.24-21.944c5.194-16.844 13.915-27.3 25.921-31.09 15.554-4.9 31.859 3.283 38.307 8.3 7.819 6.079 17.4 4.608 17.5 4.593a4.5 4.5 0 0 1 1.513 8.871z"/><path d="m77.335 134.947c-2.755-7.308-6.733-10.968-11.875-10.968a13.743 13.743 0 0 0 -4.586.86c-11.57 4.094-24.985 23.383-19.672 39.42 6.013 18.142 19.875 26.911 26.57 30.208 2.173-4.785 4.444-9.278 6.711-13.437a54.268 54.268 0 0 0 2.852-46.083z"/></svg>