<svg id="Layer_1" height="512" viewBox="0 0 512 512" width="512" xmlns="http://www.w3.org/2000/svg" data-name="Layer 1"><path d="m281.486 339.109.6-.489c3.444-2.831 6.715-5.5 11.571-5.378.473.012.938.046 1.4.1-6.022-5.4-17.734-7.441-34.115-5.906a100.938 100.938 0 0 1 -18.842-.013c-15.954-1.506-26.671.569-30.172 5.84a8.1 8.1 0 0 0 -1.061 2.417 14.986 14.986 0 0 1 7.9-2.436 14.367 14.367 0 0 1 13.108 6.921c4.955 7.733 17.228 21.044 23.314 27.483 5.692-7.078 17.662-21.47 26.297-28.539z"/><path d="m240.635 423.9a4.564 4.564 0 0 1 .373.562c2.1 2.9 8.564 8.639 13.7 11.621a1.419 1.419 0 0 0 1.46 0c6.287-3.865 13.187-9.324 15.345-12.026a4.274 4.274 0 0 1 .3-.392 3.382 3.382 0 0 0 .269-.446c.157-.779-.046-1.022-.211-1.22-2.175-2.6-11.406-3.564-17.225-3.266h-.088a4.74 4.74 0 0 1 -.478-.008c-.519-.029-1.074-.044-1.651-.044-4.421 0-10.212.864-11.85 2.81-.179.211-.511.606-.221 1.85a3.017 3.017 0 0 0 .277.559z"/><path d="m139.845 172.52c-13.492-22.272-28.86-57.776-33.44-108.176a332.74 332.74 0 0 0 -3.875 50.714c.153 26.859 4.224 50.118 12.1 69.131 7.489 18.079 18.5 32.328 32.81 42.563a80.266 80.266 0 0 1 23.567-15.759c-7.13-6.352-19.207-18.744-31.162-38.473z"/><path d="m276.831 431.5c-5.463 5.71-14.579 11.411-15.944 12.249a10.35 10.35 0 0 1 -5.431 1.537 10.471 10.471 0 0 1 -5.259-1.419 70.1 70.1 0 0 1 -14.85-12.178 114.514 114.514 0 0 1 -23.288 2.73c-7.922 0-15.492-1.2-21.706-4.346a46.737 46.737 0 0 0 12.234 20.31c11.351 10.882 28.539 15.949 51.1 15.047 1.024-.041 2.062-.041 3.087 0 23.034.912 40.54-4.159 52.014-15.108a45.515 45.515 0 0 0 12.062-19.822c-5.973 2.713-13.068 3.779-20.484 3.779a114.966 114.966 0 0 1 -23.535-2.779z"/><path d="m397.824 184.1c7.871-19.041 11.93-42.334 12.066-69.231a332.992 332.992 0 0 0 -3.872-50.529c-4.575 50.536-19.946 86.4-33.438 108.974-12.074 20.2-24.271 32.907-31.361 39.348a101.2 101.2 0 0 1 23.475 14.288c14.469-10.262 25.591-24.607 33.13-42.85z"/><path d="m147.532 237.636c-18.334-11.38-32.2-28.176-41.255-50.095-8.317-20.123-12.607-44.556-12.748-72.624-.227-44.91 10.09-83.988 11.6-89.473.079-8.172-2.146-13.822-5.867-14.786-3.344-.865-8.77 2.113-12.666 9.491-1.149 2.177-2.739 4.964-4.753 8.493-15.931 27.931-58.258 102.121-33.464 155.089 13.369 28.558 44.7 47.533 93.1 56.421 2.055-.952 4.088-1.788 6.053-2.516z"/><path d="m367.431 283.561c-10.259-2.434-20.882 1.219-28.185 4.857 5.562 8.527 16.9 21.688 28.132 18.884 10.558-2.639 18.812-13.4 23.612-21.316-7.643.781-15.956-.62-23.559-2.425z"/><path d="m425.82 20.149c-3.895-7.378-9.324-10.365-12.666-9.491-3.722.964-5.947 6.613-5.868 14.785 1.513 5.483 11.831 44.563 11.6 89.474-.141 28.068-4.43 52.5-12.749 72.624-9.092 22-23.018 38.838-41.45 50.219 1.815.7 3.69 1.485 5.586 2.378 48.452-8.909 79.833-27.931 93.263-56.562 24.908-53.1-17.246-127.256-33.115-155.173-1.942-3.424-3.479-6.129-4.601-8.254z"/><path d="m380.54 323.493c11.942-10.158 14.682-20.364 14.691-27.589-5.872 8.269-14.563 17.352-25.669 20.129a22.413 22.413 0 0 1 -5.459.678c-15.4 0-27.6-15.989-32.627-23.77-.942.64-1.477 1.045-1.509 1.069a4.5 4.5 0 0 1 -5.492-7.129c.923-.711 22.842-17.348 45.034-12.076 9.044 2.146 16.063 2.9 21.516 2.166-2.127-11.89-9.821-21.271-22.96-27.9a78.321 78.321 0 0 0 -22.765-7.189 4.5 4.5 0 0 1 1.083-8.934c.223.027 2.646.33 6.352 1.182q1.966-.986 3.869-2.053a95.775 95.775 0 0 0 -19.604-11.333c-20.254-8.715-41.524-10.053-63.226-3.98a81.836 81.836 0 0 1 -44.339-.15c-39.74-11.237-65.1 6.82-74.186 15.133q2.142 1.222 4.366 2.342c3.767-.832 6.229-1.122 6.456-1.148a4.5 4.5 0 0 1 1.018 8.942 80.343 80.343 0 0 0 -23.165 7.075c-13.4 6.586-21.219 15.963-23.334 27.892 5.563.931 12.828.21 22.323-2.045 22.182-5.275 44.113 11.364 45.035 12.076a4.5 4.5 0 0 1 -5.487 7.133c-.032-.024-.571-.43-1.517-1.069-5.029 7.781-17.231 23.766-32.625 23.766a22.413 22.413 0 0 1 -5.459-.678c-11.108-2.778-19.8-11.863-25.67-20.132.008 7.22 2.744 17.431 14.691 27.592a22.688 22.688 0 0 1 7.989 14.607c.749 6.395-1.578 9.672-4.04 13.143-3.677 5.18-9.832 13.851-11.433 45.856-.763 15.245 7.4 75.788 41.875 96.924 20.04 12.287 46.09 9.4 77.43-8.583a22.359 22.359 0 0 1 22.217-.065c31.647 18.175 58.138 20.989 78.736 8.367 18.991-11.637 29.637-34.31 35.224-51.28 6.83-20.744 8.435-39.52 8.143-45.363-1.6-32-7.756-40.676-11.433-45.857-2.462-3.47-4.789-6.747-4.041-13.142a22.691 22.691 0 0 1 7.992-14.607zm-46.928 95.252a26.119 26.119 0 0 1 -1.983 3.139 55.273 55.273 0 0 1 -16.629 34.949c-12.322 11.759-30.139 17.7-53.014 17.7q-2.739 0-5.573-.115c-.785-.031-1.583-.031-2.369 0-25.171 1.01-44.615-4.937-57.8-17.653-14.656-14.134-16.638-32.019-16.9-36.993-.177-.306-.369-.595-.537-.912-7.627-14.439-.675-34.006 5.654-39.849 5.645-5.214.356-11.313-.265-11.992a4.5 4.5 0 1 1 6.635-6.08c4.876 5.321 8.829 16.286-.265 24.683-3.71 3.426-9.251 18.715-3.8 29.034 5.5 10.4 20.845 13.372 44.524 8.682a10.372 10.372 0 0 1 2.424-7.656c.855-1.014 5.3-5.567 16.322-6l.922-33.435c-4.715-4.914-20.467-21.576-26.659-31.236a5.54 5.54 0 0 0 -5.3-2.781 5.752 5.752 0 0 0 -5.711 5 6.259 6.259 0 0 0 3.891 7.149 28.708 28.708 0 0 0 3.843 1.2 4.5 4.5 0 1 1 -2.123 8.746 37.6 37.6 0 0 1 -5.057-1.59 15.02 15.02 0 0 1 -9.619-12.848c-1.483-3.2-5.322-13.217.164-21.553 5.558-8.444 18.528-11.762 38.554-9.881a91.713 91.713 0 0 0 17.155.013c21.184-1.984 35.752 1.566 43.3 10.555 6.845 8.15 5.363 17.817 4.83 20.313a15.018 15.018 0 0 1 -9.649 13.4 37.462 37.462 0 0 1 -5.057 1.591 4.5 4.5 0 1 1 -2.123-8.746 28.6 28.6 0 0 0 3.842-1.2 6.258 6.258 0 0 0 3.892-7.149 5.753 5.753 0 0 0 -5.712-5c-1.38-.009-2.644.886-5.623 3.335l-.61.5c-9.278 7.594-23.536 25.356-27.227 30.028l-.927 33.61c6 .2 15.437 1.369 19.742 6.512a9.914 9.914 0 0 1 2.343 6.979c23.694 4.691 39.048 1.726 44.536-8.663 5.426-10.27-.1-25.5-3.8-28.913-9.094-8.4-5.141-19.362-.265-24.683a4.5 4.5 0 1 1 6.635 6.08c-.983 1.1-5.71 6.963-.265 11.992 6.317 5.837 13.255 25.349 5.654 39.738z"/><path d="m145.04 307.3c11.221 2.8 22.554-10.341 28.123-18.87-7.32-3.638-17.956-7.3-28.176-4.871-7.6 1.8-15.9 3.205-23.543 2.427 4.813 7.921 13.075 18.686 23.596 21.314z"/></svg>