<svg id="Layer_1" height="512" viewBox="0 0 512 512" width="512" xmlns="http://www.w3.org/2000/svg" data-name="Layer 1"><path d="m254.03 498.528h.813a74.471 74.471 0 0 0 56.477-26.055c12.952-15.036 20.237-32.506 24.318-46.681-10.657 10.653-28.675 21.88-59.141 29.242a87.278 87.278 0 0 1 -40.8.006c-31.518-7.608-49.75-19.315-60.3-30.26 3.609 14.129 10.347 31.77 22.909 47.016a73.107 73.107 0 0 0 55.724 26.732z"/><path d="m284.292 286.658a15.561 15.561 0 0 0 1.974-8.584 52.576 52.576 0 0 1 -10.355 4.822c-.766.591-3.375 3.195-1.953 10.1 4.948-1.105 8.419-3.225 10.334-6.338z"/><path d="m238.042 292.993c1.422-6.9-1.187-9.506-1.953-10.1a52.637 52.637 0 0 1 -10.361-4.825 15.522 15.522 0 0 0 2 8.621c1.92 3.098 5.384 5.211 10.314 6.304z"/><path d="m183.217 182.911-6.567 4.926a21.608 21.608 0 0 0 9.716 7.606c5.958 2.313 13.17 2.029 21.495-.828l-7.612-8.889a13.312 13.312 0 0 0 -17.032-2.815z"/><path d="m185.245 387.857c2.391 1.244 8.739 4.548 11.177 5.122 5.585 1.315 10.3.034 16.819-1.737 3.115-.846 6.53-1.77 10.435-2.514 5.554-8.52 3.677-25.619 2.4-31.808a5 5 0 0 1 9.793-2.022 89.607 89.607 0 0 1 1.548 15.317 53.679 53.679 0 0 1 -2.182 17.158 90.674 90.674 0 0 1 11.65.237 104.743 104.743 0 0 0 17.272 0 91.551 91.551 0 0 1 12.7-.2 54.425 54.425 0 0 1 -2.207-17.115 90.878 90.878 0 0 1 1.48-15.376 5 5 0 0 1 9.806 1.964c-1.243 6.241-3.033 23.473 2.524 31.984 3.66.714 6.911 1.568 9.893 2.356 6.748 1.781 11.623 3.069 17.227 1.75 2.439-.574 8.787-3.878 11.177-5.122a24.147 24.147 0 0 1 17.432-1.414c10.6-29.584 9.7-57.984-2.706-84.445-12.792-27.286-34.846-45.65-46.854-54.169a103.184 103.184 0 0 0 -34.96-16.252 16.473 16.473 0 0 0 -7.331 0 103.179 103.179 0 0 0 -34.962 16.252c-12 8.512-34.034 26.86-46.831 54.12-12.428 26.474-13.337 54.892-2.727 84.5a24.142 24.142 0 0 1 17.427 1.414zm31.57-122.457c-.321-5.6 3.04-11.137 9.987-16.456a59.434 59.434 0 0 1 9.3-5.782 5 5 0 1 1 4.334 9.011c-5.86 2.836-13.866 8.815-13.641 12.659.123 2.1 3.632 5.517 13.113 8.807a4.915 4.915 0 0 1 .585.245c.528.263 12.848 6.648 5.859 26.4-2.472 6.987-2.855 12.385-1.05 14.808 1.689 2.269 5.883 2.553 9.11 2.4 1.051-.053 2.118-.052 3.167 0 3.226.16 7.422-.126 9.111-2.4 1.805-2.423 1.422-7.821-1.05-14.808-6.989-19.752 5.331-26.137 5.859-26.4a4.915 4.915 0 0 1 .585-.245c9.481-3.29 12.99-6.706 13.113-8.807.145-2.47-4.517-8.243-13.647-12.661a5 5 0 0 1 4.34-9.009c3.341 1.607 19.978 10.233 19.291 22.238a12.943 12.943 0 0 1 -.465 2.765c1.257 4.311 3.481 14.963-1.91 23.73-3.3 5.365-8.687 8.95-16.046 10.711 1.891 7.891 1.208 14.085-2.049 18.459-3.471 4.661-9.4 6.822-17.625 6.411-.723-.036-1.456-.036-2.181 0q-.979.048-1.917.048c-7.233 0-12.512-2.168-15.707-6.459-3.257-4.374-3.94-10.568-2.049-18.459-7.359-1.761-12.747-5.346-16.046-10.711-5.391-8.767-3.167-19.419-1.91-23.73a12.943 12.943 0 0 1 -.461-2.765z"/><path d="m51.649 170.884a60.205 60.205 0 0 0 .435 13.456c.761 4.835 2.152 8.64 4.146 11.413-.391-9.621-.367-19.265.189-28.774-1.657 1.371-3.258 2.68-4.77 3.905z"/><path d="m462.864 97.934c8.91-.552 17.21 4.076 23.613 9.281-.728-2.887-1.46-5.411-2.187-7.474-1.8-5.1-4.645-8.181-8.705-9.416-10.416-3.166-26.958 5.621-35.646 11.341q1.83 3.663 3.419 7.478c5.628-6.988 12.161-10.757 19.506-11.21z"/><path d="m325.779 195.386a21.755 21.755 0 0 0 9.56-7.557l-6.556-4.918a13.314 13.314 0 0 0 -17.032 2.815l-7.612 8.89c8.392 2.884 15.653 3.146 21.64.77z"/><path d="m49.136 97.934c7.345.453 13.878 4.222 19.506 11.21q1.595-3.81 3.419-7.479c-8.686-5.719-25.225-14.506-35.646-11.34-4.06 1.235-6.906 4.314-8.7 9.416-.728 2.064-1.461 4.592-2.189 7.484 6.399-5.207 14.701-9.838 23.61-9.291z"/><path d="m65.586 267.907a486.574 486.574 0 0 1 -8.557-58.82c-12.117-5.528-15.055-19.877-15.506-30.161-.826.642-1.3 1-1.321 1.021a5 5 0 1 1 -6.078-7.941c.123-.094 11.922-9.14 23.546-19.17a183.608 183.608 0 0 1 4.939-25.936 5.068 5.068 0 0 1 -.742.616c-.517.352-32.535 22.422-34.469 51.386-1 15 6.319 29.606 21.755 43.416a5.136 5.136 0 0 1 .68 7.01 5 5 0 0 1 -7.2.573c-17.964-16.018-26.445-33.418-25.206-51.714 2.3-33.954 37.363-57.959 38.855-58.964a4.971 4.971 0 0 1 7.656 3.031c.162-.533.331-1.062.5-1.592-4.737-8.095-10.084-12.382-15.913-12.742-10.183-.62-21.086 10.3-25.967 16.42a4.936 4.936 0 0 0 -1.008 2.243c-3.515 20.136-6.5 45.1-7.778 61.563a98.816 98.816 0 0 0 6.028 42.937c9.32 24.2 24.708 36.558 45.786 36.824z"/><path d="m463.465 107.916c-5.824.366-11.165 4.653-15.9 12.741.167.53.336 1.059.5 1.592a4.971 4.971 0 0 1 7.656-3.031c1.492 1 36.556 25.01 38.855 58.964 1.239 18.3-7.242 35.7-25.206 51.714a5 5 0 0 1 -7.2-.571 5.137 5.137 0 0 1 .679-7.013c15.449-13.822 22.767-28.441 21.751-43.455-1.972-29.125-34.142-51.127-34.466-51.346a5.068 5.068 0 0 1 -.742-.616 183.725 183.725 0 0 1 4.938 25.931 295.909 295.909 0 0 0 25.413 18.974 5 5 0 1 1 -5.482 8.363c-.164-.107-1.306-.859-3.117-2.1-.582 10.3-3.678 25.344-16.173 31.028a486.767 486.767 0 0 1 -8.557 58.818c21.073-.267 36.466-12.624 45.786-36.824a98.816 98.816 0 0 0 6.033-42.942c-1.281-16.46-4.261-41.417-7.775-61.55a4.936 4.936 0 0 0 -1.017-2.253c-4.911-6.129-15.88-17.063-25.976-16.424z"/><path d="m261.2 414.6a59.668 59.668 0 0 1 -9.32 0 279.623 279.623 0 0 0 -36.3-.035c-1.916.091-3.745.176-5.51.248 6.9 5.275 20.064 11.455 43.638 10.911h.236c23.51.546 38.09-5.6 46.3-10.991q-1.73-.079-3.549-.169a268.211 268.211 0 0 0 -35.495.036z"/><path d="m211.588 239.673a113.575 113.575 0 0 1 38.471-17.834 26.6 26.6 0 0 1 11.883 0 113.551 113.551 0 0 1 38.47 17.833c22.12 15.692 39.92 36.318 50.123 58.08.267.57.521 1.142.779 1.714 41.337-70.466 52.611-123.513 32.535-153.731-17.823-26.824-54.464-27.525-60.937-26.555-51 7.663-79.881 5.892-133.624.027-8.709-.955-44.764.961-61.774 27.72-19.206 30.213-7.712 82.847 33.173 152.54.265-.59.527-1.18.8-1.768 10.213-21.74 28-42.347 50.101-58.026zm10.876-35.691a5 5 0 0 1 -7.05-.546l-.638-.744a52.715 52.715 0 0 1 -19.71 4.3 33.7 33.7 0 0 1 -12.534-2.315 31.713 31.713 0 0 1 -14.17-11.279 4.988 4.988 0 0 1 -3.94-8.892l12.951-9.717c.1-.072.2-.141.3-.207l.218-.138a23.368 23.368 0 0 1 29.957 4.774l15.165 17.711a5 5 0 0 1 -.549 7.053zm74.76-1.29-.638.744a5 5 0 0 1 -7.6-6.5l15.165-17.711a23.371 23.371 0 0 1 29.965-4.768l.21.132c.1.066.2.135.3.207l12.951 9.717a4.988 4.988 0 0 1 -3.94 8.892 31.713 31.713 0 0 1 -14.17 11.279 33.7 33.7 0 0 1 -12.533 2.316 52.715 52.715 0 0 1 -19.71-4.308zm67.128-.734a5 5 0 0 1 2.94 6.431c-.335.9-8.413 22.092-26.234 26.757a27.613 27.613 0 0 1 -7.012.9c-8.624 0-17.682-3.977-27.024-11.882a5 5 0 0 1 6.459-7.634c9.28 7.852 17.7 10.86 25.044 8.938 12.647-3.31 19.332-20.4 19.4-20.572a5 5 0 0 1 6.427-2.938zm-79.991-22.279c.269-.974 6.8-23.93 25.575-30.58 11.885-4.209 25.509-.9 40.5 9.826a5 5 0 1 1 -5.818 8.133c-12.16-8.7-22.692-11.573-31.3-8.546-13.857 4.873-19.263 23.647-19.316 23.836a5 5 0 0 1 -9.638-2.669zm-47.547 30.863a32.059 32.059 0 0 1 10.91-5.86c8.753-2.645 17.188-.477 23.762 6.106a5 5 0 1 1 -7.076 7.066c-9.26-9.271-19.886-.742-21.067.261a5 5 0 0 1 -6.529-7.573zm-75.25-51.617c14.99-10.726 28.617-14.033 40.5-9.826 18.779 6.65 25.306 29.606 25.575 30.58a5 5 0 0 1 -9.639 2.669c-.053-.189-5.459-18.963-19.316-23.836-8.61-3.029-19.143-.155-31.3 8.546a5 5 0 1 1 -5.818-8.133zm-16.856 49.464a5 5 0 0 1 9.367-3.5c.066.172 6.648 17.271 19.434 20.591 7.33 1.9 15.743-1.107 25.01-8.948a5 5 0 0 1 6.459 7.634c-9.341 7.9-18.4 11.882-27.024 11.882a27.618 27.618 0 0 1 -7.012-.9c-17.821-4.667-25.899-25.859-26.234-26.759z"/><path d="m312.856 404.939c5.01-.219 10.252-2.974 14.771-6.3a51.137 51.137 0 0 1 -9.758 4.07c-8.035 1.894-14.853.091-22.073-1.814-7.934-2.1-16.919-4.471-30.815-3.318a114.867 114.867 0 0 1 -18.924 0c-13.777-1.141-22.5 1.226-30.195 3.316-4.927 1.338-9.665 2.624-14.824 2.625a29.842 29.842 0 0 1 -6.908-.805 50.667 50.667 0 0 1 -9.677-4.03c4.51 3.306 9.725 6.04 14.691 6.257 4.368.19 9.742-.064 15.966-.357a288.236 288.236 0 0 1 37.557.053 49.781 49.781 0 0 0 7.752 0 276.484 276.484 0 0 1 36.763-.054c6.064.294 11.302.547 15.674.357z"/><path d="m238.048 445.323a77.258 77.258 0 0 0 36.1-.006c24.124-5.829 42.338-14.69 54.136-26.339 6.995-6.906 10.157-13.31 11.592-17.571-5.742 5.357-14.59 11.98-24.255 13.3-4.931 5.539-22.024 21.058-58.761 21.058-1 0-2.006-.011-3.033-.035-1.018.023-2.026.034-3.012.035-35.91 0-50.4-15.02-54.794-21.107-9.513-1.43-18.2-7.94-23.874-13.227 3.374 9.775 16.372 31.937 65.901 43.892z"/><path d="m67.264 156.546c-6.611 61.112 12.854 132.4 21.494 164.025 1.634 5.979 2.813 10.3 3.434 13.138.254 1.086 26.043 108.837 85.029 124.156a147.227 147.227 0 0 1 -15.938-58.486l-.028-.156a39.637 39.637 0 0 0 -2.049-7.193c-10.516-27.981-11.548-55.075-3.12-80.744-46.843-77.541-59.309-134.645-37.011-169.724 19.447-30.593 58.974-33.64 71.3-32.3 54.007 5.9 80.984 7.549 131.052.027 9.067-1.361 50.124-.138 70.752 30.909 23.323 35.106 11.107 92.667-36.265 171.085 8.444 25.716 7.394 52.861-3.176 80.895a38.412 38.412 0 0 0 -1.993 7.049c-.012.069-.026.144-.039.216a150.3 150.3 0 0 1 -17.322 58.493c58.563-15.429 85.711-121.393 86.439-124.3.626-2.84 1.8-7.138 3.42-13.067 8.64-31.629 28.1-102.913 21.494-164.025a5 5 0 0 1 -.134-1.225c-2.188-19.166-6.972-37.295-15.509-52.836-13.5-24.57-38.873-46.57-75.422-65.39a213.754 213.754 0 0 0 -195.406.017c-36.51 18.815-61.865 40.81-75.358 65.373-8.537 15.541-13.321 33.67-15.509 52.836a5 5 0 0 1 -.135 1.227z"/><path d="m460.38 184.216a60.8 60.8 0 0 0 .808-13.242c-1.8-1.33-3.691-2.761-5.624-4.266a291.35 291.35 0 0 1 .2 29.209c2.153-2.81 3.701-6.711 4.616-11.701z"/></svg>