<svg id="Layer_1" height="512" viewBox="0 0 512 512" width="512" xmlns="http://www.w3.org/2000/svg" data-name="Layer 1"><path d="m256 427.21a20.3 20.3 0 0 1 7.078-12.62c-1.349-11.467 1.231-20.874 7.7-27.982 9.9-10.881 26.311-13.219 35.53-13.625a42.062 42.062 0 0 0 -5.409-8.18c-10.227-12.34-25.25-20.16-36.052-24.549a24.629 24.629 0 0 0 -9.28-1.829 24.3 24.3 0 0 0 -9.492 1.936c-10.343 4.382-24.805 12.178-34.97 24.442a42.665 42.665 0 0 0 -5.178 7.728c8.879-.12 23.818 1.331 33.9 11.077 7.692 7.438 11.023 18.1 9.925 31.724a20.2 20.2 0 0 1 6.248 11.878z"/><path d="m203.056 381.654a18.842 18.842 0 0 0 1.362 9.378c3.776 8.972 14.621 15.912 26.372 16.877a38.724 38.724 0 0 1 10.158 2.123c-.081-8.571-2.54-15.26-7.356-19.93-8.956-8.685-24.013-8.844-30.536-8.448z"/><path d="m217.83 457.224a63.9 63.9 0 0 0 11.243 4.541 90.894 90.894 0 0 0 53.227.235 63.181 63.181 0 0 0 11.8-4.762 103.41 103.41 0 0 1 -24.745-5.527 19.925 19.925 0 0 1 -13.355-17.294 19.927 19.927 0 0 1 -13.364 17.29 103.293 103.293 0 0 1 -24.806 5.517z"/><path d="m281.21 407.909c11.751-.965 22.6-7.9 26.372-16.877a18.819 18.819 0 0 0 1.383-9.109c-7.053.089-23.036 1.385-31.55 10.762-3.935 4.335-5.824 10.075-5.664 17.1a39.407 39.407 0 0 1 9.459-1.876z"/><path d="m202.832 456.79a47.414 47.414 0 0 1 -11.809-3.423c10 17.892 30.576 45.4 63.457 48.1a8.713 8.713 0 0 0 1.761-.031c30.8-3.676 52.2-29.85 63.3-47.468a47.888 47.888 0 0 1 -10.457 2.84c-2.607 3.251-9.164 9.265-24.183 13.8a99.425 99.425 0 0 1 -28.773 4.257 100.74 100.74 0 0 1 -29.711-4.5c-14.817-4.565-21.069-10.29-23.585-13.575z"/><path d="m125.238 51.086-1.6-.9a49.846 49.846 0 0 0 -45.224-1.815c-25.627 11.829-31.861 26.247-33.296 33.786-1.932 10.147-1.683 23.112.565 29.517 5.387 15.352 30.855 34.589 44.08 43.313a198.45 198.45 0 0 1 15.175-21.54 176.092 176.092 0 0 1 47.8-41.361l-4.905-14.042a49.85 49.85 0 0 0 -22.595-26.958z"/><path d="m160.723 87.668q3.556-1.844 7.215-3.529c-5.749-20.334-27.645-58.825-59.843-70.363-19.89-7.128-40.231-2.5-60.461 13.748-23.885 19.187-34.334 41.464-31.065 66.214 3.7 28 25.105 51.981 38.484 57.857a119 119 0 0 1 27.128 16.838c.976-1.884 2-3.775 3.049-5.667-10.653-7.007-41.123-28.4-48.04-48.111-3.159-9-2.85-24.007-.914-34.181 4.097-21.522 25.797-34.474 38.368-40.274a58.861 58.861 0 0 1 53.41 2.143l1.6.9a58.847 58.847 0 0 1 26.669 31.827z"/><path d="m323.765 269.789c-5.3 0-9.615 4.787-9.615 10.671s4.313 10.67 9.615 10.67 9.614-4.786 9.614-10.67-4.313-10.671-9.614-10.671z"/><path d="m204.761 271.444a30.955 30.955 0 0 0 -.146-9.883c-2.59-14.557-9.38-23.83-20.18-27.564a17.69 17.69 0 0 0 -5.745-1.083 10.525 10.525 0 0 0 -4.994 1.191c-4.178 2.2-7.587 7.731-9.856 15.991a37.161 37.161 0 0 1 -27.289 26.526c-12.178 2.834-20.111 10.625-23.576 23.157a46.846 46.846 0 0 0 6.268 39.067 42.35 42.35 0 0 0 31.167 18.522 12.219 12.219 0 0 0 13.352-10.326c2.851-19.017 12.295-35.025 22.116-47.088-9.152-1.23-16.257-9.494-16.257-19.494 0-10.847 8.351-19.671 18.614-19.671a18.534 18.534 0 0 1 16.526 10.655z"/><path d="m178.621 280.46c0 5.884 4.313 10.67 9.614 10.67s9.615-4.786 9.615-10.67-4.313-10.671-9.615-10.671-9.614 4.787-9.614 10.671z"/><path d="m406.83 132.38a198.033 198.033 0 0 1 15.909 22.377c3.978-2.653 10.588-7.249 17.507-12.862 14.147-11.479 23.161-21.929 26.071-30.221 2.248-6.405 2.5-19.37.565-29.516-1.435-7.54-7.669-21.955-33.3-33.787a49.845 49.845 0 0 0 -45.225 1.815l-1.6.9a49.855 49.855 0 0 0 -22.593 26.963l-4.811 13.72a175.849 175.849 0 0 1 47.477 40.611z"/><path d="m495.431 93.738c3.271-24.75-7.18-47.027-31.065-66.214-20.259-16.273-40.621-20.91-60.511-13.779-32.109 11.505-53.948 49.882-59.691 70.172q3.642 1.667 7.191 3.479l4.322-12.326a58.847 58.847 0 0 1 26.671-31.827l1.6-.9a58.866 58.866 0 0 1 53.409-2.143c12.57 5.8 34.27 18.752 38.367 40.275 1.936 10.173 2.244 25.18-.914 34.18-6.906 19.68-36.952 40.906-47.515 47.89q1.515 2.717 2.931 5.423a113.594 113.594 0 0 1 26.721-16.368c13.379-5.881 34.782-29.865 38.484-57.862z"/><path d="m361.59 357.368a42.35 42.35 0 0 0 31.167-18.522 46.843 46.843 0 0 0 6.268-39.067c-3.465-12.532-11.4-20.323-23.576-23.157a37.161 37.161 0 0 1 -27.289-26.522c-2.269-8.26-5.678-13.789-9.856-15.991a10.525 10.525 0 0 0 -4.994-1.191 17.69 17.69 0 0 0 -5.745 1.082c-10.8 3.734-17.59 13.007-20.18 27.564a30.955 30.955 0 0 0 -.146 9.883 18.534 18.534 0 0 1 16.526-10.655c10.263 0 18.614 8.824 18.614 19.671 0 10-7.105 18.264-16.257 19.494 9.821 12.063 19.265 28.071 22.116 47.088a12.232 12.232 0 0 0 13.352 10.323z"/><path d="m457.309 264.845a74.464 74.464 0 0 1 -12.871-29.413c-4.278-21.345-15.753-62.372-44.554-97.329-34.558-41.945-83.569-63.215-145.657-63.215h-.117c-60.526.965-108.386 22.575-142.184 64.229-28.2 34.75-39.479 75.239-43.7 96.281a74.47 74.47 0 0 1 -12.871 29.413c-8 10.855-15.83 29.77-7.656 58.236l.93 3.246c7.176 25.1 16.107 56.331 38.333 84.565 22.516 28.605 53.917 47.993 95.558 58.927a106.368 106.368 0 0 1 -37.069-38.166c-8.248-14.664-12.923-31.951-12.505-46.241.2-6.707 1.59-15.141 7.121-17.234a45.861 45.861 0 0 0 5.323-2.412 51.129 51.129 0 0 1 -33.577-21.8 55.825 55.825 0 0 1 -7.516-46.55c5.5-19.87 19.462-27.024 30.211-29.524a28.175 28.175 0 0 0 20.65-20.146c2.987-10.872 7.812-18.129 14.339-21.569 5.194-2.735 11.207-2.956 17.873-.651 13.917 4.81 22.943 16.738 26.1 34.495a39.768 39.768 0 0 1 -11.19 35.292c-11.6 11.443-26.152 29.943-29.625 53.1a21.119 21.119 0 0 1 -9.78 14.841c-1.9 2.336-7.892 8.8-19.193 13.179-1.319 1.9-3.075 11-.213 24.8 2.515 12.138 11.363 39.671 41.2 59.314a132.258 132.258 0 0 1 -9.121-18.613c-17.215-19.7-16.145-50.878-16.083-52.35a4.5 4.5 0 1 1 8.992.379c-.015.353-1.2 35.886 19.518 51.319 12.015 8.952 29.424 9.608 51.737 1.951a10.886 10.886 0 0 0 7.338-10.023l.081-3.843c0-1.094-.516-11.089-17.08-12.448-14.955-1.229-28.908-10.422-33.931-22.357-3.28-7.793-4.545-20.27 8.05-35.464 11.33-13.664 27.13-22.218 38.394-26.99a33.261 33.261 0 0 1 25.667-.158c11.759 4.776 28.174 13.363 39.6 27.143 12.6 15.194 11.33 27.671 8.05 35.464-5.022 11.935-18.976 21.128-33.931 22.357-17.163 1.409-17.091 11.979-17.08 12.429l.081 3.862a10.885 10.885 0 0 0 7.337 10.022c22.316 7.659 39.723 7 51.738-1.95 20.717-15.433 19.533-50.966 19.518-51.323a4.5 4.5 0 0 1 8.992-.375c.062 1.474 1.136 32.763-16.175 52.455a143.724 143.724 0 0 1 -9.143 16.743c29.569-19.778 38.487-46.895 41.059-58.9 2.938-13.711 1.12-21.762.024-23.448-11.288-4.38-17.278-10.834-19.177-13.171a21.12 21.12 0 0 1 -9.782-14.843c-3.473-23.155-18.027-41.655-29.625-53.1a39.768 39.768 0 0 1 -11.19-35.292c3.16-17.757 12.186-29.685 26.1-34.495 6.666-2.305 12.68-2.085 17.873.651 6.527 3.44 11.352 10.7 14.339 21.569a28.175 28.175 0 0 0 20.65 20.146c10.749 2.5 24.716 9.654 30.211 29.524a55.825 55.825 0 0 1 -7.516 46.55 51.125 51.125 0 0 1 -33.574 21.8 45.789 45.789 0 0 0 5.32 2.413c5.375 2.034 6.722 9.974 6.906 16.277.589 20.129-10.623 62.563-55.628 87.284 44.169-11.095 77.6-31.529 101.825-62.14 23.7-29.954 33.47-63.973 39.933-86.484 8.174-28.471.348-47.384-7.657-58.239zm-246.869-88.745a4.5 4.5 0 0 1 6.235-6.491c.755.725 18.491 17.965 17.593 37.09a4.5 4.5 0 0 1 -4.492 4.289c-.071 0-.142 0-.215 0a4.5 4.5 0 0 1 -4.284-4.706c.705-15.017-14.677-30.03-14.837-30.182zm73.378 100.17a4.5 4.5 0 0 1 -5.87 2.46c-22.641-9.269-52.677.031-52.979.126a4.5 4.5 0 1 1 -2.711-8.582c1.353-.429 33.474-10.363 59.1.125a4.5 4.5 0 0 1 2.46 5.871zm15.127-100.17c-.2.2-15.54 15.187-14.836 30.176a4.5 4.5 0 0 1 -4.284 4.706c-.071 0-.143 0-.215 0a4.5 4.5 0 0 1 -4.491-4.289c-.9-19.125 16.838-36.365 17.593-37.09a4.5 4.5 0 0 1 6.233 6.492z"/></svg>