<svg id="Layer_1" height="512" viewBox="0 0 512 512" width="512" xmlns="http://www.w3.org/2000/svg" data-name="Layer 1"><path d="m309.7 380.2c-.588-.227-1.117-.431-1.56-.619q-.307-.13-.622-.3c-.832 5.535-.2 9.525.921 10.668.719.735 2.176 1.928 3.736 1.721 1.361-.185 2.736-1.415 3.87-3.464.577-1.041 1.186-2.5.816-3.511-.735-2.028-4.913-3.635-7.161-4.495z"/><path d="m208.165 379.578c-.443.188-.974.392-1.561.619-2.246.863-6.422 2.47-7.161 4.5-.37 1.015.24 2.47.817 3.511 1.134 2.049 2.509 3.28 3.87 3.464 1.559.208 3.016-.986 3.734-1.72 1.547-1.579 1.551-6.121.872-10.643-.192.098-.382.191-.571.269z"/><path d="m277.181 314.359c-2.794-.4-7.818-.791-14.145-1.108a116.047 116.047 0 0 0 -13.326.086c-4.14.272-7.8.626-10.584 1.022-32.787 4.665-66.19 29.674-65.332 63.449.411 16.2 5.352 28.636 14.687 36.959 15.39 13.722 39.815 13.794 53.005 12.617 4.826-.431 9.6-.647 14.274-.647 4.361 0 8.641.188 12.814.563 14.962 1.346 42.569 1.369 59.331-13.568 9.3-8.286 14.214-20.373 14.608-35.924.857-33.775-32.545-58.784-65.332-63.449zm-62.887 81.89a13.7 13.7 0 0 1 -9.764 4.45 11.938 11.938 0 0 1 -1.609-.109c-4.248-.576-7.99-3.426-10.536-8.025-2.154-3.893-2.626-7.576-1.4-10.946 2.14-5.88 8.554-8.348 12.387-9.822.483-.186.917-.352 1.28-.505a17.191 17.191 0 0 0 3.381-3.069c.079-.093.161-.183.247-.27.646-.711 1.293-1.471 1.879-2.214a4.5 4.5 0 0 1 7.074 5.564c-.186.237-.443.558-.756.938 1.495 5.68 3.779 17.922-2.183 24.008zm15.864 20.97a4.5 4.5 0 1 1 -6.738-5.966c25.051-28.295 3.715-51.256-3.422-57.62l-.239-.215a4.5 4.5 0 0 1 6.1-6.623l.134.121c6.192 5.526 35.52 34.884 4.165 70.303zm66.4-63.806c-1.231 1.141-29.83 28.289-3.666 57.84a4.5 4.5 0 0 1 -6.739 5.966c-32.057-36.209 3.937-70.086 4.3-70.424a4.5 4.5 0 0 1 6.1 6.618zm27.369 39.152c-2.546 4.6-6.287 7.448-10.535 8.024a11.819 11.819 0 0 1 -1.611.11 13.685 13.685 0 0 1 -9.763-4.45c-5.963-6.086-3.679-18.328-2.184-24.008-.313-.38-.57-.7-.757-.938a4.5 4.5 0 0 1 7.074-5.564c.586.744 1.236 1.505 1.881 2.217.085.085.165.172.243.263a17.1 17.1 0 0 0 3.395 3.077c.352.149.786.315 1.269.5 3.833 1.474 10.247 3.941 12.387 9.822 1.223 3.371.751 7.054-1.403 10.947z"/><path d="m148.658 252.647c.677 4.453 2.533 10.634 6.886 13.328 3.626 2.245 8.815 2.038 15.455-.61-5.535-12.206-16.546-13.156-22.341-12.718z"/><path d="m267.768 436.264a143.3 143.3 0 0 0 -25.481.084c-4.1.366-7.97.536-11.62.536-3.26 0-6.342-.137-9.261-.389 8.553 6.328 21.251 13.288 35.9 13.448h.516c12.011 0 23.654-4.594 34.751-13.662a136.183 136.183 0 0 1 -24.805-.017z"/><path d="m144.261 88.386c-9.191-24.14-38.523-40.331-87.215-48.154-3.293 17.467-14.1 86.06 11.586 120.3 8.965 11.95 21.733 18.528 37.953 19.55a11.8 11.8 0 0 0 9.818-4.2c7.022-8.382 41.361-52.03 27.858-87.496z"/><path d="m476.481 32.037c-.084-7.375-.175-15.454-.609-20.315-5.7 3.327-15.437 7.086-29.074 11.218a85.824 85.824 0 0 1 -14.758 3.127c-30.328 3.585-83.157 18.108-96.221 75.1a157.342 157.342 0 0 1 -17.514 44.6l-.576.982a4.5 4.5 0 0 1 -7.762-4.557l.576-.981q1.41-2.4 2.728-4.872c-14.779-5.4-64.283-20.527-116.2-3.247 1.384 2.76 2.831 5.477 4.382 8.119l.576.981a4.5 4.5 0 0 1 -7.762 4.557l-.576-.982a157.342 157.342 0 0 1 -17.514-44.6c-13.064-56.988-65.893-71.511-96.221-75.1a85.824 85.824 0 0 1 -14.756-3.127c-13.637-4.132-23.373-7.89-29.074-11.218-.434 4.861-.525 12.94-.608 20.315-.168 14.764-.376 33.138-2.762 48.223-.867 5.491-4.92 34.4.561 64.311 6.184 33.752 21.847 55.708 46.552 65.259a47.5 47.5 0 0 1 12.14 6.845 46.893 46.893 0 0 1 16.363 49.4c-8.164 29.976-20.608 85.382-12.216 119.653 6.953 28.4 16.85 47.288 31.144 59.455 10.523 8.958 23.972 14.7 42.666 18.122a134.457 134.457 0 0 1 -17.033-28.709 4.5 4.5 0 1 1 8.25-3.6c16.848 38.63 51.561 65.69 88.437 68.942 17.818 1.572 35.318-2.3 52.01-11.516 18.691-10.317 35.858-27.1 51.023-49.893a4.5 4.5 0 1 1 7.492 4.986 203.758 203.758 0 0 1 -15.007 19.885c18.029-3.392 30.592-9.022 40.7-18.04 13.444-11.993 22.978-30.942 30-59.633 8.392-34.271-4.052-89.677-12.216-119.653a46.893 46.893 0 0 1 16.363-49.4 47.488 47.488 0 0 1 12.141-6.845c24.7-9.551 40.367-31.507 46.551-65.259 5.481-29.913 1.428-58.82.56-64.311-2.381-15.084-2.589-33.459-2.756-48.222zm-255.6 254.286a82.889 82.889 0 0 1 25.515-8.98c19.759-3.542 37.987.859 52.7 12.722a4.5 4.5 0 0 1 -5.649 7.007c-30.643-24.7-67.6-3.233-67.969-3.012a4.5 4.5 0 1 1 -4.6-7.737zm-97.575-104.657a20.792 20.792 0 0 1 -15.962 7.445q-.661 0-1.325-.041c-18.973-1.2-33.977-8.983-44.594-23.143-13.506-18.014-19.665-45.75-18.308-82.438a298.325 298.325 0 0 1 5.973-49.345 4.5 4.5 0 0 1 5.047-3.465c54.684 8.064 87.836 26.4 98.535 54.505 6.491 17.048 4.561 37.054-5.734 59.46a174.733 174.733 0 0 1 -23.632 37.022zm11.344 51.334a4.5 4.5 0 0 1 2.062-6.013c.952-.467 23.548-11.328 41.339-1.711 10.445 5.646 16.79 16.9 18.856 33.46a4.5 4.5 0 0 1 -3.907 5.019 4.679 4.679 0 0 1 -.564.035 4.5 4.5 0 0 1 -4.459-3.943c-1.683-13.488-6.453-22.451-14.175-26.642-13.687-7.425-32.943 1.77-33.136 1.863a4.5 4.5 0 0 1 -6.016-2.068zm16.118 40.6c-11.312-7.041-11.442-24.042-11.442-24.762a4.5 4.5 0 0 1 3.393-4.362c.292-.075 29.346-7.088 38.274 21.943a4.5 4.5 0 0 1 -2.313 5.36c-6.406 3.153-12.172 4.731-17.252 4.731a19.773 19.773 0 0 1 -10.66-2.91zm183.125 146.852c-7.29 6.5-16.167 10.549-25.276 13-15.636 16.906-32.71 25.494-50.779 25.494-.235 0-.467 0-.7 0-27.741-.34-48.4-20.719-53.04-25.7a57.189 57.189 0 0 1 -21.606-11.757c-11.264-10.044-17.218-24.662-17.694-43.448-.456-17.962 7.5-35.37 22.4-49.016 13.442-12.312 31.908-20.9 50.664-23.572 3.8-.541 8.219-.892 11.262-1.093a125.505 125.505 0 0 1 14.365-.094c4.664.234 11.046.629 14.963 1.187 18.757 2.669 37.223 11.26 50.664 23.572 14.9 13.646 22.854 31.054 22.4 49.016-.466 18.132-6.393 32.403-17.623 42.411zm36.3-146.849a19.77 19.77 0 0 1 -10.66 2.91c-5.08 0-10.845-1.578-17.251-4.731a4.5 4.5 0 0 1 -2.313-5.36c8.927-29.03 37.981-22.017 38.273-21.943a4.5 4.5 0 0 1 3.393 4.362c0 .72-.13 17.722-11.442 24.759zm16.117-40.603a4.5 4.5 0 0 1 -6.014 2.064c-.221-.107-19.453-9.284-33.135-1.863-7.723 4.191-12.493 13.154-14.176 26.642a4.5 4.5 0 0 1 -4.46 3.943 4.662 4.662 0 0 1 -.563-.035 4.5 4.5 0 0 1 -3.908-5.023c2.066-16.556 8.411-27.814 18.857-33.461 17.791-9.614 40.386 1.244 41.338 1.712a4.5 4.5 0 0 1 2.061 6.021zm64.265-67.078c-10.617 14.16-25.621 21.947-44.594 23.143q-.663.042-1.325.041a20.783 20.783 0 0 1 -15.962-7.445 174.692 174.692 0 0 1 -23.632-37.021c-10.3-22.406-12.225-42.412-5.734-59.46 10.7-28.1 43.851-46.441 98.535-54.5a4.5 4.5 0 0 1 5.047 3.465 298.325 298.325 0 0 1 5.973 49.345c1.357 36.687-4.802 64.423-18.308 82.436z"/><path d="m349.96 265.363c6.652 2.655 11.848 2.859 15.478.6 4.57-2.844 6.24-9.215 6.849-13.333-5.865-.478-16.798.476-22.327 12.733z"/><path d="m367.739 88.386c-13.5 35.466 20.836 79.114 27.858 87.5a11.7 11.7 0 0 0 3.4 2.786 11.835 11.835 0 0 0 6.414 1.41c16.22-1.022 28.988-7.6 37.953-19.55 25.686-34.244 14.879-102.837 11.586-120.3-48.688 7.823-78.02 24.014-87.211 48.154z"/></svg>