<svg id="Layer_1" height="512" viewBox="0 0 512 512" width="512" xmlns="http://www.w3.org/2000/svg" data-name="Layer 1"><path d="m185.22 260.019a104.3 104.3 0 0 1 23.7-17.695c4.949-27.2.945-73.719-10.6-122.294-9.482-39.892-22.285-73.1-33.5-87.9-.778 7.2-2.687 17.093-5.006 23.46-19.337 53.1-10.659 107.145.026 143.129a319.492 319.492 0 0 0 25.38 61.3z"/><path d="m207.074 117.948c11.125 46.8 15.33 90.471 11.695 119.488q2.454-1.088 4.792-2.009c14.861-76.914-14.225-160.142-26.722-195.892-.973-2.785-1.832-5.24-2.542-7.335a42.876 42.876 0 0 0 -9.71-16.121c-3.059-3.138-7.458-6.6-11.047-5.29-2.822 1.032-5.334 4.825-6.9 9.942 16.305 15.06 31.45 59.42 40.434 97.217z"/><path d="m302.767 242.324a104.26 104.26 0 0 1 23.794 17.786 320.082 320.082 0 0 0 25.33-61.332c10.664-36.009 19.318-90.081-.02-143.186-2.638-7.243-4.746-19.04-5.261-26.261-.015-.214-.039-.424-.058-.637-10.99 13.19-24.03 51.312-32.371 86.91-12.022 51.307-16.334 99.501-11.414 126.72z"/><path d="m292.944 237.447c-4.151-34.035 3.408-85.205 12.474-123.9 3.218-13.73 19.5-79.611 38.852-95.072-1.56-3.964-3.732-6.816-6.124-7.69-3.587-1.315-7.988 2.152-11.047 5.29a42.873 42.873 0 0 0 -9.709 16.125c-.711 2.095-1.569 4.55-2.542 7.333-12.5 35.75-41.584 118.979-26.723 195.9q2.347.924 4.819 2.014z"/><path d="m180.507 356.417c2.509 2.191 7.563 5.7 13.245 4.527a21.7 21.7 0 0 0 4.331-1.2 13.517 13.517 0 0 0 4.077-4c2.384-3.077 5.238-6.76 12.226-8.581-4.255-6.088-12.406-15.579-22.842-17.417a13.711 13.711 0 0 0 -2.379-.206c-3.936 0-10.042 1.676-14 10.835-1.434 3.325-1.194 10.333 5.342 16.042z"/><path d="m229.377 491.553c6.207 6.538 16.254 10.238 26.871 9.926a40.207 40.207 0 0 0 29.942-14.485 37.4 37.4 0 0 0 6.313-11.419 48.107 48.107 0 0 1 2.362-5.359 46.243 46.243 0 0 1 -24.968-.684q-1-.309-2-.652a22.654 22.654 0 0 1 -11.773-9.154 25.238 25.238 0 0 1 -12.33 9.154c-.669.228-1.338.446-2 .652a46.258 46.258 0 0 1 -24.759.737 41.336 41.336 0 0 1 3.474 9.332c.858 3.751 3.7 6.649 6.985 10 .626.648 1.259 1.299 1.883 1.952z"/><path d="m156.455 461.1a52.308 52.308 0 0 0 20.1 10.988c16.509 4.887 28.057 8.208 35.286 9.935-.035-.139-.076-.274-.109-.415-1.958-8.555-8.6-16.352-10.034-17.955a37.325 37.325 0 0 1 -7.034-5.786 267.316 267.316 0 0 0 -38.209 3.233z"/><path d="m335.132 472.09a52.315 52.315 0 0 0 20.141-11.026 266.886 266.886 0 0 0 -38.251-3.194 37.205 37.205 0 0 1 -6.949 5.732 54.2 54.2 0 0 0 -9.117 15.064c-.447 1.221-.922 2.383-1.417 3.51 7.985-1.958 20.402-5.589 35.593-10.086z"/><path d="m196.974 404.945a74.744 74.744 0 0 1 4.5-6.535 4.5 4.5 0 1 1 7.048 5.59c-.037.046-.877 1.124-2.116 2.957 4.5 1.079 7.456 1.973 8.66 2.357a10.5 10.5 0 0 1 4.8 16.807 10.459 10.459 0 0 1 1.922 13.843 10.5 10.5 0 0 1 .166 16.731 10.415 10.415 0 0 1 -7.755 2.109c-1.079-.136-2.219-.257-3.4-.364 1.356.656 2.788 1.275 4.32 1.848a37.294 37.294 0 0 0 24 .649c.585-.183 1.175-.374 1.764-.576a16.4 16.4 0 0 0 11.051-15.551v-12.104c-16.717-.4-28.51-9.486-30.623-18.993-.726-3.269.766-7.391 3.935-15.665a141.493 141.493 0 0 0 5.481-16.255c1.513-6.171-.271-14.363-.29-14.445a4.5 4.5 0 0 1 8.783-1.967c.093.417 2.27 10.305.248 18.555a148.154 148.154 0 0 1 -5.818 17.332c-.223.583-.459 1.2-.7 1.83a18.655 18.655 0 0 1 12.806-.674c4.193 1.436 7.6 4.582 10.218 9.372a17.01 17.01 0 0 1 7.714-7.532c5.207-2.433 10.855-1.635 15.471-.043-.382-1.019-.769-2.028-1.124-2.955a148.493 148.493 0 0 1 -5.817-17.33c-2.022-8.25.154-18.138.248-18.555a4.5 4.5 0 0 1 8.783 1.967c-.019.082-1.8 8.274-.29 14.445a141.715 141.715 0 0 0 5.48 16.253c3.171 8.276 4.662 12.4 3.936 15.667-2.034 9.154-13.374 18.114-29.443 18.884v12.215c0 7.626 3.69 13.439 9.872 15.551q.883.3 1.763.575a37.267 37.267 0 0 0 24-.648c1.5-.563 2.914-1.17 4.249-1.813-1.052.1-2.066.208-3.033.331a10.5 10.5 0 0 1 -9.612-16.853 10.539 10.539 0 0 1 2.035-1.987 10.47 10.47 0 0 1 1.924-13.845 10.5 10.5 0 0 1 4.8-16.807c1.18-.376 4.034-1.242 8.389-2.294-1.262-1.871-2.122-2.976-2.16-3.024a4.5 4.5 0 0 1 7.055-5.588 74.753 74.753 0 0 1 4.53 6.59 280.972 280.972 0 0 1 61.45-4.452c-.935-14.531-5.139-27.108-10.807-33.291-19.614-21.4-23.13-52.673-23.27-53.994-5.619-50.641-50.772-68.415-69.925-73.705a62.264 62.264 0 0 0 -32.7 0c-19.153 5.29-64.306 23.065-69.928 73.727-.137 1.3-3.652 32.574-23.267 53.972-5.67 6.185-9.875 18.768-10.808 33.306a281.626 281.626 0 0 1 61.485 4.382zm148.01-67.774c3 6.947 1.851 18.247-7.76 26.643-5.3 4.626-11.217 7.053-17.031 7.053a20.584 20.584 0 0 1 -4.152-.422 25.29 25.29 0 0 1 -6.955-2.169 21.822 21.822 0 0 1 -6.889-6.417c-2.494-3.22-4.3-5.546-11.933-6.182a5.249 5.249 0 0 1 -4.143-7.818c3.114-5.491 14.651-23.646 32.407-26.773 11.172-1.975 21.32 4.193 26.456 16.085zm-75.44 2c4.246-29.373 27.905-36.014 39.818-35.428a4.5 4.5 0 0 1 -.432 8.989c-1.129-.045-26.365-.733-30.479 27.726a4.5 4.5 0 0 1 -4.451 3.859 4.611 4.611 0 0 1 -.649-.046 4.5 4.5 0 0 1 -3.807-5.098zm-67.395-35.428c11.787-.588 35.2 5.99 39.4 35.054a4.5 4.5 0 1 1 -8.907 1.287c-4.064-28.108-29.006-27.4-30.067-27.352a4.5 4.5 0 0 1 -.428-8.989zm-35.249 33.063c5.086-11.773 15.13-17.874 26.2-15.925 17.566 3.094 28.979 21.05 32.059 26.479a5.24 5.24 0 0 1 -4.138 7.808c-7.52.626-9.3 2.917-11.752 6.087a21.605 21.605 0 0 1 -6.823 6.356 25.051 25.051 0 0 1 -6.881 2.148 20.479 20.479 0 0 1 -4.119.417c-5.761 0-11.621-2.4-16.865-6.981-9.513-8.314-10.65-19.507-7.681-26.389z"/><path d="m309.311 356.346a13.7 13.7 0 0 0 4.144 4.061 21.93 21.93 0 0 0 4.39 1.221c5.772 1.188 10.91-2.368 13.458-4.593 6.636-5.8 6.876-12.921 5.419-16.3-4.97-11.507-13.29-11.376-16.634-10.789-10.618 1.87-18.9 11.547-23.2 17.713 7.112 1.841 10.012 5.569 12.423 8.687z"/><path d="m267.483 412.425c-3.468 1.629-5.173 6.322-5.993 11.124 9.912-.707 16.191-5.182 18.8-9.021-3.635-1.922-9.017-3.886-12.807-2.103z"/><path d="m231.133 414.181c2.664 4.323 9.772 8.865 19.777 9.469-1.822-7.069-4.613-11.518-8.052-12.706-3.822-1.321-8.638 1.1-11.725 3.237z"/><path d="m63.132 426.573a4.476 4.476 0 0 0 1.172-.156c81.736-22 139.845-4.84 146.2-2.811a4.5 4.5 0 1 0 2.737-8.574c-6.616-2.11-67.059-19.971-151.278 2.695a4.5 4.5 0 0 0 1.167 8.846z"/><path d="m211.865 438.45a4.5 4.5 0 1 0 2.429-8.666c-30.824-8.639-109.738-11-152.464 22.685a4.5 4.5 0 0 0 5.572 7.068c41.038-32.357 118.906-28.249 144.463-21.087z"/><path d="m82.391 483.417a4.483 4.483 0 0 0 3.026-1.17c29.413-26.75 98.908-33.264 129.551-29.392a4.5 4.5 0 0 0 1.128-8.929c-30.231-3.818-103.758 1.671-136.734 31.662a4.5 4.5 0 0 0 3.029 7.829z"/><path d="m298.757 415.032a4.5 4.5 0 1 0 2.737 8.574c6.357-2.029 64.466-19.186 146.2 2.811a4.5 4.5 0 0 0 2.339-8.69c-84.217-22.667-144.661-4.806-151.276-2.695z"/><path d="m300.135 438.45c25.559-7.163 103.426-11.271 144.463 21.087a4.5 4.5 0 1 0 5.572-7.068c-42.726-33.689-121.638-31.325-152.464-22.685a4.5 4.5 0 1 0 2.429 8.666z"/><path d="m292 448.955a4.5 4.5 0 0 0 5.028 3.9c30.64-3.866 100.138 2.642 129.551 29.392a4.5 4.5 0 0 0 6.055-6.659c-32.976-29.991-106.5-35.481-136.734-31.662a4.5 4.5 0 0 0 -3.9 5.029z"/></svg>