<svg id="Layer_1" height="512" viewBox="0 0 512 512" width="512" xmlns="http://www.w3.org/2000/svg" data-name="Layer 1"><path d="m224.767 417.819a9.023 9.023 0 0 0 -1.571 4.956c0 8.949 14.487 15.487 29.3 16.853a31.419 31.419 0 0 0 -27.729-21.809z"/><path d="m265.322 439.468c14.26-1.66 27.766-8.053 27.766-16.693a9.626 9.626 0 0 0 -2.5-6.221c-13.333.877-21.911 11.526-25.266 22.914z"/><path d="m234.343 410.491a40.678 40.678 0 0 1 24.385 20.621c4.408-10.2 12.057-17.823 21.427-21.385a61.112 61.112 0 0 0 -22.013-4.074 59.787 59.787 0 0 0 -23.799 4.838z"/><path d="m198.386 263.089c-8.122-10.795-17-16.9-26.375-18.147-9.478-1.266-19.655 2.285-30.253 10.534a75.986 75.986 0 0 0 -19.337 22.593c-10.1 17.755-31.277 47.956-62.573 57.769a116.441 116.441 0 0 0 11.145 18.738c17.9 24.559 45.471 42.5 80.636 52.717.5-12.049 4.254-39.5 26.375-66.7 24.832-30.534 32.832-60.955 20.382-77.504zm-59.7 19.557a28.777 28.777 0 1 1 28.776 28.746 28.794 28.794 0 0 1 -28.779-28.746z"/><path d="m344.533 262.9a19.746 19.746 0 1 0 19.777 19.746 19.785 19.785 0 0 0 -19.777-19.746z"/><path d="m389.571 278.069a76 76 0 0 0 -19.337-22.593c-10.6-8.25-20.776-11.8-30.253-10.534-9.379 1.246-18.253 7.352-26.374 18.147-12.451 16.549-4.451 46.97 20.381 77.5 22.046 27.105 26.136 53.781 26.8 65.527 35.326-10.123 62.91-27.891 80.654-52.2a112.8 112.8 0 0 0 10.771-18.063c-31.356-9.825-52.544-40.029-62.642-57.784zm-45.038 33.323a28.746 28.746 0 1 1 28.777-28.746 28.794 28.794 0 0 1 -28.777 28.746z"/><path d="m167.459 262.9a19.746 19.746 0 1 0 19.777 19.746 19.784 19.784 0 0 0 -19.777-19.746z"/><path d="m457.443 59.7-120.438 82.009a4.5 4.5 0 1 1 -5.065-7.44l18.868-12.848c-16.863-6.369-58.2-20.41-94.8-20.41h-.008c-35.835-.7-77.863 13.84-94.864 20.376l18.92 12.882a4.5 4.5 0 0 1 -5.066 7.44l-120.441-82.009a21.218 21.218 0 0 0 -27.5 3.041c-5.613 5.956-18.438 23.013-16.316 52.7s18.222 62.321 47.865 97.1l8.486-8.476c-9.456-9.9-17.72-33.923-20.325-42.048-3.069-9.566-12.754-42.291-8.578-61.716 2.774-12.91 10.772-14.6 15.3-14.433 30.775 1.024 92.364 63.089 94.971 65.73a4.5 4.5 0 1 1 -6.406 6.323c-17.06-17.284-66.281-62.307-88.864-63.059-1.371-.045-4.6-.153-6.2 7.33-2.464 11.464.735 33.334 8.349 57.077 8.126 25.339 16.734 38.773 20.251 40.219a4.5 4.5 0 0 1 1.468 7.346l-42.934 42.877 10.076-3.088a4.5 4.5 0 0 1 4.6 7.387 320.148 320.148 0 0 0 -21.875 25.669l13.539-2.224a4.5 4.5 0 0 1 5.018 5.8l-9.474 29.796 8.294-6.344a4.5 4.5 0 0 1 7.21 3.1 82.371 82.371 0 0 0 4.8 17.7c28.823-8.584 48.768-37.156 58.286-53.891a84.914 84.914 0 0 1 21.632-25.245c12.572-9.788 25.009-13.948 36.967-12.355 11.86 1.576 22.755 8.864 32.38 21.658 7.809 10.378 9.618 24.631 5.233 41.217-4 15.144-12.933 31.526-25.824 47.375-21.758 26.752-24.224 54.234-24.4 63.421q6.159 1.508 12.6 2.716c0-.028-.012-.056-.017-.085-1.59-9.8-1.173-29.892 19.488-54.392 20.4-24.188 26.125-71.486 26.181-71.961a4.5 4.5 0 0 1 8.939 1.041c-.237 2.047-6.085 50.449-28.24 76.723-6.338 7.516-20.729 27.154-17.484 47.147 1.954 12.041 10.1 22.516 24.209 31.136a96.725 96.725 0 0 0 100.4-.108c13.784-8.51 21.734-18.836 23.63-30.69 3.194-19.976-11.413-39.863-17.841-47.485-22.155-26.274-28-74.676-28.24-76.723a4.5 4.5 0 0 1 8.939-1.041c.056.475 5.784 47.773 26.181 71.961 19.9 23.6 21.313 42.948 20.057 53.2q6.375-1.186 12.477-2.66a89.025 89.025 0 0 0 -2.38-17.156 112.491 112.491 0 0 0 -22.481-45.047c-12.891-15.849-21.821-32.231-25.824-47.375-4.385-16.586-2.576-30.839 5.233-41.217 9.625-12.794 20.52-20.082 32.38-21.658 11.962-1.588 24.395 2.568 36.967 12.355a84.9 84.9 0 0 1 21.632 25.245c21.113 37.119 44.377 49.678 58.361 53.909a79.757 79.757 0 0 0 4.726-17.691 4.5 4.5 0 0 1 7.212-3.131l8.3 6.345-9.466-29.794a4.5 4.5 0 0 1 5.018-5.8l13.541 2.225a320.046 320.046 0 0 0 -21.876-25.669 4.5 4.5 0 0 1 4.6-7.388l10.076 3.088-42.932-42.879a4.5 4.5 0 0 1 1.469-7.346c3.517-1.446 12.125-14.88 20.251-40.219 7.613-23.743 10.813-45.613 8.349-57.077-1.609-7.481-4.828-7.376-6.2-7.33-22.583.752-71.805 45.775-88.865 63.059a4.5 4.5 0 0 1 -6.406-6.323c2.607-2.641 64.2-64.706 94.971-65.73 4.527-.165 12.528 1.522 15.3 14.433 4.176 19.425-5.509 52.149-8.578 61.716-2.605 8.125-10.868 32.151-20.325 42.048l8.5 8.494c29.642-34.779 45.739-67.432 47.856-97.109s-10.709-46.744-16.323-52.702a21.214 21.214 0 0 0 -27.5-3.042zm-346.791 119.166a4.449 4.449 0 0 1 -3.786-1.3l-.012.012c-5.247-5.282-19.365-8.693-24.362-9.562a4.5 4.5 0 0 1 1.535-8.868 90.769 90.769 0 0 1 19 5.6 78.066 78.066 0 0 0 -14.568-24.159 4.5 4.5 0 0 1 6.549-6.174c.676.716 16.57 17.788 19.5 39.389a4.5 4.5 0 0 1 -3.856 5.062zm116.169 74.495c1.849-49.963-23.137-66.21-24.2-66.877a4.5 4.5 0 0 1 4.712-7.668c1.248.762 30.541 19.3 28.484 74.877a4.5 4.5 0 0 1 -4.494 4.334h-.169a4.5 4.5 0 0 1 -4.333-4.666zm75.267 169.414c0 14.648-19.3 26.121-43.946 26.121s-43.942-11.473-43.942-26.121 19.3-26.122 43.946-26.122 43.942 11.475 43.942 26.122zm12.266-236.289c-1.116.7-26.045 16.967-24.2 66.875a4.5 4.5 0 0 1 -4.33 4.663h-.17a4.5 4.5 0 0 1 -4.494-4.334c-2.056-55.577 27.237-74.115 28.485-74.877a4.5 4.5 0 0 1 4.708 7.67zm83.132-12.686c2.932-21.6 18.825-38.672 19.5-39.388a4.5 4.5 0 0 1 6.552 6.171 78.766 78.766 0 0 0 -14.561 24.158 90.8 90.8 0 0 1 18.989-5.594 4.5 4.5 0 1 1 1.533 8.868c-5 .869-19.114 4.28-24.361 9.562l-.012-.012a4.486 4.486 0 0 1 -7.64-3.765z"/></svg>