<svg id="Layer_1" height="512" viewBox="0 0 512 512" width="512" xmlns="http://www.w3.org/2000/svg" data-name="Layer 1"><path d="m333.86 351.224-.185-1.043a17.045 17.045 0 0 0 -11.77-13.373c-9.236-2.846-21.759-9.236-28.966-23.518-9.046-17.924-18.58-22.427-25.875-24.347a41.9 41.9 0 0 0 -19.045-.276c-8.6 1.786-19.66 6.2-28.958 24.623-7.206 14.282-19.73 20.672-28.966 23.518a17.045 17.045 0 0 0 -11.77 13.374c-4.2 23.566-6.251 57.9 24.367 83.836a84.807 84.807 0 0 0 54.066 19.982h.682a84.53 84.53 0 0 0 53.66-19.136c32.885-27.064 26.3-63.864 22.76-83.64zm-42.341 14.269c2.985-4.278 4.491-18.354 4.739-26.222a4.5 4.5 0 0 1 9 .28c-.12 3.844-.988 23.4-6.355 31.092a4.5 4.5 0 1 1 -7.38-5.15zm-80.419-30.578a4.5 4.5 0 0 1 4.638 4.356c.248 7.868 1.754 21.944 4.739 26.222a4.5 4.5 0 1 1 -7.38 5.15c-5.367-7.688-6.235-27.248-6.355-31.092a4.5 4.5 0 0 1 4.358-4.636zm109.869 64.914a118.976 118.976 0 0 1 -14.347 15.291c-11.101 9.88-21.415 14.88-30.681 14.88-.528 0-1.05-.017-1.572-.049-7.069-.44-13.178-3.813-18.236-10.02-5.052 6.194-11.16 9.565-18.232 10.017-.536.034-1.078.052-1.621.052-9.288 0-19.637-4.99-30.8-14.853a119.313 119.313 0 0 1 -14.448-15.3 4.5 4.5 0 0 1 7.158-5.457c5.9 7.716 24.438 27.549 39.142 26.577 4.979-.32 9.233-3.006 12.933-8.164-3.632-3.079-10.355-8.27-16.985-10.72-7.6-2.81-11.493-12.237-9.468-22.925 2.226-11.752 12-25.3 32.227-25.3.312 0 .622 0 .937.01.05 0 .1 0 .149.006 8.919.476 16.647 3.6 22.351 9.042a30.675 30.675 0 0 1 9.128 17.506c1.544 10.2-2.431 18.9-9.892 21.661-6.611 2.443-13.195 7.616-16.743 10.686 3.71 5.191 7.967 7.888 12.947 8.2 14.674.922 33.034-18.867 38.879-26.569a4.5 4.5 0 0 1 7.174 5.436z"/><path d="m433.266 319.278 5.653 2.3c-7.425-13.859-22.194-37.207-39.583-42.15-7.078-2.01-13.8-.682-20.565 4.062-.088.062-.179.121-.271.176s-3.726 2.5-4.812 8.847c-1.289 7.524.855 21.291 18.378 44.16 13.324 17.389 15.931 38.355 7.54 60.634a96.078 96.078 0 0 1 -6.685 14.051 195.821 195.821 0 0 0 27.866-16.86c6.5-15.545 19.148-54.614 7.391-68.1a4.5 4.5 0 0 1 5.088-7.126z"/><path d="m195.712 278.307c-8.831-7.26-26.17-2.4-31.641-.6.141 5.012 1.369 16.7 9.411 22.565 6.17 4.5 15.472 4.968 27.651 1.385 1.42-11.369-.403-19.225-5.421-23.35z"/><path d="m175.9 223.151a5.431 5.431 0 0 0 -.812-.065c-1.372 0-3.255.587-5.556 3.445-9.888 12.284-8.911 16.884-8.376 18 2.142 4.473 15.828 4.473 21.672 4.473 6.342 0 12.684 2.25 17.988 4.932-7.216-14.442-17.116-29.604-24.916-30.785z"/><path d="m102.034 104.464c-.094-.195-2.559-4.777-26.038-4.9h-.34c-9.8 0-15.744 2.234-17.686 6.642-5.315 12.066 14.8 41.082 30.315 58.626a212.456 212.456 0 0 1 18.525-11.908l3.81-11.208a6.7 6.7 0 0 0 -3.948-8.43 15.518 15.518 0 0 1 -9.482-10.5 15.719 15.719 0 0 1 2.913-14.038c1.716-2.163 2.207-3.709 1.931-4.284z"/><path d="m119.934 336.674c17.523-22.869 19.667-36.636 18.378-44.16-1.086-6.349-4.726-8.789-4.881-8.89-.092-.055-.114-.071-.2-.133-6.765-4.744-13.5-6.076-20.573-4.059-17.415 4.955-32.171 28.3-39.584 42.15l5.662-2.3a4.5 4.5 0 0 1 5.088 7.126c-11.782 13.511 1.075 51.869 7.605 66.967a196.487 196.487 0 0 0 26.432 16.225 90.57 90.57 0 0 1 -6.076-13.109c-7.985-21.759-5.164-42.442 8.149-59.817z"/><path d="m279.71 381.763c-1.243-8.207-8.01-18.072-22.987-18.9-.22 0-.441-.007-.657-.007-14.73 0-21.751 9.229-23.407 17.975-1.153 6.086.457 11.592 3.746 12.808 7.928 2.931 15.564 8.793 19.7 12.3 4.067-3.519 11.572-9.37 19.494-12.3 3.24-1.204 4.971-6.196 4.111-11.876z"/><path d="m436.2 242.287a6.77 6.77 0 0 1 6.74-11.321l3.479 1.089a73.946 73.946 0 0 0 -7.561-14.168 74.926 74.926 0 0 0 -23.534-22.068 5.9 5.9 0 0 1 3.743-10.926l16.688 2.035c-9.854-10.431-32.784-29.235-81.407-47.8-4.373-1.67-10.53-4.695-13.5-11.66-2.334-5.47-1.927-12.114 1.21-19.748a64.853 64.853 0 0 1 7.658-13.306 197.508 197.508 0 0 0 -23.787-7.525 278.352 278.352 0 0 0 -139.226.343 203.224 203.224 0 0 0 -24.052 7.682 64.106 64.106 0 0 1 7.295 12.806c3.137 7.634 3.544 14.278 1.21 19.748-2.971 6.965-9.128 9.99-13.5 11.66-48.626 18.565-71.556 37.372-81.41 47.8l16.686-2.035a5.9 5.9 0 0 1 3.746 10.925 74.933 74.933 0 0 0 -23.535 22.069 73.946 73.946 0 0 0 -7.561 14.168l3.479-1.089a6.769 6.769 0 0 1 6.74 11.32c-11 10.647-36.2 38.651-32.524 68.658 2.477 20.206 8.067 44.011 30.751 67.369 1.11 1.142 2.263 2.269 3.438 3.388-1.355-4.1-2.743-8.726-3.947-13.594-3.7-14.937-4.423-27.014-2.184-36.1l-5.823 2.37a4.5 4.5 0 0 1 -5.833-5.939c.862-2.013 21.443-49.388 50.513-57.66 9.683-2.755 19.14-.98 28.113 5.282 1.253.805 6.977 4.947 8.782 14.405 2.593 13.585-4.14 30.975-20.009 51.686-11.453 14.946-13.786 32.1-6.936 50.983a86.333 86.333 0 0 0 13.666 24.016 390.7 390.7 0 0 0 58.429 19.523c-32.788-31.886-25.305-73.866-22.771-88.07a26.007 26.007 0 0 1 17.978-20.394c7.568-2.332 17.8-7.515 23.582-18.971 8.492-16.826 19.664-26.162 35.164-29.381a50.977 50.977 0 0 1 23.164.385c13.364 3.517 23.412 12.73 31.62 29 5.781 11.456 16.014 16.639 23.582 18.971a26.007 26.007 0 0 1 17.978 20.387l.186 1.038c3.649 20.386 10.258 57.357-20.162 87.026a386.73 386.73 0 0 0 54.479-17.991 92.12 92.12 0 0 0 14.237-24.78c7.232-19.4 5.094-36.807-6.352-51.744-15.869-20.711-22.6-38.1-20.009-51.686 1.805-9.46 7.53-13.6 8.783-14.405 8.972-6.26 18.429-8.036 28.112-5.282 29.07 8.272 49.651 55.647 50.513 57.66a4.5 4.5 0 0 1 -5.833 5.939l-5.833-2.375c2.272 9.18 1.584 21.452-2.07 36.686-1.247 5.2-2.695 10.13-4.1 14.46 28.685-27.035 32.1-54.814 34.236-72.2 3.679-30.009-21.521-58.013-32.521-68.659zm-226.165 60.705a8.717 8.717 0 0 1 -6.18 7.242 61.076 61.076 0 0 1 -17.211 2.791c-7.277 0-13.454-1.83-18.465-5.485-3.8-2.774-12.695-11.237-13.112-29.874a8.639 8.639 0 0 1 5.938-8.427c8.1-2.7 28.246-7.895 40.422 2.115 7.596 6.246 10.492 16.891 8.608 31.638zm3.808-33.15a4.5 4.5 0 0 1 -5.55-.276c-.217-.187-13.525-11.559-25.462-11.559-10.035 0-25.2 0-29.79-9.588-3.226-6.738-.213-15.486 9.482-27.531 5.259-6.534 10.911-7.214 14.732-6.636 18.926 2.873 36.26 45.42 38.174 50.262a4.5 4.5 0 0 1 -1.586 5.328zm129.978 37.7c-5.011 3.655-11.189 5.485-18.465 5.485a61.071 61.071 0 0 1 -17.211-2.791 8.717 8.717 0 0 1 -6.18-7.242c-1.884-14.747 1.012-25.392 8.608-31.637 12.177-10.011 32.324-4.814 40.421-2.116a8.641 8.641 0 0 1 5.939 8.428c-.417 18.631-9.309 27.098-13.112 29.872zm15.814-59.327c-3.911 8.141-15.82 8.1-26.31 8.086h-1.667c-9.982 0-23.6 9.611-28 13.314a4.5 4.5 0 0 1 -7.083-5.1c1.914-4.842 19.248-47.389 38.174-50.262 3.823-.577 9.473.1 14.732 6.636 9.944 12.359 13.171 21.041 10.154 27.325z"/><path d="m405.328 133.286a6.7 6.7 0 0 0 -3.949 8.429l3.811 11.21a212.605 212.605 0 0 1 18.525 11.907c15.519-17.544 35.63-46.56 30.315-58.626-1.942-4.408-7.892-6.642-17.686-6.642h-.344c-23.479.122-25.944 4.7-26.038 4.9-.276.575.215 2.121 1.931 4.281a15.721 15.721 0 0 1 2.913 14.039 15.518 15.518 0 0 1 -9.478 10.502z"/><path d="m336.909 223.086a5.431 5.431 0 0 0 -.812.065c-7.739 1.173-17.545 16.113-24.751 30.459 6.089-3.339 13.442-6.313 20.312-6.313h1.69c5.837.013 16.72.041 18.174-2.982.328-.684 1.434-4.754-9.057-17.787-2.3-2.855-4.184-3.442-5.556-3.442z"/><path d="m61.781 242.675a5.584 5.584 0 0 1 -7.02-6.939 83.04 83.04 0 0 1 27-40.414l-12.961 1.578a5.584 5.584 0 0 1 -5.248-8.756c2.377-3.372 7.613-9.763 17.572-17.842-10.606-12.11-39.978-48.224-31.391-67.725 3.512-7.975 12.241-12.017 25.945-12.017h.366c20.32.105 30.84 3.192 34.106 10.009 1.365 2.844 1.951 7.544-3 13.772a6.812 6.812 0 0 0 -1.272 6.077 6.6 6.6 0 0 0 4.037 4.466 15.679 15.679 0 0 1 9.229 19.725l-.675 1.984a363.364 363.364 0 0 1 35.978-15.875c4.637-1.77 7.16-3.8 8.433-6.783 1.333-3.125.9-7.55-1.258-12.8-7.06-17.185-29.875-37.708-51.938-46.722a88.434 88.434 0 0 0 -24.989-6.114 65.172 65.172 0 0 0 -51.531 17.884 62.469 62.469 0 0 0 -19.2 48.594c.976 17.109 7.742 34.451 20.11 51.544a11.44 11.44 0 0 1 -.9 14.451c-12.909 13.911-21.081 26.748-22.464 35.11l15.974-8.55a6 6 0 0 1 2.839-.719 5.98 5.98 0 0 1 5.13 9c-4.831 8.212-13.342 25.753-16.066 50.961a5.818 5.818 0 0 0 2.656 5.577 5.958 5.958 0 0 0 6.323.2l13.408-7.729c4.436-9.825 11.447-20.773 22.29-32.412z"/><path d="m485.319 217.333 15.972 8.549c-1.382-8.362-9.554-21.2-22.464-35.111a11.44 11.44 0 0 1 -.9-14.451c12.368-17.092 19.134-34.434 20.111-51.543a62.473 62.473 0 0 0 -19.2-48.594 65.183 65.183 0 0 0 -51.528-17.876 88.434 88.434 0 0 0 -24.989 6.114c-22.063 9.014-44.878 29.537-51.938 46.722-2.156 5.247-2.591 9.672-1.258 12.8 1.274 2.983 3.8 5.013 8.434 6.783a363.32 363.32 0 0 1 35.974 15.874l-.675-1.985a15.68 15.68 0 0 1 9.23-19.724 6.6 6.6 0 0 0 4.037-4.466 6.812 6.812 0 0 0 -1.272-6.077c-4.953-6.228-4.367-10.928-3-13.772 3.266-6.817 13.786-9.9 34.106-10.009h.366c13.705 0 22.433 4.042 25.945 12.017 8.587 19.5-20.785 55.615-31.391 67.725 9.959 8.08 15.195 14.47 17.572 17.843a5.583 5.583 0 0 1 -5.251 8.748l-12.968-1.582a83.037 83.037 0 0 1 27 40.415 5.584 5.584 0 0 1 -7.019 6.938l-1.483-.464c10.871 11.668 17.888 22.639 22.323 32.483l13.382 7.662a5.947 5.947 0 0 0 6.316-.207 5.818 5.818 0 0 0 2.656-5.577c-2.724-25.208-11.235-42.749-16.066-50.961a5.968 5.968 0 0 1 7.971-8.278z"/><path d="m316.288 278.307c-5.017 4.125-6.841 11.981-5.421 23.348 12.181 3.581 21.484 3.114 27.651-1.385 8.042-5.865 9.27-17.553 9.411-22.565-5.469-1.798-22.808-6.658-31.641.602z"/></svg>