<svg id="Layer_1" height="512" viewBox="0 0 512 512" width="512" xmlns="http://www.w3.org/2000/svg" data-name="Layer 1"><path d="m319.912 460.952a43.559 43.559 0 0 1 -18.43 11.363l-3.251 1.051c-7.752 2.5-15.769 5.092-23.41 8.127a48.078 48.078 0 0 1 -18.325 3.2h-.471a48.137 48.137 0 0 1 -17.858-3.2c-7.641-3.035-15.657-5.624-23.41-8.127l-3.251-1.051a43.552 43.552 0 0 1 -18.43-11.363 16.929 16.929 0 0 0 -6.394-4.3 97.071 97.071 0 0 1 -13.9-6.308 136.763 136.763 0 0 0 12.966 22.844c16.163 22.62 35.149 31.526 56.429 26.469a71.339 71.339 0 0 1 18.862-2.7c4.126.071 7.458.07 10.49 0 8.846-.2 18.744 2.2 20.442 2.631 9.554 1.446 17.691-.524 24.881-6.007a46.051 46.051 0 0 0 10.408-11.565l.015-.023c6.717-10.3 10.454-22.782 12.39-31.346a97.727 97.727 0 0 1 -13.355 6 16.925 16.925 0 0 0 -6.398 4.305z"/><path d="m322.685 404.914a1.433 1.433 0 0 0 -.526.1c-3.3 1.287-6.851 9.2-9.192 18.5 7.129-1.32 14.977-4.01 16.605-7.688.8-1.814-.05-4.353-2.538-7.546-1.028-1.32-2.863-3.366-4.349-3.366z"/><path d="m354.862 415.236c1.411-14.171-6.734-25.346-13.816-32.225a44.727 44.727 0 0 1 -10.312-15.06c-2.708-6.567-5.853-10.368-9.9-11.962-4.671-1.841-11.239-.852-19.525 2.94-15.564 7.123-42.658 6.011-44.822 5.91h-.464c-5.178.271-30.032 1.156-44.464-5.967-7.922-3.909-14.314-5-19-3.227-4.168 1.572-7.54 5.6-10.307 12.306a44.725 44.725 0 0 1 -10.313 15.061c-7.081 6.878-15.226 18.052-13.815 32.225 1.144 11.479 5.772 23.419 31.671 32.974a25.969 25.969 0 0 1 9.833 6.571 34.521 34.521 0 0 0 14.653 8.972l3.24 1.048c7.892 2.548 16.051 5.182 23.967 8.326a37.4 37.4 0 0 0 11.318 2.456v-.057q1.879.146 3.685.162 1.8-.017 3.681-.162v.057a37.415 37.415 0 0 0 11.318-2.456c7.914-3.144 16.074-5.778 23.966-8.327l3.24-1.047a34.54 34.54 0 0 0 14.654-8.973 25.964 25.964 0 0 1 9.831-6.57c25.91-9.555 30.538-21.495 31.681-32.975zm-143.383 31.982a4.5 4.5 0 0 1 -4.479 4.13c-.124 0-.249 0-.375-.016a4.5 4.5 0 0 1 -4.114-4.854 62.412 62.412 0 0 0 -.625-13.506 76.784 76.784 0 0 1 -8.919-1.771c-9.467-2.511-15.448-6.453-17.778-11.719-1.549-3.5-2.17-9.245 3.665-16.733 6.276-8.056 12.248-7.294 15.246-6.123 8.556 3.34 13.637 17.691 15.968 30.928a4.456 4.456 0 0 1 .2 1.166 82.886 82.886 0 0 1 1.211 18.498zm4.6-46.213c-18.642-18.715-34.142-7.526-34.793-7.039a4.5 4.5 0 0 1 -5.46-7.155c.22-.169 22.266-16.614 46.63 7.842 10.532 10.573 14.3 13.633 15.615 14.516a4.5 4.5 0 0 1 -5.029 7.465c-2.853-1.922-8.402-7.034-16.965-15.629zm73 53.259a4.5 4.5 0 0 1 -6.309.777c-.135-.1-12.639-9.651-27.436-9.457-14.281.339-25.978 9.35-26.107 9.451a4.5 4.5 0 1 1 -5.544-7.088c.574-.45 11.9-9.165 26.943-11.023.109-.021.21-.057.321-.07a41.936 41.936 0 0 1 4.366-.269h.714.622a41.633 41.633 0 0 1 4.394.269c.113.013.216.05.326.071 15.042 1.86 26.363 10.572 26.939 11.022a4.5 4.5 0 0 1 .773 6.317zm48.721-34.786c-2.331 5.256-8.314 9.184-17.778 11.673a76.329 76.329 0 0 1 -8.909 1.751 62.522 62.522 0 0 0 -.633 13.576 4.5 4.5 0 0 1 -4.115 4.854c-.126.011-.251.016-.375.016a4.5 4.5 0 0 1 -4.479-4.13 83.038 83.038 0 0 1 1.223-18.569 4.438 4.438 0 0 1 .2-1.185c2.338-13.211 7.416-27.506 15.952-30.838 3-1.172 8.97-1.933 15.247 6.123 5.839 7.492 5.216 13.232 3.667 16.729zm.19-26.357a4.5 4.5 0 0 1 -6.289.841c-.717-.531-16.187-11.631-34.789 7.043-8.564 8.6-14.112 13.709-16.962 15.629a4.5 4.5 0 1 1 -5.029-7.465c1.31-.882 5.081-3.941 15.614-14.516 24.364-24.457 46.41-8.011 46.63-7.842a4.5 4.5 0 0 1 .823 6.31z"/><path d="m190.828 405.01a1.433 1.433 0 0 0 -.526-.1c-1.486 0-3.321 2.046-4.349 3.366-2.487 3.193-3.34 5.736-2.535 7.558 1.655 3.75 9.425 6.435 16.623 7.757-2.341-9.339-5.907-17.291-9.213-18.581z"/><path d="m342.287 274.5c-2.966 1.8-6.086 5.007-9.1 8.1-.807.827-1.6 1.64-2.388 2.426 12.886 9.853 23.934 13.494 32.87 10.793 9.663-2.923 14.677-12.646 16.5-17.042-14.817-17.268-20.076-15.112-37.882-4.277z"/><path d="m169.712 274.5c-17.8-10.832-23.062-12.988-37.866 4.272 1.846 4.412 6.916 14.183 16.537 17.066 8.782 2.631 19.6-.858 32.188-10.33-1.278-1.323-2.523-2.717-3.756-4.1-2.471-2.776-5.025-5.644-7.103-6.908z"/><path d="m400.106 168.19c14.9 6.01 28.782 2.231 41.252-11.234 9.275-10.012 15.4-23.548 17.253-38.115 7.105-55.881-15.128-97.039-21.78-107.875-27.022 9.849-68.44 31.062-68.482 68.515a44.02 44.02 0 0 1 -14.734 32.736l-3.092 2.759a67.592 67.592 0 0 1 4.294 8.374 119.344 119.344 0 0 0 12.255 22.068 26.882 26.882 0 0 0 7.625-20.492c-2.124-36.742 11.595-58.484 23.476-70.252 12.968-12.844 26.442-16.845 27.01-17.009a4.5 4.5 0 0 1 2.511 8.643 62.222 62.222 0 0 0 -23.5 15.069c-15.151 15.207-22.053 36.413-20.515 63.029a35.57 35.57 0 0 1 -14.764 31.163 4.5 4.5 0 0 1 -5.985-.754c-.361-.42-8.925-10.472-16.391-27.925a54.291 54.291 0 0 0 -29.608-29.478c-10.2-4.1-14.8-3.891-30.035-3.226-3.731.164-8.173.358-13.437.515 6.965 63.187 19.319 154.274 36.313 198.688 8.284 21.648-2.017 45.836-22.96 53.919-8.593 3.316-19.028 5-31.018 5h-.151c-18.125-.023-32.62-4.855-43.081-14.365-13.173-11.974-17.328-31.487-10.337-48.556 16.1-39.3 31.807-129.412 42.425-193.855-6.245-.2-11.6-.488-16.423-.747-15.633-.836-23.483-1.259-33.169 2.629a54.288 54.288 0 0 0 -29.609 29.479c-7.466 17.452-16.03 27.5-16.391 27.924a4.5 4.5 0 0 1 -5.985.754 35.57 35.57 0 0 1 -14.764-31.163c1.549-26.806-5.458-48.117-20.825-63.338-11.351-11.249-23.055-14.725-23.173-14.759a4.5 4.5 0 0 1 2.5-8.646c.568.164 14.043 4.165 27.01 17.009 11.881 11.768 25.6 33.51 23.476 70.252a26.887 26.887 0 0 0 7.626 20.492 119.447 119.447 0 0 0 12.254-22.067 67.535 67.535 0 0 1 4.294-8.375l-3.092-2.759a44.016 44.016 0 0 1 -14.733-32.736c-.046-37.451-41.455-58.663-68.477-68.513-6.642 10.858-28.869 52.132-21.786 107.873 1.851 14.567 7.978 28.1 17.253 38.115 12.47 13.467 26.352 17.243 41.252 11.234a11.831 11.831 0 0 1 12.641 2.471 14.535 14.535 0 0 1 3.893 14.149c-.783 2.97-2.762 5.726-5.053 8.918-5.2 7.243-12.064 16.817-8.527 33.912a41.793 41.793 0 0 1 20.969-12.229 4.5 4.5 0 0 1 2.042 8.766c-11.816 2.75-21.321 12.161-25.424 25.174-3.038 9.631-2.292 19.555 1.812 24.131 1.456 1.624 4.164 4.645 4.642 8.862.613 5.421 3.647 19.519 7.161 35.845 5.751 26.715 12.267 57 12.649 69.312 1.139 36.789 12.078 63.489 32.559 79.688a156.63 156.63 0 0 1 -12.4-27.627c-6.879-7.685-8.922-15.84-9.678-23.433-1.86-18.682 9.54-32.813 16.5-39.573a35.779 35.779 0 0 0 8.263-12.036c3.769-9.139 8.824-14.8 15.451-17.3 7.211-2.721 15.768-1.55 26.158 3.578 12.8 6.317 37.361 5.191 40.119 5.044.081 0 .162-.007.243-.007h.694c.082 0 .164 0 .246.007 7.349.4 28.985.27 40.721-5.1 10.744-4.917 19.432-5.941 26.569-3.13 6.387 2.516 11.267 8.046 14.921 16.9a35.787 35.787 0 0 0 8.261 12.035c6.962 6.761 18.363 20.893 16.5 39.574a40 40 0 0 1 -8.489 21.958 43.017 43.017 0 0 1 -5.126 5.3 131.388 131.388 0 0 1 -5.857 23.674c14.143-16.958 29.811-47.232 28.956-79.3-.549-20.545 7.875-54.663 14.025-79.576 2.834-11.477 5.281-21.389 5.785-25.841.415-3.67 2.5-6.232 4.171-8.29l.32-.394c3.04-3.763 3.915-14.817.028-26.119-2.5-7.266-8.873-19.963-23.488-23.364a4.5 4.5 0 1 1 2.041-8.766 38.811 38.811 0 0 1 20.6 12.666c3.386-17.06-3.323-26.955-8.422-34.458-2.165-3.186-4.035-5.938-4.792-8.81a14.536 14.536 0 0 1 3.893-14.148 11.831 11.831 0 0 1 12.641-2.463zm6.662-26.211c35.564-29.8 15.836-70.807 15.632-71.218a4.5 4.5 0 1 1 8.065-3.994 75.762 75.762 0 0 1 6.585 27.981c.629 14.8-3.111 36.206-24.5 54.13a4.5 4.5 0 1 1 -5.779-6.9zm-300.982 6.339a4.5 4.5 0 0 1 -6.339.56c-21.391-17.924-25.132-39.329-24.5-54.13a75.762 75.762 0 0 1 6.585-27.981 4.5 4.5 0 0 1 8.068 3.988c-.84 1.715-19.785 41.551 15.63 71.224a4.5 4.5 0 0 1 .556 6.339zm50.614 22.529c12.429-14.091 34.028-17.62 34.942-17.763a4.5 4.5 0 0 1 1.4 8.891c-.295.047-19.364 3.232-29.59 14.825a4.5 4.5 0 0 1 -6.75-5.953zm40.89 118.323a4.487 4.487 0 0 1 -5.187 3.686 14.128 14.128 0 0 1 -4.325-1.523c-12.194 9.55-23.4 14.357-33.464 14.357a29.52 29.52 0 0 1 -8.586-1.252c-17.129-5.183-23.083-24.451-23.328-25.268a4.494 4.494 0 0 1 .846-4.166c1.924-2.316 3.752-4.375 5.509-6.206a22.289 22.289 0 0 1 -2.232-11.368c.567-9.495 6.52-19.19 17.694-28.816a4.5 4.5 0 0 1 5.874 6.82c-9.131 7.864-14.173 15.656-14.584 22.532a14.155 14.155 0 0 0 .405 4.374c12.485-9.347 22.148-5.462 38.476 4.471 3.227 1.963 6.1 5.193 9.146 8.611 3.2 3.6 7.191 8.075 10.068 8.562a4.5 4.5 0 0 1 3.688 5.186zm-34.1-81.447a4.5 4.5 0 1 1 -6.814-5.881c14.972-17.35 36.667-14.509 46.046-10.579a4.5 4.5 0 0 1 -3.467 8.3c-.93-.374-21.399-8.494-35.769 8.16zm152.228-50.9a4.5 4.5 0 0 1 5.139-3.742c.914.143 22.512 3.672 34.941 17.763a4.5 4.5 0 0 1 -6.75 5.953c-10.254-11.625-29.4-14.8-29.592-14.826a4.5 4.5 0 0 1 -3.742-5.145zm-2.457 42.738a4.5 4.5 0 0 1 -3.477-8.3c9.381-3.928 31.075-6.77 46.046 10.579a4.5 4.5 0 0 1 -6.814 5.881c-14.496-16.794-35.548-8.244-35.759-8.157zm70.89 69.874c1.573 1.67 3.2 3.512 4.905 5.565a4.489 4.489 0 0 1 .846 4.166c-.246.817-6.2 20.085-23.329 25.268a29.52 29.52 0 0 1 -8.586 1.252c-10.222 0-21.63-4.968-34.053-14.828a4.5 4.5 0 0 1 -4.1-7.969c2.061-1.289 4.561-3.855 7.207-6.571 3.409-3.5 6.932-7.114 10.871-9.512 16.555-10.07 26.257-13.927 39-4.08 1.02-5.269-.195-14.806-14.7-27.3a4.5 4.5 0 1 1 5.873-6.818c22.096 19.043 19.108 34.224 16.062 40.83z"/><path d="m257.047 75.532c-10.519 64.485-28.124 172.411-46.491 217.263-5.562 13.581-2.322 29.048 8.062 38.486 8.756 7.96 21.218 12 37.038 12.025h.142c10.877 0 20.221-1.479 27.776-4.395 16.05-6.194 24.2-25.568 17.8-42.306-21.808-57-35.717-184.664-41.023-241.184-1.051 6.284-2.167 13.141-3.304 20.111z"/></svg>