<svg id="Layer_1" height="512" viewBox="0 0 512 512" width="512" xmlns="http://www.w3.org/2000/svg" data-name="Layer 1"><path d="m10.646 265.587a2.476 2.476 0 0 1 -.1.482 2.255 2.255 0 0 0 .083 1.266c.008.011 1.027.85 5.094.106a24.85 24.85 0 0 0 7.432-2.706 47.619 47.619 0 0 1 30.087-4.887c30.7 4.738 72.4-10.172 83.142-39.136a26.979 26.979 0 0 1 18.077-16.387c.265-1.429.543-2.642.792-3.613-5.556-7.46-4.509-18.534-3.947-22.286a43.815 43.815 0 0 1 -1.523-9.792c-8.261 5.815-14.734 14.319-18.23 18.923a43.15 43.15 0 0 1 -2.924 3.637 4.5 4.5 0 0 1 -6.449-6.279c.361-.369 1.3-1.6 2.2-2.8 4.677-6.162 14.17-18.642 27.008-24.874.06-.214.119-.421.18-.637-26.491 9.383-43.692 12.3-44.478 12.435a4.584 4.584 0 0 1 -.742.061 4.5 4.5 0 0 1 -.734-8.939c.2-.034 19.638-3.351 48.437-14.031.255-1.359.478-2.744.672-4.146-50.743-2.011-95.7 28.241-97.834 29.7-22.889 23.388-40.172 54.343-46.243 93.903z"/><path d="m167.5 125.122a32.852 32.852 0 0 0 -3.232 11.956 90.974 90.974 0 0 1 -1.908 13.405l-.007.03c-.881 4.126-1.928 7.935-2.889 11.212a23.714 23.714 0 0 0 -.448 9.474c3.943-1.705 9.371-2.988 14.736-.815 7.457 3.017 12.185 11.552 14.053 25.369l.721 2.955c1.207 4.019 3.171 7.5 4.565 7.745a4.5 4.5 0 0 1 -.766 8.934 4.583 4.583 0 0 1 -.777-.067c-5.13-.893-8.3-5.539-10.2-9.957-7.206 2.366-13.261 2.732-18.116 1.122-1.027 5.958-1.7 16.039 2.454 26.159a66.537 66.537 0 0 1 5.2 24.827 148.19 148.19 0 0 1 -2.061 24.685c-3.013 18.517 1.732 56.412 14.236 78.416a51.958 51.958 0 0 1 1.539-16.951 70.366 70.366 0 0 1 9.156-20.923 4.5 4.5 0 1 1 7.4 5.119c-.834 1.215-20.294 30.132-.385 51.833 11.555 12.6 16.465 18.452 18.76 22.378 3.312 5.663 5.3 6.714 7.751 7.581a34.441 34.441 0 0 0 20.6 1.1 24.766 24.766 0 0 1 14.691.549c6.106 2.057 13.138 1.533 22.132-1.648 2.45-.867 4.44-1.918 7.753-7.582 2.294-3.925 7.2-9.78 18.759-22.377 19.909-21.7.449-50.618-.389-51.839a4.5 4.5 0 0 1 7.407-5.113 70.366 70.366 0 0 1 9.156 20.923 51.958 51.958 0 0 1 1.539 16.951c12.5-22 17.25-59.9 14.236-78.416a151.589 151.589 0 0 1 -2.058-22.557 53.251 53.251 0 0 1 6.8-25.992c3.383-6.266 2.167-18.79.7-27.071-4.83 1.552-10.834 1.168-17.963-1.173-1.894 4.418-5.07 9.064-10.2 9.957a4.574 4.574 0 0 1 -.777.067 4.5 4.5 0 0 1 -.766-8.934c1.394-.243 3.358-3.726 4.565-7.749l.721-2.951c1.868-13.817 6.595-22.352 14.053-25.369 5.368-2.171 10.8-.887 14.742.819a23.712 23.712 0 0 0 -.454-9.477c-.961-3.278-2.008-7.087-2.89-11.213l-.006-.029a91 91 0 0 1 -1.909-13.407 32.891 32.891 0 0 0 -3.275-12.047c-.045-.092-6.341-12.841-20.481-25.377-18.801-16.679-41.9-25.142-68.651-25.154-25.767.712-48.348 9.408-67.117 25.847-13.6 11.908-20.178 23.815-20.7 24.775zm148.117 41a4.5 4.5 0 1 1 8.128 3.862c-.364.773-28.972 62.6-9.5 129.923a4.5 4.5 0 1 1 -8.647 2.5c-20.468-70.786 8.767-133.647 10.022-136.289zm-39.375 105.133a4.5 4.5 0 0 1 8.781 1.974c-.051.228-5.063 23.09-.052 41.281a4.5 4.5 0 1 1 -8.678 2.391c-5.616-20.395-.281-44.624-.051-45.646zm-45.856-3.4a4.5 4.5 0 0 1 5.379 3.4c.23 1.022 5.565 25.251-.052 45.646a4.5 4.5 0 1 1 -8.677-2.391c5.026-18.247 0-41.05-.052-41.278a4.5 4.5 0 0 1 3.402-5.379zm-7.366 64.409a4.5 4.5 0 0 1 .94 6.3c-.486.686-4.781 7.221 1.753 14.227a106.364 106.364 0 0 1 7.013 8.416 43.772 43.772 0 0 1 2.988 4.746c3.316 5.8 6.449 11.285 18.429 11.285h.013a1.136 1.136 0 0 1 .126 0c14.521.4 18.555-6.039 22.478-12.269.84-1.334 1.633-2.593 2.521-3.764a106.584 106.584 0 0 1 7.011-8.416c6.536-7.006 2.241-13.541 1.729-14.264a4.5 4.5 0 0 1 7.261-5.318c3.3 4.463 7.051 15.581-2.409 25.72a98.4 98.4 0 0 0 -6.418 7.711c-.653.863-1.346 1.962-2.079 3.127-4.157 6.6-10.386 16.489-28.856 16.491-.468 0-.941-.007-1.425-.02-17.169-.017-22.6-9.525-26.195-15.82a37.189 37.189 0 0 0 -2.348-3.778 97.949 97.949 0 0 0 -6.42-7.711c-9.458-10.139-5.71-21.257-2.407-25.72a4.5 4.5 0 0 1 6.295-.945zm-32.628-168.28a4.5 4.5 0 0 1 6 2.134c1.255 2.642 30.49 65.5 10.024 136.285a4.5 4.5 0 0 1 -8.647-2.5c19.528-67.536-9.214-129.307-9.506-129.923a4.5 4.5 0 0 1 2.129-5.996z"/><path d="m300.286 412.5c.238-2.676.578-5.183.991-7.524-.413.589-.762 1.125-1.04 1.6-3.814 6.519-7.207 9.642-12.52 11.522a52.308 52.308 0 0 1 -17.385 3.4 32.952 32.952 0 0 1 -10.622-1.707 15.8 15.8 0 0 0 -9.365-.42 43.483 43.483 0 0 1 -26.055-1.274c-5.313-1.88-8.706-5-12.519-11.521-.278-.476-.627-1.011-1.041-1.6.413 2.341.753 4.847.991 7.524.608 6.805 16.486 25.891 38.23 24.973 3.859-.162 7.762-.162 11.6 0 21.665.927 38.149-18.373 38.735-24.973z"/><path d="m155.679 133.018a43.481 43.481 0 0 1 3.735-11.84c.023-.05.046-.1.072-.148.1-.185.943-1.792 2.593-4.344a212.364 212.364 0 0 0 -70.8 27.567c17.901-6.743 40.4-12.316 64.4-11.235z"/><path d="m341.6 178.737c-4.077 1.67-7.073 8.047-8.45 17.974 5.465 1.843 11.586 2.844 15.1-.008 4.155-3.374 4.189-11.478 3.686-15.939-2.211-1.336-6.676-3.522-10.336-2.027z"/><path d="m352.58 121.149a43.6 43.6 0 0 1 3.748 11.869c24-1.08 46.507 4.5 64.407 11.242a212.365 212.365 0 0 0 -70.64-27.543c1.589 2.601 2.393 4.241 2.485 4.432z"/><path d="m488.854 264.735a24.88 24.88 0 0 0 7.432 2.707c3.554.647 4.923.08 5.095-.107a2.525 2.525 0 0 0 .081-1.267 4.42 4.42 0 0 1 -.1-.481c-6.071-39.56-23.35-70.515-46.246-93.9-2.147-1.466-47.181-31.692-97.834-29.7q.291 2.1.672 4.145c28.8 10.68 48.238 14 48.437 14.031a4.5 4.5 0 0 1 -.734 8.939 4.584 4.584 0 0 1 -.742-.061c-.786-.131-17.987-3.052-44.478-12.435.061.216.12.423.18.637 12.838 6.232 22.331 18.712 27.007 24.874.908 1.194 1.845 2.43 2.206 2.8a4.5 4.5 0 0 1 -6.45 6.279 43.393 43.393 0 0 1 -2.923-3.637c-3.5-4.6-9.969-13.108-18.23-18.923a43.887 43.887 0 0 1 -1.522 9.792c.564 3.774 1.621 14.958-4.047 22.419.224 1.041.5 2.382.779 3.955a26.4 26.4 0 0 1 18.188 15.912c8.627 23.248 44.9 45.034 83.142 39.136a47.583 47.583 0 0 1 30.087 4.885z"/><path d="m163.758 196.7c3.512 2.852 9.632 1.851 15.1.008-1.377-9.927-4.373-16.3-8.45-17.974-3.65-1.494-8.116.688-10.332 2.028-.506 4.457-.476 12.566 3.682 15.938z"/></svg>