<svg id="Layer_1" height="512" viewBox="0 0 512 512" width="512" xmlns="http://www.w3.org/2000/svg" data-name="Layer 1"><path d="m328.291 225.005a4.826 4.826 0 0 0 -1.976-.422 4.949 4.949 0 0 0 -4.343 2.577c-3.88 7.152-8.643 17.984-9.3 28.963a4.824 4.824 0 0 0 2.734 4.657c12.046 5.574 21.869 6.06 27.987 5.48a4.806 4.806 0 0 0 4.22-3.647c2.9-11.904 1.897-28.091-19.322-37.608z"/><path d="m299.864 384.12c4.259.85 9.733 2 16.089 3.469a43.689 43.689 0 0 0 2.6-4.1c-8.503.163-15.018.444-18.689.631z"/><path d="m221.152 345.105a9.48 9.48 0 0 1 3.058 3.06 29.526 29.526 0 0 1 3.261-6.41 9.438 9.438 0 0 1 -6.319 3.35z"/><path d="m212.954 342.059c-1.83-1.409-5.581-4.24-11.044-8.112q-1.416 1.87-2.644 3.673c5.649 1.78 10.299 3.307 13.688 4.439z"/><path d="m299.047 342.058c3.325-1.11 7.862-2.6 13.364-4.336q-1.211-1.756-2.6-3.58c-5.311 3.773-8.964 6.53-10.764 7.916z"/><path d="m285.858 328.248c.184-.147 4.054-3.218 11.144-8.3a216.029 216.029 0 0 0 -28.785-22.833 22.44 22.44 0 0 0 -25.328.046 213.9 213.9 0 0 0 -28.218 22.554c7.3 5.216 11.283 8.38 11.469 8.529a9.512 9.512 0 0 1 2.389 11.956c1.007-1.422 2.043-2.752 3-3.974a52.447 52.447 0 0 0 3.814-5.289c3.329-5.7 3.488-8.8 3.245-9.669a4.5 4.5 0 0 1 6.848-5.8c1.329 1.352 5 6.592-1.547 18.634a25.57 25.57 0 0 1 12.852 5.926 23.555 23.555 0 0 1 11.445-5.8c-6.647-12.133-2.947-17.4-1.614-18.761a4.5 4.5 0 0 1 6.848 5.8c-.243.866-.084 3.97 3.245 9.669a52.447 52.447 0 0 0 3.814 5.289c.952 1.221 1.986 2.549 2.993 3.968a9.511 9.511 0 0 1 2.386-11.945z"/><path d="m212.138 384.12c-3.68-.189-10.216-.471-18.75-.633a44.382 44.382 0 0 0 2.621 4.111c6.372-1.47 11.86-2.626 16.129-3.478z"/><path d="m290.847 345.1a9.448 9.448 0 0 1 -6.314-3.343 29.527 29.527 0 0 1 3.257 6.4 9.477 9.477 0 0 1 3.057-3.057z"/><path d="m299 362.143a9.487 9.487 0 0 1 -10.933-3.5 21.469 21.469 0 0 1 -5.076 8.127 21.041 21.041 0 0 1 -13.969 6.771q-.612.036-1.244.037a17.676 17.676 0 0 1 -11.779-4.1c-3.639 3.275-8.741 4.32-13.023 4.061a21.04 21.04 0 0 1 -13.968-6.77 21.474 21.474 0 0 1 -5.077-8.129 9.486 9.486 0 0 1 -10.931 3.504h-.006c-.319-.113-8.744-3.068-22.347-7.311a41.111 41.111 0 0 0 -1.824 9.562c16.842.216 27.813.95 28 .963a9.511 9.511 0 0 1 5.566 16.663c-.1.085-.206.16-.308.241l.037-.006a9.5 9.5 0 0 1 3.047 18.754c-.215.035-4.841.807-12.532 2.4q3.478 2.454 7.454 4.826c9.825 5.856 22.066 4.473 29.771-3.362l.035-.036a8.5 8.5 0 0 1 6.109-2.564 8.46 8.46 0 0 1 6.082 2.552l.044.045c7.736 7.842 19.958 9.214 29.774 3.365q3.979-2.372 7.452-4.826c-7.691-1.6-12.316-2.368-12.531-2.4a9.5 9.5 0 1 1 3.05-18.753l.055.009c-.1-.078-.2-.148-.294-.23a9.5 9.5 0 0 1 5.544-16.679c.195-.013 11.1-.736 27.814-.955a41.046 41.046 0 0 0 -1.871-9.487c-13.466 4.197-21.802 7.115-22.121 7.228z"/><path d="m394.44 315.642a163.7 163.7 0 0 0 -3.852-29.894 658.958 658.958 0 0 0 -73.479 43.309c1.475 1.933 2.878 3.9 4.188 5.9 12.417-3.8 28.048-8.323 45.214-12.693q14.445-3.676 27.929-6.622z"/><path d="m138.425 384.648a82.47 82.47 0 0 0 15.842 14.211q3.117-.972 6.1-1.861c9.418-2.812 18.328-5.192 26.3-7.167a48.489 48.489 0 0 1 -3.388-6.462c-12.734-.058-28.279.216-44.854 1.279z"/><path d="m308.174 423.764c2.9-3.335 6.18-7.116 14.333-9.258q5.272-1.386 10.164-3.1c-8.047-2.184-15.431-4-21.809-5.471a112.158 112.158 0 0 1 -14.346 10.038 34.814 34.814 0 0 1 -7.889 3.465 61.364 61.364 0 0 1 -10.582 8.987c9.484 4.582 20.783 5.11 28.094-2.4.711-.736 1.353-1.477 2.035-2.261z"/><path d="m203.826 423.764c.682.784 1.324 1.525 2.035 2.255 6.061 6.226 18.653 8.163 30.283 2.827a53.022 53.022 0 0 1 -10.788-8.9 34.636 34.636 0 0 1 -9.872-3.975 112.6 112.6 0 0 1 -14.353-10.036c-6.376 1.468-13.758 3.286-21.8 5.469q4.9 1.71 10.164 3.1c8.152 2.144 11.435 5.925 14.331 9.26z"/><path d="m357.733 398.859a82.5 82.5 0 0 0 15.831-14.2c-.9-.059-1.8-.117-2.691-.17-15.57-.933-30.163-1.175-42.231-1.119a48.2 48.2 0 0 1 -3.355 6.448c7.985 1.977 16.913 4.36 26.348 7.178q2.978.892 6.098 1.863z"/><path d="m179.816 364.334a48.749 48.749 0 0 1 2.21-12.149c-16.992-5.131-39.5-11.437-63.751-16.9a99.916 99.916 0 0 0 8.469 31.147q6.694-.556 13.685-.976c14.293-.856 27.808-1.126 39.387-1.122z"/><path d="m385.256 366.429a99.884 99.884 0 0 0 8.466-31.118c-24.35 5.488-46.951 11.82-63.971 16.957a48.693 48.693 0 0 1 2.257 12.07c11.63-.007 25.213.264 39.563 1.115q7.001.416 13.685.976z"/><path d="m145.489 322.266c17.021 4.333 32.533 8.818 44.9 12.6 1.318-2.033 2.733-4.032 4.22-6a659.938 659.938 0 0 0 -73.2-43.115 163.659 163.659 0 0 0 -3.851 29.889q13.49 2.955 27.931 6.626z"/><path d="m380.719 209.984c7.417 1.369 26.826 3.28 41.555-10.123 20.541-18.687 25.232-60.671 13.567-121.411-.053-.289-4.35-23.234-19.012-26.271-23.294-4.82-58 41.415-76.611 69.406-.266.4-.822 1.144-2.169 2.939-2.233 2.977-5.971 7.96-8.757 12.023a20.919 20.919 0 0 1 -24.36 7.8c-29.828-10.873-70.925-6.71-93-4.475l-1.315.134a41.636 41.636 0 0 1 -38.833-18.421c-18.621-28-53.329-74.263-76.634-69.4-14.481 3.022-18.935 25.971-18.976 26.2-11.694 60.875-6.98 102.879 13.619 121.538 14.8 13.406 34.106 11.459 41.487 10.073.276-9.649-1.117-14.551-1.133-14.6a4.5 4.5 0 0 1 8.611-2.621c.316 1.029 7.485 25.641-11.816 74.518a680.165 680.165 0 0 1 80.337 47.242 221.591 221.591 0 0 1 30.539-24.8 31.39 31.39 0 0 1 35.438-.068 223.952 223.952 0 0 1 31.138 25.1 679.529 679.529 0 0 1 80.664-47.467c-19.3-48.878-12.132-73.49-11.816-74.519a4.5 4.5 0 0 1 8.61 2.623c-.034.104-1.405 5.003-1.133 14.58zm-229.193-15.884c-13.382-9.1-10.719-38.164-7.9-68.929 2.785-30.384-37.919-51.186-38.33-51.393a4.5 4.5 0 1 1 4.037-8.043 110.1 110.1 0 0 1 22.585 15.95c14.922 13.719 22.069 29.041 20.671 44.307-2.228 24.3-5 54.546 4 60.666a4.5 4.5 0 0 1 -5.063 7.442zm48.843 74.848a65.937 65.937 0 0 1 -27.733 6.5c-1.79 0-3.42-.088-4.877-.224a13.808 13.808 0 0 1 -12.12-10.481c-2.442-10.033-4.95-34.789 24.386-47.946a13.967 13.967 0 0 1 17.914 6.075c4.316 7.954 9.618 20.088 10.371 32.719a13.887 13.887 0 0 1 -7.941 13.357zm26.906-12.593a4.5 4.5 0 1 1 -8.865-1.55c4.361-24.938-12.224-37.432-12.391-37.555a4.5 4.5 0 1 1 5.324-7.256c.87.638 21.244 15.982 15.932 46.361zm62.658 3.658a4.5 4.5 0 0 1 -5.208-3.658c-5.312-30.379 15.062-45.723 15.932-46.361a4.5 4.5 0 0 1 5.343 7.245c-.724.543-16.723 12.879-12.406 37.566a4.5 4.5 0 0 1 -3.661 5.208zm66.428 4.727a13.809 13.809 0 0 1 -12.121 10.481c-1.456.136-3.086.224-4.876.224a65.94 65.94 0 0 1 -27.733-6.5 13.889 13.889 0 0 1 -7.941-13.361c.753-12.63 6.055-24.764 10.371-32.718a13.967 13.967 0 0 1 17.914-6.075c29.336 13.16 26.825 37.916 24.386 47.949zm12.013-139.57c2.819 30.766 5.482 59.827-7.9 68.93a4.5 4.5 0 0 1 -5.063-7.442c9-6.12 6.228-36.364 4-60.666-1.4-15.266 5.749-30.588 20.671-44.307a110.1 110.1 0 0 1 22.585-15.95 4.5 4.5 0 0 1 4.037 8.043c-.581.295-41.104 21.153-38.33 51.392z"/><path d="m251.064 361.3a5.428 5.428 0 0 1 9.871 0c1.586 3.436 6.573 3.32 7.551 3.258a12.092 12.092 0 0 0 7.966-3.97c5.576-5.9 3.61-10.147-2.472-18.036-2.933.1-8.735.868-12.115 5.2a6.427 6.427 0 0 1 -5.045 2.494h-.048a6.435 6.435 0 0 1 -5.034-2.42c-3.626-4.506-10.429-5.216-13.71-5.281-6.088 7.9-8.058 12.144-2.479 18.048a12.09 12.09 0 0 0 7.965 3.969c.979.05 5.965.168 7.55-3.262z"/><path d="m273.752 420.439a32.279 32.279 0 0 1 -17.752-8.972 32.17 32.17 0 0 1 -16.567 8.764c4.319 2.945 10.089 5.713 16.7 5.915 5.923.165 11.823-1.752 17.619-5.707z"/><path d="m185.685 224.583a4.829 4.829 0 0 0 -1.976.422c-21.219 9.517-22.222 25.7-19.326 37.608a4.806 4.806 0 0 0 4.219 3.647c6.123.578 15.942.094 27.988-5.48a4.824 4.824 0 0 0 2.734-4.656c-.654-10.98-5.417-21.812-9.3-28.964a4.949 4.949 0 0 0 -4.339-2.577z"/><path d="m227.607 341.6a9.5 9.5 0 0 0 .922-1.4q-.538.759-1.058 1.552c.044-.052.093-.097.136-.152z"/><path d="m284.533 341.761c-.348-.533-.705-1.054-1.065-1.564a9.35 9.35 0 0 0 .926 1.407c.044.055.094.103.139.157z"/><path d="m220.193 340.158a4.5 4.5 0 0 0 2.819-8.011c-.9-.719-91.187-72.364-215.859-105.412a4.5 4.5 0 1 0 -2.306 8.7c122.76 32.541 211.653 103.026 212.534 103.734a4.481 4.481 0 0 0 2.812.989z"/><path d="m214.664 357.428a4.5 4.5 0 0 0 3-8.487c-.318-.112-32.3-11.365-73.406-21.83-55.38-14.1-100.107-20.151-132.933-18a4.5 4.5 0 0 0 .59 8.981c76.185-4.992 201.493 38.891 202.749 39.336z"/><path d="m18.337 406.229a4.5 4.5 0 0 0 6.231 1.29c56.35-37.015 189.941-28.289 191.286-28.2a4.5 4.5 0 0 0 .619-8.978 666.084 666.084 0 0 0 -75.748.1c-55.513 3.295-96.255 13.238-121.098 29.559a4.5 4.5 0 0 0 -1.29 6.229z"/><path d="m57.646 460.171a4.485 4.485 0 0 0 2.769-.955c58.218-45.535 162.9-62.973 163.953-63.144a4.5 4.5 0 1 0 -1.443-8.882 545.248 545.248 0 0 0 -61.129 14.6c-31.413 9.381-75.462 25.729-106.926 50.337a4.5 4.5 0 0 0 2.776 8.045z"/><path d="m504.847 226.735c-124.672 33.048-214.961 104.693-215.859 105.412a4.5 4.5 0 0 0 5.631 7.022c.881-.708 89.681-71.169 212.534-103.734a4.5 4.5 0 1 0 -2.306-8.7z"/><path d="m500.677 309.112c-32.824-2.152-77.553 3.9-132.933 18-41.106 10.465-73.088 21.718-73.406 21.83a4.5 4.5 0 1 0 3 8.487c1.258-.445 126.586-44.333 202.751-39.335a4.5 4.5 0 0 0 .59-8.981z"/><path d="m291.348 375.143a4.5 4.5 0 0 0 4.8 4.179c1.341-.093 134.911-8.834 191.285 28.2a4.5 4.5 0 0 0 4.94-7.522c-24.843-16.318-65.585-26.261-121.1-29.553a666.926 666.926 0 0 0 -75.748-.1 4.5 4.5 0 0 0 -4.177 4.796z"/><path d="m454.355 460.171a4.5 4.5 0 0 0 2.775-8.045c-31.464-24.608-75.513-40.956-106.926-50.337a545.248 545.248 0 0 0 -61.129-14.6 4.5 4.5 0 1 0 -1.443 8.882c1.051.171 105.735 17.609 163.953 63.144a4.485 4.485 0 0 0 2.77.956z"/></svg>