<svg id="Layer_1" height="512" viewBox="0 0 512 512" width="512" xmlns="http://www.w3.org/2000/svg" data-name="Layer 1"><path d="m344.908 121.86a43 43 0 0 1 7.163 7.105 97.858 97.858 0 0 1 15.271-2.578 6.929 6.929 0 0 0 -.384-6.282c-4.573.792-9.067 1.407-13.371 1.876a14.152 14.152 0 0 1 -1.535.083 14.451 14.451 0 0 1 -11.721-6.057c-3.9-5.447-8.755-14.014-9.7-23.894a17.088 17.088 0 0 0 -4.147-10c-.018-.019-.036-.038-.053-.058-4.954-5.309-11.405-5.5-19.714-.592a4.5 4.5 0 0 1 -4.58-7.748 41.072 41.072 0 0 1 5-2.529c-18.129-9.782-35.98 1.41-36.184 1.541a4.494 4.494 0 0 1 -5.653-6.907 27.779 27.779 0 0 0 -18.59 0 4.494 4.494 0 0 1 -5.649 6.914 35.209 35.209 0 0 0 -5.246-2.6 4.362 4.362 0 0 1 -.58-.228c-6.753-2.626-18.461-5.228-30.388 1.268a41.252 41.252 0 0 1 5.017 2.538 4.5 4.5 0 1 1 -4.58 7.748c-8.313-4.915-14.766-4.717-19.72.6l-.04.042a17.087 17.087 0 0 0 -4.154 10.007c-.939 9.854-5.77 18.4-9.656 23.84a14.558 14.558 0 0 1 -11.811 6.105 14.176 14.176 0 0 1 -1.55-.084c-4.242-.463-8.669-1.07-13.174-1.846a7.27 7.27 0 0 0 -.231 6.3 96.748 96.748 0 0 1 14.744 2.532 40.038 40.038 0 0 1 7.529-7.188 4.5 4.5 0 0 1 5.111 7.408c-.172.121-9.929 7.081-11.478 17.957a24.088 24.088 0 0 0 3.012 14.844 52.853 52.853 0 0 1 9.925-13.7c1.361-10.666 6.04-20.713 6.887-22.463a4.5 4.5 0 1 1 8.1 3.918c-2.2 4.557-6.689 16.4-6.338 25.3a38.59 38.59 0 0 1 5.864-5.9 4.5 4.5 0 0 1 7.264 2.84c1.547 10.245 4.326 20.5 6.869 26.22l.773-3.069a4.5 4.5 0 0 1 8.64-.3c3.677 11.218 9.5 23.521 14.332 29.575v-5.162a4.5 4.5 0 0 1 8.572-1.913c.091.192 8.971 18.861 21.4 30.184 13.4-10.815 20.9-29.709 20.976-29.9a4.5 4.5 0 0 1 8.692 1.634v5.162c4.831-6.054 10.655-18.357 14.332-29.575a4.5 4.5 0 0 1 8.64.3l.773 3.069c2.543-5.717 5.322-15.975 6.869-26.22a4.5 4.5 0 0 1 7.264-2.84 38.526 38.526 0 0 1 5.872 5.907c.364-8.909-4.143-20.755-6.346-25.311a4.5 4.5 0 1 1 8.1-3.918 80.68 80.68 0 0 1 6.866 22.284 55.738 55.738 0 0 1 10.56 15.229 24.782 24.782 0 0 0 2.8-14.459c-1.484-11.79-11.9-19.706-12.006-19.785a4.5 4.5 0 0 1 5.358-7.231z"/><path d="m326.11 241.734a15.9 15.9 0 0 0 -2.786-9 27.363 27.363 0 0 0 -12.542 7.171c-3.9 4.025-6.475 9.41-7.718 16.1a15.8 15.8 0 0 0 7.118 1.68 15.962 15.962 0 0 0 15.928-15.951z"/><path d="m337.49 82.828a28.126 28.126 0 0 1 2.1 8.431c.752 7.883 4.8 14.959 8.053 19.507a5.4 5.4 0 0 0 4.965 2.268c38.428-4.185 63.8-16.551 73.384-35.762 9.888-19.827.265-39.917-4.331-47.634a55.745 55.745 0 0 0 -14.412-15.6c3.154 9.544 5.093 22.74-1.139 35.386-8.977 18.234-32.05 29.455-68.62 33.404zm76.281-26.789a4.5 4.5 0 0 1 3.071 5.558c-.228.787-5.738 19.333-22.161 22.569a4.5 4.5 0 0 1 -1.741-8.83c11-2.167 15.214-16.1 15.255-16.24a4.506 4.506 0 0 1 5.576-3.057z"/><path d="m234.611 379.034c2.358 1.044 9.707 1.742 17.838 1.663 2.2-.019 4.2-.01 6.128.026 8.613.154 16.175-.521 18.812-1.689a9.63 9.63 0 0 0 5.479-6.578 53.657 53.657 0 0 1 -16.52-4.2l-.174-.07a27.09 27.09 0 0 0 -20.32-.011l-.144.058a53.937 53.937 0 0 1 -16.579 4.226 9.633 9.633 0 0 0 5.48 6.575z"/><path d="m188.694 232.714a15.936 15.936 0 0 0 20.241 23.3c-1.249-6.726-3.841-12.13-7.77-16.161a27.424 27.424 0 0 0 -12.471-7.139z"/><path d="m276.679 419.52a5.537 5.537 0 0 1 6.242 1.228c.74.773 1.55 1.647 2.315 2.485 2.949-5.1 6.669-17.2 8.773-29.284a4.5 4.5 0 0 1 8.247-1.618l1.215 1.939c5.576-9.8 3.105-22.2-.145-31.207a17.753 17.753 0 0 1 -4.908 5.553 19.411 19.411 0 0 1 -6.254 2.99c-.542 4.641-2.772 11.959-11.133 15.658-4.686 2.074-13.607 2.483-19.892 2.483-.982 0-1.9-.01-2.725-.026-1.843-.032-3.77-.041-5.893-.024-5.89.052-16.524-.207-21.552-2.433-8.35-3.695-10.585-11-11.131-15.641a19.255 19.255 0 0 1 -6.256-3.007 17.734 17.734 0 0 1 -4.893-5.528c-3.238 9.013-5.7 21.406-.157 31.177l1.212-1.934a4.5 4.5 0 0 1 8.247 1.618 135.345 135.345 0 0 0 6.472 24.3 4.729 4.729 0 0 1 1.9-2.167 4.5 4.5 0 0 1 6.849 2.6c2.769 10.5 8.616 25.95 14.023 32.175l.344-.656a55.874 55.874 0 0 0 4.709-12.391l1.941-7.79a4.5 4.5 0 0 1 8.732 2.176l-1.94 7.79c-.373 1.5-.816 2.972-1.295 4.438l.811 2.36a54.276 54.276 0 0 0 4.907-4.533c3.929-4.129 8.5-10.471 7.978-17.238a5.55 5.55 0 0 1 3.257-5.493z"/><path d="m447.964 182.778c10.5-7.335 13.523-14.654 8.98-21.752a3.461 3.461 0 0 0 -3.168-1.538c-8.917.6-26.733-.524-45.875-14.906-16.9-12.7-40.171-9.783-50.667-7.56a36.018 36.018 0 0 1 2.141 5.493c4.609-1.113 11.021-1.042 18.2.254a80.4 80.4 0 0 1 27.988 10.861c22.641 14.3 35.235 11.4 35.355 11.363a4.5 4.5 0 1 1 2.394 8.675 22.333 22.333 0 0 1 -5.538.553c-6.774 0-19.519-1.931-37.015-12.981-16.092-10.162-34.228-11.722-40.032-9.769.064 7.667-2.66 15.269-8.132 22.672q.368 1.494.661 3.067a65.51 65.51 0 0 1 11.467 1.976 93.867 93.867 0 0 1 11.5 3.692c.08.028.156.062.235.1a71.787 71.787 0 0 1 13.81 7.195c14.932 10.172 36.498 7.411 57.696-7.395z"/><path d="m297.409 472.288c27.666-19.157 39.49-67.209 39.617-67.74a4.5 4.5 0 0 1 8.85.562l.952 8.721c7.729-11.393 11.972-40.553 12.587-61.414a4.5 4.5 0 0 1 8.622-1.669l1.139 2.606c1.78-11.164 2.434-29.488 1.93-45.49a4.5 4.5 0 0 1 8.684-1.793l4.725 11.972c10.608-17.926 6.209-47.11 5.053-53.6a37.1 37.1 0 0 0 -4.82-4.113 4.5 4.5 0 0 1 .989-8.891c1.329 0 3.321 0 10.69 7.048a61.168 61.168 0 0 0 -19.14-29.5 4.5 4.5 0 1 1 5.413-7.187 57.242 57.242 0 0 1 8.17 7.99c.346-18.251-15.341-35.4-18.653-38.813a81.579 81.579 0 0 0 -17.994-4.64 63.055 63.055 0 0 1 -1.311 14.353 37.828 37.828 0 0 0 .337 16.758c5.15 20.431 3.281 25.833 2.667 27.608-1.378 3.982-4.655 9.313-9.74 15.845a37.189 37.189 0 0 0 -6.915 14.63c-2.675 11.939-9.262 33.856-23.329 46.5a28.592 28.592 0 0 0 -8.427 12.756 35.708 35.708 0 0 0 -1.5 12.53 83.556 83.556 0 0 1 7.906 19.6c4.051 15.878 1.426 29.154-7.591 38.389a4.5 4.5 0 0 1 -5.593.68c-2.639 11.153-7.172 24.918-13.878 27.879a4.5 4.5 0 0 1 -5.2-1.145l-.092-.1c-4.014 14.6-20.128 24.73-20.932 25.228a4.49 4.49 0 0 1 -6.159-1.413l-1.689 3.228a4.494 4.494 0 0 1 -5.6 2.115c-8.215-3.151-14.669-16.928-18.612-27.822a4.5 4.5 0 0 1 -3.427-.087c-6.706-2.961-11.239-16.726-13.878-27.879a4.5 4.5 0 0 1 -5.593-.68c-19.708-20.187-3.186-51.859.316-57.992a35.706 35.706 0 0 0 -1.5-12.525 28.583 28.583 0 0 0 -8.426-12.755c-14.067-12.646-20.654-34.563-23.329-46.5a37.178 37.178 0 0 0 -6.915-14.629c-5.085-6.533-8.362-11.864-9.74-15.846-.614-1.775-2.483-7.177 2.667-27.607a37.833 37.833 0 0 0 .337-16.759 63.791 63.791 0 0 1 -1.331-14.729 84.855 84.855 0 0 0 -19.388 5.488c-2.905 3.073-17.714 19.728-16.912 37.959a56.541 56.541 0 0 1 7.854-7.615 4.5 4.5 0 0 1 5.426 7.181 61.861 61.861 0 0 0 -19.126 29.488c7.352-7.027 9.34-7.027 10.668-7.027a4.5 4.5 0 0 1 .989 8.891 37.1 37.1 0 0 0 -4.82 4.113c-1.155 6.481-5.556 35.669 5.054 53.6l4.724-11.972a4.5 4.5 0 0 1 8.684 1.793c-.514 16.353.12 34.5 1.9 45.55l1.165-2.666a4.5 4.5 0 0 1 8.622 1.669c.615 20.861 4.858 50.021 12.587 61.414l.952-8.721a4.5 4.5 0 0 1 8.849-.564c.128.531 11.995 48.587 39.617 67.738l-1.619-6.643a4.5 4.5 0 0 1 7.936-3.812c6.489 8.418 25.1 30.856 35.093 36.133 10-5.28 28.607-27.716 35.093-36.133a4.5 4.5 0 0 1 7.936 3.812z"/><path d="m90.335 29.638c-4.6 7.716-14.217 27.8-4.333 47.629 9.573 19.2 34.927 31.568 73.322 35.76a5.513 5.513 0 0 0 5.064-2.309c3.244-4.538 7.268-11.6 8.018-19.46a28.127 28.127 0 0 1 2.1-8.43c-36.57-3.949-59.643-15.17-68.624-33.4-6.231-12.646-4.293-25.842-1.139-35.387a55.779 55.779 0 0 0 -14.408 15.597zm13.47 29.46c.068.229 4.295 14.078 15.255 16.238a4.5 4.5 0 1 1 -1.74 8.83c-16.42-3.236-21.934-21.782-22.162-22.566a4.5 4.5 0 0 1 8.647-2.5z"/><path d="m309.918 315.34c12.207-10.973 18.123-30.883 20.563-41.775a46.258 46.258 0 0 1 8.6-18.192c4.351-5.589 7.312-10.3 8.336-13.259.777-2.242.426-9.322-2.888-22.465-.317-1.258-.562-2.537-.77-3.823-4.71-1.715-17.067-4.579-29.758 6.057a4.5 4.5 0 1 1 -5.781-6.9c13.642-11.432 27.164-10.658 34.978-8.709a47.154 47.154 0 0 1 .9-7.4 49.2 49.2 0 0 0 -6.542-37.134 18.905 18.905 0 0 1 -3.18 6.441 4.5 4.5 0 0 1 -7.691-.978 31.149 31.149 0 0 0 -3-5.029c-.559 2.638-1.259 5.636-2.092 8.661-3.836 13.921-8.184 20.324-14.1 20.757a4.5 4.5 0 0 1 -3.534-1.329c-5 11.746-12.968 26.128-22.274 26.9a4.479 4.479 0 0 1 -3.77-1.536c-4.229 6.791-10.2 14.577-17.856 20.238a6.776 6.776 0 0 1 -4.029 1.338 6.594 6.594 0 0 1 -4.275-1.568c-6.992-5.912-12.933-13.8-17.283-20.548a4.563 4.563 0 0 1 -.754.9 4.479 4.479 0 0 1 -3.419 1.173c-9.306-.769-17.279-15.151-22.274-26.9a4.493 4.493 0 0 1 -3.525 1.34c-5.914-.433-10.262-6.836-14.1-20.757-.833-3.024-1.532-6.021-2.091-8.659a31.233 31.233 0 0 0 -3 5.027 4.5 4.5 0 0 1 -7.691.978 18.95 18.95 0 0 1 -3.2-6.523 46.749 46.749 0 0 0 -5.233 10.8 4.517 4.517 0 0 1 -.215.684 47.371 47.371 0 0 0 -1.908 8.907c-.011.09-.01.179-.028.268a53.148 53.148 0 0 0 .867 16.553 47.154 47.154 0 0 1 .905 7.4c7.814-1.95 21.336-2.724 34.978 8.709a4.5 4.5 0 0 1 -5.781 6.9c-12.692-10.637-25.048-7.771-29.758-6.056-.208 1.286-.453 2.565-.77 3.823-3.314 13.142-3.665 20.222-2.888 22.464 1.024 2.961 3.985 7.67 8.336 13.26a46.263 46.263 0 0 1 8.6 18.191c2.439 10.892 8.355 30.8 20.562 41.775a37.572 37.572 0 0 1 11.02 16.83 44.613 44.613 0 0 1 1.795 16.883c-.345 4.013.073 9.407 4.022 12.316a11.776 11.776 0 0 0 5.7 2.049h.045s.029.008.044.009c4.575.509 10.565-.662 17.545-3.507l.283-.114a36.057 36.057 0 0 1 27.058.054l.179.073c10.474 4.27 18.761 4.783 23.305 1.436 3.949-2.909 4.367-8.3 4.022-12.316a44.625 44.625 0 0 1 1.794-16.882 37.589 37.589 0 0 1 11.021-16.835zm-92.35-34.062a4.5 4.5 0 0 1 -8.9-1.367 88.745 88.745 0 0 0 1.113-14.524 24.927 24.927 0 0 1 -30.629-34 29.2 29.2 0 0 0 -3.486.135 4.5 4.5 0 0 1 -1.139-8.928c.816-.1 20.05-2.383 33.079 10.984 5.939 6.092 9.5 14.314 10.71 24.538v.015a86.559 86.559 0 0 1 -.748 23.147zm18.032 73.065c-5.623 0-10.2-2.418-12.9-6.809-3.525-5.745-2.976-13.464-.612-18.12a4.5 4.5 0 1 1 8.025 4.074 10.82 10.82 0 0 0 .258 9.338c.663 1.081 1.927 2.517 5.227 2.517a4.5 4.5 0 0 1 0 9zm3.69-65.659a4.5 4.5 0 1 1 -8.539-2.844c7.458-22.387-6.649-39.154-6.792-39.321a4.5 4.5 0 1 1 6.824-5.867c.726.839 17.564 20.856 8.511 48.032zm40.919-48.032a4.5 4.5 0 0 1 6.833 5.857c-.6.707-14.2 17.119-6.8 39.331a4.5 4.5 0 1 1 -8.539 2.844c-9.05-27.176 7.788-47.193 8.51-48.032zm7.371 106.882c-2.695 4.391-7.275 6.809-12.9 6.809a4.5 4.5 0 0 1 0-9c3.3 0 4.564-1.436 5.227-2.517a10.82 10.82 0 0 0 .258-9.338 4.5 4.5 0 1 1 8.025-4.074c2.37 4.656 2.919 12.375-.606 18.12zm11.98-62.492a4.5 4.5 0 0 1 -5.132-3.764 86.6 86.6 0 0 1 -.754-23.151v-.015c1.207-10.224 4.771-18.446 10.71-24.538 13.029-13.368 32.262-11.088 33.079-10.984a4.5 4.5 0 0 1 -1.126 8.93 29.4 29.4 0 0 0 -3.492-.121 24.927 24.927 0 0 1 -30.636 33.988 88.745 88.745 0 0 0 1.113 14.524 4.5 4.5 0 0 1 -3.758 5.131z"/><path d="m58.222 159.488a3.5 3.5 0 0 0 -3.167 1.54c-4.542 7.1-1.521 14.415 8.981 21.75 21.2 14.807 42.766 17.569 57.691 7.39a73.4 73.4 0 0 1 12.424-6.7l.07-.03a97.415 97.415 0 0 1 13.017-4.469 64.682 64.682 0 0 1 11.533-2.179q.444-2.3 1.044-4.433c-5.019-6.789-7.73-13.656-8.119-20.5-.009 0-.018 0-.027-.009-5.889-2.686-26.99-4.061-39.63 8.749-13.314 13.5-36.459 13.653-37.437 13.653a4.5 4.5 0 0 1 0-9c.378 0 20.433-.227 31.032-10.973 14.571-14.768 36.872-14.49 46.95-11.623a32.319 32.319 0 0 1 2-5.615c-10.42-2.209-33.62-5.126-50.483 7.545-19.147 14.383-36.969 15.509-45.879 14.904z"/></svg>