<svg id="Layer_1" height="512" viewBox="0 0 512 512" width="512" xmlns="http://www.w3.org/2000/svg" data-name="Layer 1"><path d="m274.315 403.781a6.046 6.046 0 0 0 1.673 7.461 6.822 6.822 0 0 0 7.619.345 29.851 29.851 0 0 1 2.522-5.5 31.278 31.278 0 0 0 3.364-7.807c-4.653-.558-12.188-.426-15.178 5.501z"/><path d="m280.113 378.243c-.2-.086-6.523-2.783-14.852 1.917a20.815 20.815 0 0 1 -20.6.162l-.1-.058a15.729 15.729 0 0 0 -12.138-1.373 14.53 14.53 0 0 0 -8.85 7.248 15.317 15.317 0 0 0 -1.206 3.1 35.938 35.938 0 0 1 5.037-.143c8.667.378 15 4.054 18.318 10.63a14.966 14.966 0 0 1 -4.278 18.689 15.348 15.348 0 0 1 -9.431 3.237 16.227 16.227 0 0 1 -2.351-.189 36.221 36.221 0 0 1 -.584 5.5c4.259-1.543 10.19-1.758 19.666 1.595 8.446 2.988 8.867 2.777 14.037.211 8.574-4.255 14.727-5.073 19.513-4.112a31.651 31.651 0 0 1 -.211-3.25 16 16 0 0 1 -2.31.188 15.134 15.134 0 0 1 -13.494-21.865c3.318-6.576 9.652-10.252 18.319-10.63a36.375 36.375 0 0 1 4.99.14c-.023-.08-.041-.163-.065-.243-2.177-7.174-9.338-10.719-9.41-10.754z"/><path d="m266.782 436.829c-7.3 3.623-10.117 4.075-21.041.211-11.361-4.019-14.368-1.645-17.019.45l-.2.154c1.585 1.389 3.46 2.937 5.627 4.555a38 38 0 0 0 51.916-5.635l-.065-.064c-3.048-2.589-6.835-5.817-19.218.329z"/><path d="m328.882 165.5a44.331 44.331 0 0 1 4.8.77l16.05-10.1a36.315 36.315 0 0 0 -29.237-1.559 42.449 42.449 0 0 0 -14.439 8.889 4.5 4.5 0 1 1 -6.457-6.269 50.979 50.979 0 0 1 11.8-8.307c-13.83-4.281-26.376-3.379-37.4 2.736a37.42 37.42 0 0 1 -18.19 4.728 38.1 38.1 0 0 1 -18.6-4.889c-10.687-5.966-22.97-6.813-36.616-2.577a50.971 50.971 0 0 1 11.807 8.309 4.5 4.5 0 0 1 -6.447 6.279 41.983 41.983 0 0 0 -18.313-10.125 4.462 4.462 0 0 1 -.9-.223 36.888 36.888 0 0 0 -24.467 3.013l16.043 10.091a44.331 44.331 0 0 1 4.8-.77 4.5 4.5 0 1 1 .9 8.955 36.235 36.235 0 0 0 -5.332.964c-.059.017-.118.03-.177.043a54.107 54.107 0 0 0 -14.9 6.718c7.939-1.082 16.9-1.867 22.912-1.083a4.5 4.5 0 0 1 1.675 8.356 52.242 52.242 0 0 0 -11.853 10.267 34.726 34.726 0 0 0 -8.146 16.216l.7-.72c.012-.013.024-.028.037-.041 2.645-2.739 5.675-5.837 8.8-8.938 19.1-18.987 22.174-18.987 24.417-18.987a4.5 4.5 0 0 1 .566 8.965 21.688 21.688 0 0 0 -4.143 2.913c-.759 6.7-.762 17.861 2.59 23.4 3.15-4.826 8.45-12.388 13.774-17.514.039-.552.071-1.1.126-1.66a74.771 74.771 0 0 1 4.672-19.526 4.5 4.5 0 0 1 8.309 3.46c-.106.257-9.512 23.5-.021 38.761 3.407-8.134 9.4-21.483 15.169-29.529a4.5 4.5 0 0 1 8.125 3.166c-1.156 9.5-2.165 32.311 3.285 46.107a28.734 28.734 0 0 1 4.68-9.921c5.6-7.267 8.727-15.368 9.037-23.425.2-5.107-.384-8.085-1.039-9.8-.516-.889-1.047-1.722-1.593-2.484a4.5 4.5 0 0 1 6.857-5.786 13.953 13.953 0 0 1 2.9 4.444c4.3 7.734 7.492 18.216 9.421 25.682 7.991-15.237-.8-36.967-.907-37.22a4.5 4.5 0 0 1 8.311-3.455 74.771 74.771 0 0 1 4.672 19.526c.055.56.087 1.108.126 1.66 5.326 5.128 10.628 12.695 13.778 17.52 3.367-5.539 3.356-16.7 2.589-23.4a21.674 21.674 0 0 0 -4.146-2.916 4.5 4.5 0 0 1 .566-8.965c2.243 0 5.314 0 24.418 18.987 3.12 3.1 6.15 6.2 8.795 8.938.013.013.025.028.038.041l.7.72a34.726 34.726 0 0 0 -8.146-16.216 52.227 52.227 0 0 0 -11.861-10.272 4.5 4.5 0 0 1 1.683-8.351c6.018-.785 14.974 0 22.912 1.083a54.146 54.146 0 0 0 -14.891-6.715c-.066-.015-.131-.03-.2-.048a36.281 36.281 0 0 0 -5.324-.962 4.5 4.5 0 1 1 .9-8.955z"/><path d="m165.054 236.087c-.122-.534-.238-1.082-.342-1.64q-.278-1.479-.422-2.887a4.393 4.393 0 0 1 -.483.05 4.5 4.5 0 0 1 -4.427-3.692 37.758 37.758 0 0 1 2.318-21.446 156.074 156.074 0 0 1 -40.237-3.207c-34.135-7.519-56.747-27.029-65.393-56.42-3.13-10.645-5.725-20.021-8.013-28.293-10.12-36.574-13.825-49.964-30.785-56.47a102.283 102.283 0 0 1 5.152 10.365c8.973 20.707 15.124 49.482 18.283 85.527 2.486 28.371 17.339 49.788 44.146 63.655 25.652 13.27 53.843 15.417 65.415 15.7a32.4 32.4 0 0 1 14.788-1.242z"/><path d="m203.847 257.751c-3.894-1.461-8.651.723-11.545 2.593a20.733 20.733 0 0 0 7.26 10.562c3.63 2.614 8.3 3.773 13.921 3.453-2.077-9.217-5.411-15.022-9.636-16.608z"/><path d="m236.011 411.242a6.045 6.045 0 0 0 1.674-7.461c-3-5.959-10.485-6.1-15.134-5.526a30.586 30.586 0 0 0 3.32 7.83 27.2 27.2 0 0 1 2.519 5.72 7.06 7.06 0 0 0 7.621-.563z"/><path d="m463.945 118.552c-2.288 8.272-4.883 17.648-8.013 28.293-8.646 29.392-31.269 48.888-65.425 56.381a156.163 156.163 0 0 1 -40.234 3.174 37.755 37.755 0 0 1 2.347 21.518 4.5 4.5 0 0 1 -4.427 3.692 4.393 4.393 0 0 1 -.483-.05q-.147 1.409-.422 2.887c-.1.558-.22 1.106-.342 1.64a32.379 32.379 0 0 1 14.8 1.245c11.581-.288 39.759-2.439 65.4-15.7 26.807-13.867 41.66-35.284 44.146-63.655 3.159-36.045 9.31-64.82 18.283-85.527a102.283 102.283 0 0 1 5.152-10.365c-16.956 6.503-20.662 19.893-30.782 56.467z"/><path d="m341.835 246.97a4.5 4.5 0 0 1 -5.949-6.009c1.661-3.554 5.375-14.779.761-19.476l.011-.011c-4.759-4.928-9.544-9.719-13.794-13.792-.1 9.363-2.092 21.564-11.092 25.81a4.5 4.5 0 0 1 -5.791-1.776 147.555 147.555 0 0 0 -9.512-13.856 34.3 34.3 0 0 1 -10.907 20.121 4.5 4.5 0 0 1 -7.4-2.514c-.02-.109-.992-5.041-2.739-11.413a53.468 53.468 0 0 1 -9.016 17.317c-3.767 4.887-4.472 13.51-4.425 16.419a4.5 4.5 0 0 1 -7.338 3.573c-7.754-6.309-12.146-18.952-13.051-37.58-.1-1.957-.147-3.873-.165-5.721-4.4 9.276-7.752 18.012-7.807 18.154a4.5 4.5 0 0 1 -7.184 1.765 34.3 34.3 0 0 1 -10.907-20.124 146.991 146.991 0 0 0 -9.512 13.858 4.5 4.5 0 0 1 -5.791 1.777c-9-4.246-10.987-16.447-11.092-25.81-4.25 4.073-9.035 8.864-13.794 13.792l.011.011c-4.647 4.73-.913 15.928.761 19.476a4.5 4.5 0 0 1 -5.949 6.009c-12.347-5.673-26.013-.373-39.664 15.335.481.594 1.053 1.265 1.7 1.979 20.6-23.79 44.789-7.42 45.044-7.243a4.5 4.5 0 0 1 -5.126 7.4 27.536 27.536 0 0 0 -12.118-4.017c-7.856-.6-14.948 2.727-21.117 9.893 8.215 5.988 20.9 10.432 36.5.294a4.5 4.5 0 0 1 6.952 3.835c-.008.57-.514 57.462 20.986 90.576a15.428 15.428 0 0 1 2.312 10.93c-.651 3.939-1.018 10.565.917 19.762 1.017 4.836 2.676 8.553 4.93 11.049 2.143 2.372 2.081 5.431 2.021 8.389-.088 4.375-.168 9.273 5.739 14.084 1.445-4.583 2.712-12.034-1.136-18.6-3.614-6.167-5.376-12.272-5.239-18.144a23.794 23.794 0 0 1 2.722-10.506 23.465 23.465 0 0 1 14.268-11.721 24.786 24.786 0 0 1 19.124 2.16l.1.058a11.884 11.884 0 0 0 11.755-.16c12.545-7.08 22.72-2.407 23.147-2.2s10.719 5.162 14.119 16.137c2.31 7.471.9 15.672-4.2 24.375-4.6 7.856-2.511 15.638-1.173 19.047 10.271-6 9.811-15.038 9.58-19.5-.025-.474-.045-.886-.052-1.226a19.359 19.359 0 0 1 1.43-7.031 48.38 48.38 0 0 0 1.769-6.205c1.935-9.2 1.568-15.824.917-19.763a15.428 15.428 0 0 1 2.312-10.93c21.5-33.113 20.994-90.006 20.986-90.576a4.5 4.5 0 0 1 6.952-3.835c8.177 5.312 16.257 7.164 24.012 5.5a32.894 32.894 0 0 0 12.467-5.819c-6.162-7.147-13.239-10.462-21.1-9.868a27.509 27.509 0 0 0 -12.122 4.016 4.5 4.5 0 0 1 -5.124-7.4c.255-.176 24.435-16.535 45.025 7.221.65-.711 1.227-1.381 1.709-1.971-13.646-15.695-27.308-20.995-39.653-15.325zm-147.645 31.158c-9.668-7.043-11.351-18.509-11.418-18.994a4.5 4.5 0 0 1 1.481-3.99c.467-.411 11.554-10.022 22.756-5.818 8.234 3.089 13.689 12.554 16.238 28.153.006.033.011.065.016.1q.253 1.556.467 3.192a4.5 4.5 0 0 1 -3.878 5.046 4.554 4.554 0 0 1 -.59.039 4.507 4.507 0 0 1 -4.072-2.593c-8.29.7-15.346-1.018-21-5.135zm33.882 82.116a4.5 4.5 0 1 1 -8.49-2.987c.127-.385 3.338-10.526-4.3-25.115-9.475-18.094-5.689-32.678-5.524-33.29a4.5 4.5 0 0 1 8.693 2.331c-.136.534-2.932 12.011 4.8 26.783 9.566 18.265 5.02 31.714 4.821 32.278zm68.647-28.1c-7.644 14.6-4.337 25.014-4.3 25.115a4.5 4.5 0 1 1 -8.49 2.987c-.2-.564-4.745-14.013 4.818-32.278 7.858-15 4.841-26.644 4.81-26.76a4.5 4.5 0 1 1 8.687-2.354c.164.61 3.95 15.194-5.525 33.288zm32.51-73.008c-.068.485-1.75 11.951-11.419 18.994-5.653 4.117-12.7 5.833-21 5.134a4.507 4.507 0 0 1 -4.072 2.593 4.554 4.554 0 0 1 -.59-.039 4.5 4.5 0 0 1 -3.877-5.046q.213-1.637.466-3.192c0-.034.01-.066.016-.1 2.549-15.6 8-25.064 16.238-28.153 11.205-4.206 22.288 5.407 22.756 5.818a4.5 4.5 0 0 1 1.482 3.989z"/><path d="m308.129 257.76c-4.213 1.6-7.539 7.4-9.612 16.6 5.619.321 10.291-.839 13.921-3.453a20.717 20.717 0 0 0 7.252-10.536c-2.69-1.742-7.475-4.162-11.561-2.611z"/></svg>